<mxfile host="app.diagrams.net" modified="2024-05-07T16:57:37.485Z" agent="Mozilla/5.0 (Windows NT 10.0; Win64; x64) AppleWebKit/537.36 (KHTML, like Gecko) Chrome/124.0.0.0 Safari/537.36 Edg/124.0.0.0" etag="0xBTHI4uaSZoacCserak" version="24.3.1" type="github">
  <diagram name="Страница — 1" id="MBp6kMDxuh87e8q6_Hz7">
    <mxGraphModel dx="1727" dy="632" grid="1" gridSize="10" guides="1" tooltips="1" connect="1" arrows="1" fold="1" page="1" pageScale="1" pageWidth="827" pageHeight="1169" math="0" shadow="0">
      <root>
        <mxCell id="0" />
        <mxCell id="1" parent="0" />
        <mxCell id="XjjyREhmOFZzSv4XFWNx-1" value="&lt;span style=&quot;font-size: 14px;&quot;&gt;Свет&lt;/span&gt;" style="shape=image;html=1;verticalAlign=top;verticalLabelPosition=bottom;labelBackgroundColor=#ffffff;imageAspect=0;aspect=fixed;image=https://cdn1.iconfinder.com/data/icons/bootstrap-vol-3/16/lamp-128.png" vertex="1" parent="1">
          <mxGeometry x="304" y="77.25" width="113.5" height="113.5" as="geometry" />
        </mxCell>
        <mxCell id="XjjyREhmOFZzSv4XFWNx-2" value="&lt;font style=&quot;font-size: 14px;&quot;&gt;Контроллер&lt;/font&gt;" style="sketch=0;aspect=fixed;pointerEvents=1;shadow=0;dashed=0;html=1;strokeColor=none;labelPosition=center;verticalLabelPosition=bottom;verticalAlign=top;align=center;fillColor=#00188D;shape=mxgraph.mscae.enterprise.router" vertex="1" parent="1">
          <mxGeometry x="450" y="91.1" width="110" height="85.8" as="geometry" />
        </mxCell>
        <mxCell id="XjjyREhmOFZzSv4XFWNx-3" value="&lt;font style=&quot;font-size: 14px;&quot;&gt;День&lt;/font&gt;" style="html=1;verticalLabelPosition=bottom;align=center;labelBackgroundColor=#ffffff;verticalAlign=top;strokeWidth=2;strokeColor=#0080F0;shadow=0;dashed=0;shape=mxgraph.ios7.icons.sun;pointerEvents=1" vertex="1" parent="1">
          <mxGeometry x="305.42" y="402.39" width="69.02" height="69.02" as="geometry" />
        </mxCell>
        <mxCell id="XjjyREhmOFZzSv4XFWNx-4" value="&lt;font style=&quot;font-size: 14px;&quot;&gt;Ночь&lt;/font&gt;" style="html=1;verticalLabelPosition=bottom;align=center;labelBackgroundColor=#ffffff;verticalAlign=top;strokeWidth=2;strokeColor=#0080F0;shadow=0;dashed=0;shape=mxgraph.ios7.icons.moon;" vertex="1" parent="1">
          <mxGeometry x="180" y="403.84999999999997" width="66.1" height="66.1" as="geometry" />
        </mxCell>
        <mxCell id="XjjyREhmOFZzSv4XFWNx-5" value="&lt;font style=&quot;font-size: 14px;&quot;&gt;Часы&lt;/font&gt;" style="sketch=0;points=[[0.5,0,0],[1,0.5,0],[0.5,1,0],[0,0.5,0],[0.145,0.145,0],[0.8555,0.145,0],[0.855,0.8555,0],[0.145,0.855,0]];verticalLabelPosition=bottom;html=1;verticalAlign=top;aspect=fixed;align=center;pointerEvents=1;shape=mxgraph.cisco19.rect;prIcon=clock;fillColor=#FAFAFA;strokeColor=#005073;" vertex="1" parent="1">
          <mxGeometry x="590" y="86.9" width="90" height="90" as="geometry" />
        </mxCell>
        <mxCell id="XjjyREhmOFZzSv4XFWNx-6" value="Датчик движения" style="shape=image;verticalLabelPosition=bottom;labelBackgroundColor=default;verticalAlign=top;aspect=fixed;imageAspect=0;image=https://cdn-icons-png.flaticon.com/512/2143/2143136.png;fontSize=14;direction=west;" vertex="1" parent="1">
          <mxGeometry x="156.75" y="80.53" width="102.75" height="102.75" as="geometry" />
        </mxCell>
        <mxCell id="XjjyREhmOFZzSv4XFWNx-7" value="" style="shape=image;verticalLabelPosition=bottom;labelBackgroundColor=default;verticalAlign=top;aspect=fixed;imageAspect=0;image=data:image/png,iVBORw0KGgoAAAANSUhEUgAAAaMAAAG6CAYAAAClTCmnAAAAAXNSR0IArs4c6QAAAARnQU1BAACxjwv8YQUAAAAJcEhZcwAAEnQAABJ0Ad5mH3gAAP+lSURBVHhe7N0JuC5LVd//nemfRDAmGqOCBiJoVJwFMVdUNEIAL4MZJIkMwUhEgYAgMkYmFXEOQ5xQE2TSqwEV1EQkiMEgEWeRiIpTRCPBgWjmvP/+lH63RfPuc/Y59+yz34v9e571dHfVqlWrVq0aurq6+0/sFhxt2LBhw4YN54g/+YfHDRs2bNiw4dywDUYbNmzYsOHcsQ1GGzZs2LDh3LENRhs2bNiw4dyxDUYbNmzYsOHcsQ1GGzZs2LDh3LENRhs2bNiw4dyxDUYbNmzYsOHcsQ1GGzZs2LDh3LENRhs2bNiw4dyxDUYbNmzYsOHcsQ1GGzZs2LDh3LENRhs2bNiw4dyxDUYbNmzYsOHcsQ1GGzZs2LDh3LENRhs2bNiw4dyxDUYbNmzYsOHcsQ1GGzZs2LDh3LH9dnzDhsvE3HT+xJ/4E3949kfh/+N//I+j//N//s/RjW50oxGG/tSf+lMjDP70n/7Tx+nE/b//9//GNfpf/+t/jbA/+Sf/5NGf+TN/ZoSJl5YMFJJd2g0bbojYBqMNGy4Tmo4BAgwC//t//++jV77ylUff+73fO8Juf/vbH33cx33c4DN4NPhIU7Mz2MD//b//d5yLFzfLls45HnLiA2HQ4LQNRhtuqNgGow0bLhPzgGEg+qmf+qmjb/iGbzj6uq/7unEHc//73//ofve739H//J//c9zdoPAX/sJfOLrFLW4xBhFy8It3boBpAEIGH2HO/+yf/bN/KOEPBp7usmbZGzbcELENRhs2XCZqOgaJ3/iN3zj6jM/4jKNXv/rVY2D63d/93bE8947v+I5vdcfTncwnfuInHj3rWc96m8HI0RKdQae7JvKc400OFA/bHdGGGzq2wWjDhstEg4vjm970pqO/+3f/7hiMukv52I/92EEGJQMWXgOIu57f+73fO/rVX/3V4+W1BqlrrrlmyDG44EUGqM6TA//f//f/bYPQhrcbbIPRhg2XCU3HXYsB4c1vfvPR3/k7f2c8M3L95/7cnzt6+MMffvTQhz50DEYGEIOKOHc9P/zDP3z0xCc+8XgwEY8+7MM+7OhOd7rTkC1O2lvd6lZHN77xjY8Ho5bmGoySsWHDDRnbYLRhw2ViHoz+63/9r+OO5gd/8AeP457whCccPe5xjxsDSHc4lu8MRu6OXHen4xw997nPPXryk588BhpxN7vZzY6+8Ru/8egDPuADju+4arINRNtgtOHtAdtgtGHDZULTqfn85m/+5rgzetWrXjUGBwPL4x//+KPHPvaxY1Bp0BBuYLI8hwxE4skxsL3+9a8/+tEf/dFjubaHv+51rzt6y1veMnil/Qf/4B+MZ07O8ZHrfMOGGzI2D96w4XrCgNCA0uCAiougXXIGHkcDjDgDkzsfd0Cf+qmfenTPe97z6O///b9/dJe73GXIMhh5zvTf/tt/O3rNa15z9MIXvnDQL//yLw853WVt2HBDxTYYbdhwPdASWy+pNjAYQLr7gQYn27wt1XWn0yCCz9KcwcpdTvRu7/ZuR4961KPGUt23fdu3HX3rt37r0Rvf+MajT/mUTxnLgq94xStGvuSSt2HDDRXbYLRhw/WEgWYeSLoTMjgg8S2jGXhsSvCe0TxYGcwMUr//+78/rpOH/tJf+ktHf/7P//kRLv297nWvo+c85zljcPJu01Of+tQxqMlzw4YbKrbBaMOG64EGGoNKdz/QwCBMHB7nyHJcmxFAmEHGEd/M69zARIaBzWBlKe8e97jH0d3vfvej933f9x07+Z7//OcffdM3fdPRD/zADwxZUaDPvvANGw4F22C0YcP1QANNd0Pz3YnBxJ1NAxVqEOquKX4y3DG9wzu8w+Br+c45PufCLO8J607JFx58cujRj3702EruCxC//du/Pe60GnjSy3l5Rhs2HAq2wWjDhuuJBpo1dP42KhgYkIGguyIDVANZaMCRBuEHfA0slvdsDXduQ8N//+///ehDP/RDj573vOcdXXfddUcf/MEffHSf+9zn6Kd/+qePBy9HoGP5Sb9hwyFhG4w2bLhCWN9p7Lv7MBicRA1q8+Bm0OgaT0t2rh3Jf5d3eZejT/iETxhfe7j1rW893k3ysVZLdtI0kCUHbdhwaNgGow0brgcMBnX2+wae7oAiwNegsI/H0p67J3F4kfPCQFpLeg1O0tDBXZIXbX3h4SUvecl4GddnhyzdSZOOyUl+4Rs2nBe2wWjDhuuBC3Xm64Fm3x1Jg9Ic57wBSbqW+JLnXBg0GLkWL62jrz/c9KY3Hdu/bQP/5m/+5pHut37rt4537G3YcEjYBqMNGw4UDVINMqGw+ZlSZHByx2Sp7ja3uc3RHe94x/G1hl//9V8fv7bw0qyBDrY7og2HhG0w2rDhesCgEM0DBujoW8Kbl/HWfDAPCg0ShRk8yE+OQadlOTziGozcTdlpZ9OCJTufJPJB1nd/93c/etGLXnT0cz/3c2NAgjmfaMOG88I2GG3YcJkwqESXi30ynBtgQgNRnxAqzF2Qo3A76wxA7pZc23UHvtYAD3zgA4++/Mu//OizPuuzjr7+679+hG3YcEjYBqMNGy4Tp7mjmAebBpzTpIP4uwNyPQ9MPUtyR9TP+JC7JvzC3SVJJ827vuu7jl9auDN65jOfOb74cDE9ir8Qz4YNVwLbYLRhwxVCg8cMYTOtsS9sDQPBOr3BxUAkzgBkeU584Y4GpQYjfO/8zu989I//8T8e7yb5VYW7qQ0bDgXbYLRhwxmiuwp0IYg3gETzdXc77nTcEYEluu6GDD7uklqu8zsLYQaodtu59jFVcI02bDgkbIPRhg2Xie5WumPZN+CseeBiYTMZbObzNjN0Hc0bGjpH0BGfQcufZH3X7su+7MvGn2mlSXe8BrXSd/e1YcNZYxuMNmw4IzSIrGmNwufBZb4ujWODUYjPnU7n7pjAICKswQiPc19psOX7v/yX/3L06le/evwfyQDUoBRBx3TYsOGssA1GGza8ncBgY2kONWitSTjyte9nPOMZRz//8z9/9KQnPWks7xmo8EjvuGHD1cTmcRs2vJ3AYGSg6TnRPAhFDUZ43vEd33F8VNVLsY985COP/uN//I9je7jddpbn3A11x7Vhw1ljG4w2bHg7QEt0DUjrQQjFMw8uH/mRHzn+j+QX5r/0S780wizN9awIr3O0YcNZYhuMNmx4O0DPeQwe3RU5j+Z4R4NLz4nATjt3RdK6YwLX4tupt2HDWWIbjDZs+GOCBh5HA01fbfDZIH+K9aXvL/mSLxk87q4MXOJ7DrVhw1liG4w2bHg7gUFmTWsYYKA4x7/8l//y0V3ucpfxfpIBSVh8NjW4W0IbNpwltsFow4a3E8yDj/P5Ggww87MjX/d2jM/ynG3hb37zm49fkC1+LWvDhiuNbTDasOHtEBcaPBqM2gIeHvzgBx/9jb/xN47uec97Hv3oj/7o8cBFVu8qbdhwVtgGow0b3g7R3cyaoMHI0pswmxkMNre85S3H9+te8YpXjD/E4ptpw4azxDYYbdjwdor1IDTD4NJAZJOCwciOOXdL7/Ve73X0lre8ZQxI8ca/j8K+sA0bTottMNqw4e0ELatBA0iYrzt6LiTNn/tzf+54ye6jP/qjj17wghccfe/3fu/R0572tPGF77Z4g6OBC22DzoYriW0w2rDh7QwGiQafNYGjQcjgg9eg5KsLzt/lXd7l6EM+5EOO3vSmNx39yq/8yvELtDNmWSDdPtqw4VKwDUYbNrydwABw0kaDfYODQcYyncFo/jZdy3aeKblrmgejBrKoQWkbfDZcX2yD0YYNbydYDwjz3csaBpzf+Z3fGWludKMbjd+U+16dQailuWDAQtuAs+EssQ1GGza8naFltPmuZd9A5c7G3Y+lOANRfP4O++mf/ulHN7vZzY6e8IQnHP2n//Sf9v5iIgoXGvw2bLgYtsFow4a3E8yDEFoPFjPEW4IzEDk3KLkrcgdkYPo7f+fvHL3ne77n+M3EL/7iL77N8t96MDptvhs2nIRtMNqw4Y8heh7kGAw4PopqW3fLdOLbaTc/IwL826Cz4UphG4w2bHg7hYFiHjDmuxeDzW/91m8d/Y//8T8Gj2U4g40ByjIdHuHIYIRKG+bzsN0VbbhcbIPRhg1vZ2hAWA8KhRlgetnVTjp3Q8INLu6A2kEXLz7UJoYGpUjYhg3XF9tgtGHDHzO0BOdr3QYb7xi583Hef4sMRgh++7d/e+y8axNDMBDtw0nhGzZcCNtgtGHD2wm6UwldRwYSA5E7ofluqLjSdH7NNdccPfnJTz565StfefSSl7zk6Pd///dHOjLmdAYxlLz1s6UNG06DgxiM1g49n4fCHWe6GGbeWW5p1/FzHBReXFiHz3FrFH8hnhnxJj+s5cTTdZj51hT2xUUz9sWfhi5ml5l35tkXFk6KOyl8xswTX+fZufAZ8cy0DpfWEhbUGYfiS3c1kF6wb1AQhvC4I7J7LpROef7qX/2rR3e+852PXv/61x/9zM/8zFttdgjJKp/5fF3m9FrT1cA6P0dlVDcbDgMHc2dUh9B569NrB+o8/pnntLQPxSUzFB6Frtf8VwpkZoNQnjMKm+lC4ftwGp5LwZWWd30w6zLr1PnsQ3N41+GksI7uFhzbfTZ3yNfHVy+Fym+mBoeIfgYf/y0S7zj/16g0lcczpP4I639H0pIx8+67Eyp+H4orfr6+UnQauQ1G++I2XH0czGDEoZtRds5R5tnLPqcPHAhv/BFIU6MpjzXiWWNOty/+QjpdH5Cp0c/6ClvnNV/PjSjemU7CaXguBeSclV2uD2Z91p3ObOd92GefrqU1AIFOu+cuYe2T5X0lKdCJPtGFIJ4+dHY08FQOvmegQqAM+CrLhXSAffYKxc3x2Sa6kOx13Ez7kLzOK0f2mV/oFb/hfHBhb72KyDHXjjM7mOvTOkvOnpMVBjkdh5zjioc53YzCi+PQs9w1wSx7H8+awpwmW8zHzuOJ4FLynOE62bP806I8Z5TPSXKliWem+FB8YeabMYcX55g91nnBHHcazHLXMkCYzhx0fHP4WSJ99tFs++zaYKQdAD2F95fX9F5PivCcBuUdhX1hkA3L90qhvC4kO5tsOD8cxGA0O2YzrxoJ59EQxGvYaB/waTQ1nNnxZidzTm6zoznukECvqGv6pnN0UhlmnovRDNfZvwZ6Ep0W+9KiNfbxoDX28USXCr6Sf52UXvhsj8Ki4vLVfFEcPysM8ssrTWHWJ33nMP4yh0dkCHeX0Lfp8Dr2XGluV/uo/NE6jzluTXAa2WFffBSSC+t86iMKq66Q81nOhquHgxiMODzn5QSWCoBjtD6tUWgg4ltGyHlQIKNG0DVwvEAGmeTsc7waxcWAb5Z7NSC/dC7/dCjsJN3n+H3pg2t5RHOaNZ0W+9KiNYTNepX3GrOMNV0KyJ+xz6cuhvKUZu7o7ToDNrR1WiePtw7+ShO5II+1DVH1ye+RMC+8FmanHB2Fe+k1O2iD7b4LxXWuzOtyQXWSjcJJ4cmdZc5y6YcqayhN/GvKBskoTNmFeSYGwjacH/7EUomnb3lnBH+U9M/9n/qpnzp2KuAcHHZWMceaBxpUupkXz1qGc2EgrM4jOV2H+RzWDeissM43zPrTFa3LNB/D1dL7QjgEnegg3yid2HEGe87x63SFgbTew3n2s589vuMmXPrHP/7xR49+9KPHspdJFirNWSAfmJGu67JoKwaYngkZmNKRHPHS/O7v/u74Th3c/e53P5Yx2wet2026lD/M8TPw4J/jkwvVTdd4DSRrrHUI6SC+czLQrW51q6O/8Tf+xt5fZWy4ujiIwejnf/7nj77sy77s6Ku/+qvfyplyUI5ntubuyPXcqMUhjmaW00AmXlgOlkO7rsEJM1MqD0RGvIcIepvJ0lFZHTUcpBzZZUY2mONrbPv4LxR3NVGZrg/IUK/zRIU9hDlmw3Wdi8sO4HwmSN5cD+Ccj/3Tf/pPjz7rsz5rnOeb8o3vSoIuUZh1dSwuPjq927u92/h9hPPZLtnDJ4M+5VM+5egHfuAHxnUyso9rvMoWxJXHaUBOdinNnH6fLHlA5YM13zoO5OOcvurlvve975g0eAG4pUiY0264OjiIwehnf/Znx2D0dV/3dccNgdPYSuoW2gxOuE6YugYQ4DDCG5w4WMVxTA4+jQ3w53TiG4zw4MWXjOTnmPhR8fuAH/DMcmoE0odZDp7y6Tg3cKis7CCOrnUiMMsGeYqb4ytfecw6hOJgXzzM+iYfhElDv3jiC+JnubPes74z3zrNjDmPNR9ZZv/KnT3ZEIkrPB0cL5TPSRAnbfqTqaO/yU1uMjp7Eyl3H2eNfbbeh+zysIc9bNzx8BUfSFUG7c450Psf/IN/cPTv//2/fytZ2RwJX9dheuzLf9ZRfJSsK4X0a1ky2bUbcX/lr/yVow//8A8/+rzP+7yjD/7gDx6TXph13HB1cBCDkf+lfMVXfMXRs571rGPH1Fm80zu901hvt8xRmGOdCnAy4Zyn8BxJA3E+p8HfALWWVdiMuWHhFT/zrNPgh5kvHekz57eWMxPEO8uhu8ZVJ4riX+sRiReHlw4z3z4kb8Y6zazn+lwe2R7RAchIziyv8HiTdZKuhcXXEZIVxGV7BA3S4gqfZaYvJG8td+YPpUUmOR/7sR97dPvb337kn+2vNmadZ9DFJO/aa689uu1tbzsmaCZ++FuFAGF/7+/9vfEVBpjlze2IvMovXHmF78t/tlk8aA6/GJIrTenWeRWnvcCsU/p+5Ed+5Cjf3e52t/HLjJYtk7nh6uFgBqOnPe1pYzDqToUDmaFpFBrN3GHM4DQaOxS/r6PJuZwLg9nhSivfeEoXH2cO5THLgzmfoHFycmUziMAcD+UTAZ5ZvnD5zoPRLKd06TbLIWPWM8x8UJ4gPFnpfRKS4bjWqbhZNhQ+Yw6rDsIsB7pep9kHPGitQ0hGg33Au+5YO0f4AY905cFefkz32Mc+dviwOB3+1UY6z6CjCd5v/uZvjr+8IvppZ/g9P6nMlul01pbppJt9sUkgPuHOsx9ZbDDXh/j5CMXzs5Mw84P8kHBU2rl9Flc8fjrNccIf+MAHjlWZ5CXL+Yari5M94CqCU0eBM3AQDpaTcRTOnsNAPBw/0ulzPEfOjt9goJHNHQ2sZYpHXUs/6wDi4pMW5eBr4FUuvDXefQTzdekQ+cULjyc4Lw8d3pwX/dedQvpC6dgHVabKSB67JS9aQz0g+TjOKG4dHuay7pMNwvGl22yHNa0hTeWoLDPm/OloOQ3psFGTiPxgXznKN3uTJV/XZAmD2RZXkuSTfs731cMMZZ7rHPogKtBXGzKQZp8Z5Vk+0ZVEMstnzu+k+o6HHZQBpb/6cJQGT0f10yR4w/nhYJ4ZoZ/7uZ8bW0xzfEsE3/Ed3zGc5FM/9VOHU73mNa85+vZv//axjn3LW95yOJgGI82b3/zmo3/5L//l2J3nl8keTrq78m2t5z3veeNW/IM+6IOGbOk0NrwvfOELj97rvd7r6E53utPxmvGv/MqvHP2rf/Wvjj7qoz7q6GM+5mNG3nUoGjB5ZNBDOOe3zv6c5zzn6L3f+72P7nKXuwwH5/C//uu/fnTdddcd3e52txtLIlCjgm/6pm8aHcI973nPUQ7hyiKP933f9z36W3/rbw1d5UceG/lwpZ1O97nPfUZHS578vvmbv/noxje+8dgBpSMFetnp9QEf8AFHd7zjHY8bM9CbjS2HshcoD5uS9S7v8i7jAXYDO5Lvy1/+8qP/8B/+w9Cb3XxUk37f8i3fMmT9o3/0j47L56he3vmd3/nokz/5k4/DgB7f+73fO+qfLfEIU95v/dZvHUeyhKWztD/4gz949LKXvWzEqTt60fnf/tt/e/TLv/zLQ9Zf+kt/6bjzURZl4EfKXP7SvOpVrzr64R/+4SHrPd7jPY7jv/u7v/vol37pl47uda97DZuSww8cf+zHfmzUdWHB+bu+67se3fve9x7fdfuwD/uwEcZO6XJWmG16IYhnL/5Bt8rEFo7Kylbs8KY3vWn4mGdG+X/8ZNz1rnc9+riP+7hxLn/1yNb87wM/8AOPdSKL3/Bpy2H80MSAnF/7tV8b/slW2ptnbPL46Z/+6eE3bGnXm/zZURqypHmf93mfYWdxSN3L42/+zb959NEf/dGDN33pIM1P/uRPDr3UxwMe8ICjL/qiLxo81dGG88FBWF5nqqPmVGYpnMIgYWlAR+5B8EMe8pDh6JzF0sH97ne/o4/4iI8Y1xyTDLyc8T//5/88GoJbcLO9V7ziFWPbuOUGTioNfgOOTk1jsHb8GZ/xGSNO+le/+tVj+dAAIZ1wHaNBwvZdOwDtwOHMHFneP/7jPz4GVGUhq8ZB1hve8IbRqeuMNQSkob/uda8bg+VNb3rTsfuKXvT5j//xP47yfvzHf/zRp3/6p4+GRAcDi0HgN37jN8ag+NCHPnQcdR4GKeXVCT/4wQ8e1/jkQa9P/MRPHHaTt4GD3TRM5SWbvZRFmp/4iZ8YOv/1v/7XRxmlqQNSN/JwrUPR8dPzF37hF45+9Vd/dZThsz/7s0f5LQXJW1ne//3ff4QDefRjY7NxHRSbsQO9bPVXPzomZaQXkKk87IH+8T/+x0OuicuP/MiPjLTv937vN3axeThtYJQ3HXSyykhvRJY0ymSp6tM+7dPG4E+WD4PyMwM4W5rUSMPWYAClu7pTJ/Qjz9GAatD7a3/trw2fkZa9q3dyzgKnlZsOJl4NOvTzjTrh7OEalAe/sICHLU0GtQ0E2sRf/It/cfjNP/yH/3D4ROXmYyaS2s6tb33rYWs2F24ywJYGNpspTICk0zbZ12RAm6KDvoF/amvSGAj5jXLwvx/6oR86nkBoa9LIX7vFb+IFlRPkdVrbbThDLBV17lga7G5xpt3SmHfLbG2c/7t/9+92y93N7lnPetZucaTd0kHsFgff3f/+99/9l//yX3ZLp7NbZnIj7dKpDVo6hd3Ske/e+MY37paOfrd0RLuHP/zhu2uvvXa3DGwjHdl45bXM4nfLILRb7jJ2S6c55C0d4+4Lv/ALd0tD2i2NYchZBsiRznFx5t27v/u775YZ1m5pSLulcQ3dlrub3Yd+6Ifultn0yJ/OdFtmXbtlANwtnfvQR/kcxb34xS/eLbPo3XOf+9zd0vGNMHp94zd+45BFr6VzP5a1dBq7ZZDaLXd3u6/4iq8YOguThn5k42Ub4Y7//J//890y49x9//d//yi/eLxoGdR2H/zBHzxkKYvys81yR7Jb7u6GfZRFPuwijg3oQl9pyFwGp92/+Tf/ZneLW9xi9y/+xb8YechfOdlpGWh2//pf/+uRho7p+9rXvna33FHtnvCEJ+yWDmbIXTqI3TJ52N385jfffdVXfdWQr16zjbzucY977JaB+7g84pdZ9G7pmHZPfepTh7745a++ljun3dOe9rTd0kmNMsqbfmQtk43dox71qN0ymRjX6nKZuOyWDnPUHZ3lKw82oJ+0y6A/+D72Yz92twzku6Uj3y0dt9uAYYdlMB22YrPqDmX7QyBlUR/VafpWR8L4H7tWtmiZAOyWjn/UW6RO2HMZFMY1m8mDLD693MXsvud7vufYP8Vpa8sdzLF/qh961E7IWSYlI04aMvnYMtkc7UedkS/dE5/4xN0y4dotE6xju6sncvjfMnncLROl3TLwjDpzfNCDHjTkkoE2nB8OYpmOCoszjZml2ZnbfMsmll8sUZmdL4477lLMOm0BX5xyzGaaqX7Xd33XmHl95md+5lhqMUt7xjOeMe5ePuRDPmTMrMyqzILQ13zN1xwtDj5m0WZXywAzZvyLow99bPN0F2WWL2+zSMtpz3/+84++7/u+b5ybeS1OP5bz3JGYoXuBzjINWV//9V8/dJOH/M343IEsDW0sQZnhu+v7pE/6pDHLXBrP0dIBjxk5WZYZyIKl8xhlNIt0F3GHO9xh3P2xGV3cSYHyLwPZsOfTn/70cadgafITPuETxu7EpeGNsnzbt33buGN0J2LJxB2AOLLczblDoDNbmh2jZYJwtHQa425EOAi3bMr27gTsHlMW+tqQ4u5GWdiS3uoMLYPXmKX6TYE0t7nNbUYaoJeZ7Rd8wReMuy51LI2y049uljvZms3IUieWR9Wl5R78y0A47nzY31Ir/fIBd5eW2fiWpSH58yl3PHaOLQPKsD8bS8M27hbb8emunD/+/b//98fSoPxAOS13OrbkiPiQdF0fAugxN3/n6aguHPmX8i0TprGczXZ4+Iu2YDlcW/uGb/iG4ats744oucqtvS6DyvALS7ramlUBbRDYWBptP8hvGUSGr4F2Qx8+rW3xaX7Dp5cJ0+gzxPM1/qzd0p2+6llbs81em7T8h5fvks/P3OmpZ2EgfsPVxR8tdp8jagQ6Yc8irMdzCh2SDoaz6SQ48Owkbvl1RBqL23bxHFDHYdmMgxqMPL+xrASWkfBzToPD3/27f3cMCGTpbC0xWIe2XGB5BeglzpIWvTi7BmUw03EtM/whS+dkaUhnLtyygQZo+UGHWhmTZYnLcwodskZrAPGcwsCmk5OH8mqU7NKSEt10ostdwdEy0xxLkJY7LO+RofyWmsQZLOml0YKBUGdvGYxs5Vdey2kvfelLR1ksjVmnN3hozCBvA448DADS6rwNTvI3wFmaUV945G1ZhP3JMuiBtAYCkw26eI6nAwP2IcuSmsGzNEBfSzA6Ih2XwYMthfEX5VYvOiNyyG75x5KZAUmHppNlw55tmHSQJY14stQPn9HhsSXZOjADvsGVD7E9G2SfOj7y/vbf/ttjuSqQQT5IcygE/Nk5/RyVoQ5ZGB+1fG7wjzd+ZbaMZhmaXUyCTJLYEfEpbc2gpW2aWBiwtDHP+6Q1sTCpMxgAu5pYaB/SqyttR71r63zDoOKZ1NxuLc2RRVe+KJ002g2f1pYtDRo8laOBRznUz4YDwFIZ5w6300snMW77LXF86Zd+6fFSj1v2pdPYLQ45brGXmcwIl8YSlOWRG93oRrvHP/7x41bdMotlgGXw2i1Ou/vqr/7qcfu9OOe4xf+X//JfDv5lNj9kkGVJQJ6WEf79v//3x0s5bu/d7ltCsGRoeWDpAId8aZdGtls67rHMZjlPmLzIutWtbjWWasiRh6O4pXHslruK3XLXNpaTWk5wtLyxNObdZ3/2Zw99kaWhpeHulsFnLGnQyZKFcirjMsiOMkkvrKUWy4eWVx760IeO/OksLZ2WDnv3lKc8ZfDTSR5svMzkd8sMdyxtkENnulkmsdT44Ac/eCybsBfdlo57LPOpB3my79IBDLssnfGQKU82y9aW9pY7rt0jHvGIkUb+8slOD3nIQ8ZSi3yEyYvuy6C5WzqTUTdkildXltMe+chHjnwt0eKVRvw/+Sf/ZLcMKqNuyJKfZSfHZYY8bLd0ZCOOXLpYMrQMunSUo4xspF6Wu53dMgkYtpIH/1QW8peOdyxd8auHPexhIz955I/SsGd1egjE1si5ctO1OoqHHWsDfHrpwMfSlrLyb/VvGdxSpeVj9Vw9SnvdddcNX2cXy+tsIf4rv/IrxzLbMrk59lfLpPLSPpYJ3Wgf7JYsPq6+vuu7vmuE54f0sgxNlvzVC5nKsgyEw6f1AdLIe5kYjr7E8rjyWKarvDNtuPo4iGU6s3pLUHac2bVj54zZkgf6dtO4w7AssjjJmIFZLqG2mZWZLFg2cLsP+MzEzGTNlC3PmM2V3mzaco6lJmFmcWbK5JmRe7C6OPrIA8zWzP7IMrMC8tqc4OVGdzH4zeLMosmzzOOOBK88wB2bjRlm3fSynLA0uDHLXBrRuGOQxizT7E24/JXTsqU7j6VRDXnK6CGvN8jpVRmb8blrMUMX71rc0ihHGnLMJEuzNO5x90MvdyRkmCVLt3Qio5z0YmPLKeLNPJXFnRVKL2VUj5a/yEonebGrOxZ3kupZWHZ2Tgc6tqwapHFtowmQ4w7SHbE82m0F5NHF7Hrp6IYe6iW70IdPSWv5zt2bOiBf3alXdeduGj99yCL/mmuuGXnQFbkDdueerWx2WCYN41p90oO9XKPSnjfomi0c6cQ+ysi27i5cixe3TDiOlgnESOuaL6gLdznsw44taSfTHbI2yLb80x0wmZb1pJOeHJCn9MtAP9K4888PydNu1Ze65Dv0dDflzshdEb9lZ/lKoy6tXLgz0pZaotX26UWmurGhRdlcg7JFG64uDmIw0jF8yZd8yfg2HejQLHdwFLfYbscNTJza+q+dUpDTA+fhhCAsp+wcxZOjkSeckwpzblmCk2ocQZyOpPzizYF1dEAePkeNxXk6lUYcaHji8AmbyyIdG7gujI546SZM2uQLk748hNNpmR0eh+NzjsQDXtfymvVM/8JAeOnp3jW+QB490yndyzs9kDyQvAFv/PjSA+hbHCSv9OLx40lHmPN37kh3gwSe5Mafzcl1rCx8QZw8lMtRWvH5SR2xnX+2CjsXh59PkYMq2yFAGaunyqo+l7ukoXP2QQ1Gld0RryPb8Lf8k/0qa3VExsyP+KdwEA7CDSomEdLOfkymY2nwZtvlruo4DikPmdI6RupJfHnrY3z9BWY+tOHq4o96m3NEHXPgVO5+DDrueDyU55g1HA7K2TSKUOcg7eyUnCrZroEDQ9fkck5Hz0Eca0DSImEgnL41SNDI5OmanBodPc0wHWf9xXkuY2ZXY5nLQr54vNIgjZPc+JQ1O6RH5ZEXfuGovB3jIWcuh3CdJ9u4M3SNH/CVB9C5xgyOCE/60mu2u7hsqRxkO2cfJA+2RdLSozqIP6os0DWiP36yEDnJSjd3edIod34A4mdbQDKBreOvDnTa6h0cqw/p5UEHddygFO8hoDLSKf9Fyqb+gc7q2eCtPOpLutI6Zq/aTXbMllAbADKKV7+ldw1kyI9ObGkiSp/8xjFfwWsQ4uuBLDyQvckWpgzqTDqy5U2msMqCL703XF0cxGCUs3MCTsZxPVS2S83D6jqWL//yLz965jOfORq3RsJxWjKSnmPl+DkgJ6uR5WT4agwgfHZA6WooGoKlBGHJlD8ZgKcGjcSXLz4NhbND6fFb2rDMBHQXVlqNxXKFc/l7+Fo6xB6O5M4dImQ/dqjsUN6dC6dfdnMEjRuBZSpEZo2cbGV2DZYB507aOR7yEb70EE+v9AA6KIMjHrqoW2H4yQJypaUL4g/FlRd+eZFFBjsisthRWdguW8qL3OyZT9X5BXLTE5RfPKKDeLL4ceUoPjjHN/vZeYPObMkGdMuOdJ1tzO513iBOeL5fGsgvZp/SBthmDTxAXrqQW7i6s+TbYCO+vAzyruWH39G1/oBPOi//dALyxZFNlg1DJrs2NJXvhvPBwXybrg+lAsf3gqatuZzOmrC1X+v5nl14fqDxcErEiSzrWRvmYDWaHNe1YjpGIAzVkHJespFruojXycxyYX0d1iYtH42ALPxIuTzXkY9dd55jxS8ef52dBllj0XnYEWc3md1LdITycNTYKpfrOht54QHXOmA21Vl4XoYvaNjQZIG85CCDqZ1xnhd5/iQODz3dgdBLmPylrwOzpbtnWTo6wCOtIyIDf/LAOYJkGjiVh03E0UucfBwrowGdPuwinWd6nmsZiFwLBzzkuZYvGcpgG3nP2ORT3YuTHq8w9WE3nfTkiGc/52TjKe15gl3oPds0O9M1G4Ky2P1ma7d0lR+/OLzVrZ2Gdr56juo5TfzgnOyu5Z89xLEVkOlZnDZni7w4POmVLZtwVA7hJnnahues4isHXUxsxXnOVFnB7jzL/3YM5o8bzgFLZZ07fuZnfma3zE7GbjkqLc4zdpUtjjV2x3jxdXG0sWttuTMau2CWzmW3dECDd3Gg8cKb3To/+ZM/uVtmOWPX1LxbzQ6opVMY58Jc41+ccuzYcVycf9AyAx68wvHZqeVcmLSliVxHS+c45CZLftLZoSbt0nhGGnFeLl1m4aNs9773vUccwk9GuuMX7pp85w94wAPGrjP6pUey7WpTfuUQlh6uxbFrtmCjBz7wgbtP/uRPHi+FypcMZcGn7HaHVS5EJvqRH/mR3Yd8yIeMOlk6jEHC5UFWuso3e9uBtnTsQ3860q388DoKk7f09CSXH9gtVT7ChdnppgzJUKZs5prN7NSyA7FdgtLZ0cXX8jd1gJZObYQtnevxLjlkJ+Vsx1lvYa6LR/KrbgpTvvSPYF8YrMOjC8WdlgL9kDBlQZWruHVbcc6GyqtOlNW5+O/8zu8c7fgFL3jBKG8+II7tpccrPLsg4eKFqzO7F+92t7uNtPLjU6XH71ocWeKR+GUQG7tol4HtuP6WCe3uPve5z9DBjkj1LV4/4njTm950933f931Dxobzwx9MUc4Zi4MNWvQZs5vCFucZy3LumlybxZoRCV+ccISB88Uxxy6ZJz3pSePzOV5kE0aemZG0jmAG5toRz+LcbzVTEo7ATMndGUhPx8Xpx8zfcWnEIy0ZyAxNWrzl59hSCEhT3FyOIA6vskK6uVYeeXctjk7gSAdp7ThyFJa8dOtuC8jw4p8ZqHee7LQD6So7kobeS2cx7sjobbbpi8fuBuS7dNIjnbJ63wqEy0MZsxu4U0lHkE56M9ulMxp5Fwd0EEYePfCD91aEkw3s0Tmwl7swS63keXflyU9+8ni5OAif/QPkA8qNlIH95rpKB+mReMBDJ3k7J1fcXOezjsojP7zJXAPPOu99/MLIYgdpAE98s+1OgvjZFnPZyK4O8Cgj2gfp8nvp2XCWC8LFy9NRPaDyK1zadT78RfstneM++JTY53zO5xzbnKzqc8Ph4CBqI4etsXFYWzl7PuQrDHbTWQ7ikJyohsippLXU5I1ut+G2b3pxzpvfduORJ00NoQYwN4waaI01wlsjmtNFM/DPccU7lo78OY/KEc1xDbLCwBE/OXUCyRMeAZ1neZBOcxl0tF4I9YKr5U/blOUprnzxZwf81YEBwrM9yxzyEAbOpXftXKdBxtwBpFvnKB7yXQMedih/R/opJ/7Zd/CKl760hYEXJu3Y1HEZSLMBlL58O66BB0qn00+fSFo60Ks8Zn5IJxDnWjpERoNTKH15QGHSVFYov+JBHD0rV3mVFmZ58iicbuIKd80PnCtj5/jx5ZcNuvJV7n0yQRgiX9g6fI3yIGMmIKNj55bA+Y7+xNK49OTSB5IF6bHh6uOPWsQ5ollwDsJZ3OX4dIfnQE996lMHeR/kzW9+83Fnw4E4GfJMyQYH78uQ48GnT8f44OXssBci+XJE6aPZMekoL41PJ9gMbh+RheZrqJFEYR3ODjXk4mvQ8mWDZK71RfN5NKN4siqLsDpWOsuvWXC87mg84GcHYfRgFyReGBk6ImF0dKfj3DOo6ppc4bOe4shmX+EgfJ6JS0s/z6sMnPIJ6SM9SIO3AcMzR68QeIfIxz2rG3zk4CUjlB45L44e2V7c3NnO6ee6R+Lw0jF7SwPVJx7h1UNIhrBInuVXOqhOoDD8ZM78ID4ekAcIK//yLozu6sq1fKovceTK3zmbqmP1l32SOdu+dPtIPJrDpJMn4oeVtfj1uT7BBNWGKJNc4WS6e/fZJ8TvlLE0G64+DmIwsjRTp5Iz+J6cwcTLdMDBDUjed9CoOCKnNOuu45s7STNf35mz/AQ1qJmkl24m6eWFxK8xpyt+luM8ns5nmvnQjJlP/srTco/G46jcyqfMKF1RslFyZj0cy5sMHQQiO9TIAV+y545EWnVQ5xafPILrjpbJ6pjwGvwqm+sZlUs96PTo0kaK8hRu8uEFU++olb+yQeVxXTg50s2oPNlmDWWr3M4hu0bpGLmWZ+WnC8rWQTn4vWVP5YXykJaNHEuXrsm13GnC1rLnDHqBPMSTX96Vs7wcO8++7FU7kG/yyCALDznKi8c5fUEcHunIsDyaTWbbiEtu9dX1DGH76LSgm37AiolfS+hX6EhfPz/8lm/5lvG9O5tT6LXh/PC2LfAcwGE0gLkz0QF52992XEttngX58KTPz+PTgDg8Xud2wlgXftSjHnX0mMc8Zryj5A1vzyVgn0MjeUeu02MOn1HjjdYyojmPaI4vj31xUXHpJD+zzN/93d897jSEAf4auaPr0qHy6FzHQoZzdqyzEiYPcpPDxvjAORniHMVLa1Kg4xNPB0SWOOf4ZhlABp7kyze85S1vGZ2aO1vPeNS/D7KSQzdfnzDb9Ydg8Z4R4kE+2qmTlzdKT1/QePSjHz2WJOVVh0gecj7rWTgC4cmKz1FY1HU8MwmXpvLrnJGwyl7eeISh8inOuYHAXSrgqS2wp7pwLT82pn/6mRCwTc9byBQO0ghrwKleuibLBILd2JUceePDA+IqU7rIn874pHME+YH8s1HlRHPYHEeetNUNgnhgjvP1Fl8v+df/+l+Pye097nGPEW7HnrC+B1meG84HB2F5To5yhJwR+TSLh+ovetGLxvZaX7jGx6lzZnyeXZgpP/KRjxyDkYfxGussKwonhc84KTzM6enVeeic8xd3WqoxabwarHONX6efvDoiwJMdxTl2HjonU7r5mF11IlAn1XXAJx+8tuVbBqFHHVL1Sa604upwhLmmv+u1HultidJnY3QYBqHv/M7vHJ+DIRdMUtz9+nSMuBe/+MWDz7ZxH+f0WSGbFdx9+PiqTReejfGNm9/85iMvOiF5Zs9ojfSqHGEff2GlmUmYvOXX3SGZ7CQMiY/YBRWHyDAYmZxVD4VLYwCoPsULr6zqqMFllj/nL579ySXDEY+Bxh0FOcIa0JybPJCHB0nn2uBHJpAhDAlLbzri3we6R0EaspIb8MxyxKMGI/7hs0QmtPL26oiJjDsjW9LJ3HB+OIjBqI6MY4OGpqFyLL+B6BZb5+N7aDUAjlZDk94dA8euw1o765XA3DjQ5aKGsqYZylWDnsurAwOdQTvb1g1plucovgaM6jS6g2Azdrcpge0rnzgdjTQ1dDqR5ftiPqei86eTJRly6nA695wPyDCQkgnidW7qUx7VG7ij/cZv/Mbj2at3XOyKAny+hO43HOKQ8xe84AXj+4b3u9/9jh7+8IePrzl7n8jXovkQ/aU1SZEvPbIDZKML4TR1no1nuE6+ekMz6MZWBgE2UvdWB+ipfnv2Uv50Zze643M34lz54sFPVpCHOlJ+9SUNPdxl+o4b8AHpyUbOfQ2ET9CdPDqSpY6E0yU/VAa60kNcvgTC0hHWtp7ttrYfzPHyZyPHi8HGBRNaPsIP9ClNiOiizJV3w/nhIAajwGk5Kyedl+Z8Lt5OOp8G0fA4UY6Yc3IocRqKBlEcWY7xdT6HzdgXTq81hfjnuML20ZxmTWsoAyJTp6EsOhGdg/KDjgWPDkG58SDns8y1fI1wXibKZgYnAwMIE6dDjKeBxLlOp+cW5NEJX1CX6sWRbPHyA52BugI8DQ7S2/H0eZ/3eaOcPphrNus3GzrS7GDQtIvPx259UNPdjgfRjj6a6XcW7toMlH4hwX/ITj/2IEcHCuwqrvB9mMs2883hIK54lN0cofICWytTfi8dWyYzmyE2JKN883VlMElTd+LwkgPOyZNWGN7yiJctW0Ugz7F05SUNSra6nwcsm4uUK/3UryO7kqP8LetJky0cEZlQPheC/JQnG8mH/HQN4uXtubFflbg7Mmi6kwf+pR4amOBieW84OxzEYMRh6sg4GccyW7PU4hbb0pw4sywDDsSrESPhGhWH5FB11qfFhZxQ3IUorK+vL8hSRmVp1tagK0ycxu5cuSs7nKQHu4mLV2PMVuLko8OaO4ziywOfo3oC14BfusLVq84rHZE69BDZ4IIX4cMjvQ0JngX5ejk+2/rpmc5kI8sqtvNbhqss4EiW542+b8iH/sk/+SdjMCIfr6PO0xeg6SMN3djzYiifkF6O0Yw5HMmjjj5b04cN7fYzg1cuX4fwRXT/kMJn0Pe1C1/sEO4r4sKziYFJmC/Paw+g07WMSablbpAXPQyC5GlnbKBjtvWdbPY3cKSjL8aLk4dneL6yL71XAchVJunlWxl9XsdkgAxhdCRTeeThjhdJT6fLQX5Xncpnhng6eQ/Ov67oTw/8xTkqY/wbzg8HMRjpYOvwNE7O4mHzV37lV45fCXBus0fULIYD1Qjs1qrDa7YDri/HwU5KI999dKUg3wiUVyPTaGYb1XmBuxLXbHEpIFtactiL/XQcll7YUMcB6qIZt3gdaeEadjagg8aukzJrTh86k18HKR+/WLjf/e43wqpTwGs7v+UU74h5RigeyMMvvXw9dLZhxfZu4fRpKcuA9rCHPWz8LJBepcmefMenl/yexKsD9G8561LtSN5M+QO7koWUi+3omf3oYpZON3cl/N7Xvt3FWVa09dyKgGVQn6/xuRphfrro+MQnPnHkRabJiTtENuuTWvLzMzoyfJ7In1PpYsImzsqDQdqvW+qMLV/J30vQBnHy2dSuM9uiPYPz5W7PXujO/vIgV70rf5MPenzt137tkJvd1YFnNPe5z31G/bt7tfwqfX6fX4c5fI5X3/uQvWe7A7+wjK9MwsHyMb33yd9w9XEQg9G6ESNOrWPUCedYOirPjgLn1onYCcPhc2rnOlAyL8W54p/TcHrha/1OK3fNm5yO+1AaNnCskUujwwfnZp+Pe9zjxoP9GticV3KQclQW8nRibKuz0dHYlcZmOib8OhR2dK0DS4b07KyRS29WDTpTOriWFq8OQB1JK50jPp2m75eRIY1wcE4fZIOCQVG5lZksuug8PAMwYAlT/8LJMug5utbx+IutWbGByR2CfOiDh80sA7uToKswOqbnxYAH0RmxSf7XEciTJ13zy+yPinMU747un/2zfzZ2Bxow3fkBG6gHL39//ud//ohT9+5iAt62i3/pl37peOYGffX+8Y9//BhQbAbyl1uyPMxnC+eWOU0UHvvYx46Xxg2A9GdLMulpOZDtyTZo2rFKNhvgN4FUf57p+ceXvNm4uiHHdyQ/4zM+Y/gKmTP22T5bBzqF7L22OaIXX1C/NrF87ud+7rh7LJ6f1q6kB2k2nA8OYjDKOYDD6uQ4bx2Vh6tmuXZXceacjuNopDokTk2GRo3EucYbXV/MsmbnD8XNqFxzeGH7IC69dVaOyiI/4coWn6UbnYrOxZ2CWe5LXvKScezcLrN1GDIYsKkwD/7NcHWGya+Ryl99gGvI1njoRT+kvtQbfh0AIm9einJu95tlOPzq21En6t0hHa4OTlrh6SG9Fxb9ztydjw4v2+DNXpaTLCW5o3YH4Q7bBMZzKLrS3ZEMnaclJ8jWp0F2ICeSNgr41pSuys1WzisD2PFnJ+h973vfMVCIlw58+sidkTsXP6qzcUN5Z59H2gR/MFCxp63M8sPPzmxvKVA4+7i79E6fpVO/5nZ3ZACxvEde+aeLZTsbASyh+gmeDl89WbbzjI6N2d+zPHef/FRdIjL8FkbengefBtlujcLmOijMkU3pRt+WdPNvSKfkRxvOBwcxGEFOwKktu5kZ52AcyS292eADHvCA4UBzBwDS1/FpeGZdxZ0W+/jL46Q4elwOTpJ5UoPQsAqf89Xx+PKE5ZhP+ZRPGXcDOuF73vOex0s0jq7Fd47Pte/4eQ4BdZTIuZmjgYVd6yxBo2ZnMDnQ4PeVRz3pzMymHYGcWR75ymKioW69A2TzQp2rQYIe6tRzFDN4mxp0mCYh0ouL38CjY7Xk5cvR7EOPBht6r+0rfzIQnn32X+MkHuHKVvnIljc9ezZTPgYjZROfXQqfZdBZnHKQUXoy5Se++kh/+eYjJ4G9yOhOdoa8QL7JK9946SKOjbVb5ciOTUrw022+AyIbz1zGy4G8g3z2QRktP3pOZeLmOaH88dM7u83l3HA+OAjLcwwOgjiH9WgdHof1vTmdpQ9bmg0Kq2OBHLJGrxE0Yxe3dnbpZgrrsPl6phmXEr4OOyk+dF0ZnNfxtj7veYelSzN8HbD3JmYSti/cbLVz6b1nYdmkt+WrC/bMjq5Bo/WMQ5yZr+W93v1CdTDO6YzPxAIMWkBWctW3sjivM1bOeXcXXss/llj4gd1y+LvLkc6gKF/nhetk+QMZDZgGA3x40g9akiT3tMAbzSB3HwFeZTaQurtzzR7i6eJaXDIdhYtXttledFYW8cpKjrsT79pZJrv3ve89/EW6u9zlLuNFcIO0uyVLfe5M2IEe2Qivc0cwMbS8567McqcND/KTL3heZVCS1nMgz5TkyS8sp9JJp4+UQZwjfvk4z7eCsAtB/JrnQtd821Z/NmK37KeM+Bo0gd9sOB8chOU5NufgEByTo3poa1nB0ozlAzN5D2nxRZATOXIkVFg8N2RULnDUmLOXb2t159Od0WnInVNU+jaKBPKzp/M6Kci+Bgy7lPqUymxvPPR01Nid14EJS6bOMLkQjzR1Uvh1sjpCd0V2ws3yyNHZwa1udauj29/+9mMQolODKyiLjlR+0tYxOi9sLsNpgB+Rs4+Kj0A41OHTD83p6Nq5ONfpSU7nlakBy3KkJVd1YtBOhuU4G0L6h5N/+xhIxEH6ua7OETviNfERjjzXUu8GIbLwSEcfZaIbndl3lqVO1Y00dPSs92rAf7P0He6M7MJMH0Tv/GDD+eIgBiOzvWalPbS27v+gBz1oPOx86EMfOhyek3dr7RxqINJqDDq3GgQHu6E6WY1Fo2aPufPRiYByiq/slwJpApujZsjismF8xen0zMjZWZy6AA26OmFz5+q0GTBe4fQvroGoOHAezXWrI2OHrlFpyGowMsB6AO9urPykbXCTHwLXykmW8+RdKaQnypby4MvqsE4QyR+PozsXdq784qUF1wEvGY7ilSUCYcoqnu0QWfJJH7q4YwB88s3OgAf52aVNFd71u/Od7zyWUt0ticvGNjV88Rd/8fAJbReVh3iDl6+kmMSQ5VmV+PQ9K7hr9jzSkrTt/mwA2Z4OhTlHG64+DmIwyvk5Zc8jDELW/31LSudnVsyBLdPkLByoRqNx1RCdvz2gctRQdLps04wz1IlcKshvMIDsOeeHR/3oUECnL686eJ3q3HEaYFo+Kh1905ls+TmvU073OlZQj3RroPGs6P73v/+QLW0dMHhYb/uxB+Vk0Kt0+B3r8EoLdE0veXV+pUFPxCbZFOhRnQpjh2wRD32cS8924ukJyiTc0dJeg6wwfOwPdsOxgfTyTA/AC/KhhyVgnbdwvPmCzyx5pmdjw7d927eNAd+X8clJFhmVQRjb0019gLsSy4MmNv6D5QXlqwG7RQ1C9PbZsKCM9OQHdM4PNpwPDmIwyulrWI6WYmzL9VzC0oPnHJzbbKxOozQIamz74m6I0GnMndKagL3qrNbYV/7CInKyVfEw58OmdYLOdS7CNdy5A9So6QOz/Z0jSFd8DQbx1skm00uRnmv58KlZtZ1b5YvfubQ6Oe/F6OSyWXGAt2NpZ7g+yYaXA3LWstKlsjpWXnnTi22dG1gMDNUtwi8+nsrhGFVHgE8avGxh+7bt2r5GQLZdlgap2huemUJ6Wy63xGeyaLOJF2Z7djmXt3Ph8nZOJ7oJs5NP/pYM3SHFW/qzgFdE7OD7hE/4hHFnV/nolD3lr6yVd8PVx0EMRhxgbgiuOQfi8D/6oz86HoganGx7NePjSPhmR+L04hzJScYNFXSvfMrT3chsn2amDQKXAjLZ0RHKD+pAHIXF252OMDNoW6N1aq4NBmRk/wYcYeCo4wEdUjNwhN9EA7/lm95necpTnjJ+HeIlTXzd9ZAtjc0u7OH5mbovT51MHbq4+eH1XEbnXePt/LSQNzoJ4ugZ0Qvo4pwOeOQtjO7s6SgMQWnpV51Ll/7i1I3lVhM5daWsyEBumcr7XbaFu0vSnrxzRE66dKfqOMtmY9CRszFb4pNendMtXvmlM5niyKeP5UfnlbU06Cxh96jduPyBTnSBuT2lk3jXG64+DmIw4owcgCNwCAQcW6PxTsO3fMu3jN9E4BMfPwprx76hO5aOqobjrrCOvaPyaUwNwFcCOg/QONlfXj0vkqdjg47Pzdhh5WG0/O3Ga7CoA6uxg2N66tA811EGebkD9q8qA5Ft297St5PLYPT85z9/zGp1quq3AVH+dm/pvPF5SJ092MuSruUlOwb9UA+k7cF7HfrV8JHsagBuKYxt2VMcvQ0SrnXadKQr+ygrHfH7agAe/NKJVxa83XHYXfne7/3eQx5Ih7JdspS/tkeGc3dlfdiWbJsM7KZja/XjPSibSLwHZdnce1/A3vh7/pROiL7yCrPNm+B0fRZgv3ShY6hNFcanN5wfDmIwqqFyBo6DLL3YcqyB+T6d3UCcaW5ENUbHOkokDmanvyFCOZRLGZRzXZYaj/Jnw9MiWWzJZiGblTciO7u6bhaps7P804NolK46Ix1NeiMyHL24aYeWei5vM3q7v1yTaUnIYOWZoXdDDEzy5Q9Arg5bGi+HWsKjn/T5kB2ZniN5TqCDp6+y4NOp+jqAQRBvnfuVQOWdabaPfOb6FC6MDmxWGmHiDA7qyaDrOap24d07W5btmhNHnnJZkjJpcxRmcJGG7QwgJgx2TrK/3WW+h2e3qudxXqAl27KoZS3v9bE3HkevVrCjD4761p8vgFiyM7jSl0zb/NW9l18NVNX52rbCsgG9zxLk+3q7iS2d2QLkTy/xylf4hvPBQQxGOSTiIDoHD0c9eNQA3GZriGYyOQ0nrxFLD8lAIP6GDGVEoIGzC7ARVFblvNSyZrMGo9InK5KXvJ1n1zXEkdHsm546LXnM9SSOPIOAHVni5C9OHq4dDUK+yK1zVtfSk63uHfHhMUlxZ+Y5CL5muiCtvLKRtCg9bVW26cFDdPmvZ82XC2WO6B3JN9soY/VZPTgaFHp9Aa+Bw0vABhQ6O+rgn/3sZ4/dpv7NZJs1G4LP71iSJEt5nCN3rmSxFbv5coIt/gYMGxJ8BshPKQ167qrcTRqIrr322mEbdWEJlc70M9B53uOXLuxML4MofhMNYZYFbceXli+wLVkGf+nx+xq7SQbbKPNZwWTJ80d3yL68IT9QHnq5rh1sOD8cxGBkxqrxaUScQqdhZubjjhoF59bQOK5GVkPXAeVEwjh4jRzIPEsnP2soD9TBgjKBRqScGvhJYBM0Yx1GBlmFN9A3QwfH8mLPeENp1E06q1M7IFuuA/WoM8SjHNIBWWQjA4pOSqfoq892XfEHaXVq7b67053uNF6E9XyETjpbRFbLUyCO/ejGNyyPKYvlpMojXr7pc6VAtnLy0ZmaVIGyRPe6173Grw6yo3fAvDjq80h0V1bfnNMu7GYD4WwCBhS7DkFZvAvkudt11103JnT0wU8Hg4pnSHjYQfhnf/Znj09D+cjpNddcM+xt4LAc5zNBBjYfaPVemgHMMqgXa/GQTWdy5O0FW3qqR19fF6YOyfLcV3v2Aq73B6U7S/jtuMGIHVruBcvN+Qrf4RO1rw1XHwcxGOnIGjicO3IMSxAaBHBYz43M2upEUJ2idBxenGON/Swh//SekW6FxxcFujdjxJMdiuvY7E2ca+RcGmnjhfKCeObzmTfZ4thslqfDKl6YDhwfu+pwfF5FIzfYxCNNMoT5Bp1dWzPMonWCvotHpnrFa/bqmYQJh69JuyM2cPRNucrRoKjzMDPH75peeDxf1MnpNM3mdZY6d3lIW2fpu234LOUp52yXi4Ed0Ax5rwnIpV9llX8DY3HFW2o0EEtrgLR0qdNXVjzSWx6zNOmZED7hjuxqsDJggDJKZzkSv86/epaG3Uz4tDM75Cy1GaC8NKzd0S+bunvseZw4eYh3blNDdYiAr8pP3uS5iwJp6K1eQNk6n+2fbQujL+yz+z7QGQXLlspgMPJDyCZ35Mpjpg3nh4MYjDgxR1g7UR2kh6i27vokvc5tdpqcCJ9GAI453Fk6WPruowtBvEblWIOAdUMrnn3ij3eWAfvKKa74mReKk04cko/8hGfLWS4es8l+B+65jpmlgcTyh84LDxk6Hh9jReXrqOOzTf9lL3vZW4WT4dNPOlRfg6aLJSqfrPGOiOdIyEcv7a60RVg4Pe3q8lVmunnuYQuzD8B6zmjZyJ0DnXT4BgI6Su8uw/90lHFN+0BPaYPryrAPyVKWBiLUnU/yHPEZPMza81+Du/i1Pq6VB8HM76gehEmLtKPkCKePQci1OHVYmnQiB5UWpSe4lp80kC6AJ7sIT1/2TwdpA97410hv5DwUdhpYkrU8aHJk8qGsQB+2gMq44fxwEIORBljjRJxEo+Uozn3+39KA4xr4OWVpoPO5gZwV5kaU/vswNx4NvI5jbtA1jvjmhqI8wvEi58on/Ul5Sp8NyO5cWjrInyxxOuw6QnE6K+nJFiYffGbgvvNFhg+0auSe7fntgXR4ZtBdPo7SiDfDJtNdlWeBZLq2hKejlpdwz5Y8D7LEZJnIA/j5w6+WggxQ7pb9+sCgZPCxPGQW3LMk4F/pVlmzb/XhGh8C9ooH2AIfKMvldF7S6wzr7F3Lf/Ydeua/4ooHeUrjOA+y7nTcSQE7kE13enoWxMbZ3jF5BsCeNcmz+ndOPv7qkN7uVsWTa5JI7qwjfaRF8kmHNfAJL06ZSj/Xi4GSTtcHNmX4Bb3vNLpLmuvUOT03nD8OYjDiiLPDcX7XSMdiFm4923qzTkg8x3XksMCpc/Aa6FljzvMkiIvSWQOoc5R+5hNvhq+hs0txOoNsVBryyMoO4p07ZtNIeHH7Gr2OBglHnmvU6bmey2BziaMZp49yepDuMzxNKACvh+TuTjz38fzHEpptwu6iQIdl8NFR+MmaZwk2JYBwzyLshFP3lu6Qc5+UechDHjJ2k9nZ5ZmKvPC7k7LU5cF5nbN3lpRHWSD7uaYvyjbZR/5rH4qvwWS2y2mJzJnUASqezLV/IJsDbEDo4b+wdA90AuU2mUi+QaWBpjKD867l7RwMQNK5JlOctPxy1teA3qSl9MmrHI7iEHQ+h3cO0sqLP5mA0JsOs70vFXb52Y5uWVC9Vk5+P/v45crfcGVwMINRDswZOIeH35aBLKdoVB7M6oQ8gMyZpMn5g3MyNATnc9yVhnxOcmBhqPzXupS29OLqLBw1PufJcS083qjr7IDwzbI0ungQlHf85DcYsV0y4hUmLR5p5Ktj9NDd30jdsdThlc6uLWv1tgp7g99SmiU6L8qSCV5mtfRm+c7De88ZyNYhOnouZODxXTHbj/lAJMxgZGu3zqv/4zQwV0ZlywZkgnMEwlD2cc7nHEsTP3mO2bHw0xCw4zwIkTfnHZ8wcfHYUOCur+dHoExzOtfiDEbqwtKnCYA2ZGeblQV3Nnilme2CtENp/MfIBNDX8k0UtMN5AuG1C88MLZfaYu5r6vwiXRD96R7KA4lDM+hNl+TYWWjwkB8Ig2RcCnxXz1fL6TPny0fk6ZhOa702XD0cxGAEZntmLTkwBzczMlP2h0bIcYDzzo7DQTlsjetQQBc6a/jBDHO9ewtPO3vMOD07qSECOZVX2uzgyBZ4dXJ1dDNqyPiQePKaFcJsS3UxL2OBc/q5y+haXuoMlMUAQib9oC29fo4oXzLN0oUhsiz5ibPNWicqXP7kCHce6Fo4Psgu+BzlrcPFg+hkCWouDzn5CB7lKB92VKbufvCVDsSR5cj215fYTT77iJ70g3iFiaNfacVV1nxGnOVLS5oGaneOfhPu5VVlks6mBefSKKP69SxPGgOfiQbyDM+yp2VUvL6mL97mECsVj370o0cdAz3knX3BebSGMGWSv6VZk1AybMO2W1K8uy/5kpsNLgXSql82k4/6BufV7VwnG84HBzMY6UhQjmZnkecALdvAV3/1V491X87KuXKqOW3OWhg6K8yNbE10QHUiOlFH0DjqAEKdiTJJr+E4Sl8HrCzCdIT4hJFBLv5Qmddln/USR0ZH+jg3UHoOgId80HHp4MHMHJ94+cab3uTQTxi9wbVlR3c/9MXn46aeOfnjp3eO3GXp5Mk0oCTPdboIQ+Qqr85Th9pzhXQkB99sO/x0za70wMPm4qub8pdn9iMnEu9IhnR4LpWkk386IP68JkgvvNLS35HeiG3FZSdHg7yO3JcryHEXaeegQcaLn94vkmeTBfWr3r0c6+71S77kS8YnmJBNHj5uqo7ItUvxW77lW0Zad6qWaP3E0BK6uym2AfZZ0z7QWRo68B1y2cfAxF/m9PkBuhSwl2eLnjG6m0uXdM0P2OpSZW+4cjgIy+eQNXKw5m/mZRnGjie7o+yU0qFwGA6U43TMYaFG73iWqKFcCPFUxtnp09eXAuw861MswkvnXHkrSx1T5+J1QnWUc9ogTByeBglpEdnJLD9wjl9H4UhvHX1xcx7Skk9OHWkQl47ydq7zc275xBfaq6t4Kl9lSdd0jPDHM3fUroWXbzwoG815pHsygU5IWJjtK/2lEKRDMoWXz5rE4WN/eQqD0tYG4isPduBLNjJY+nRX5NtsvmZhp6EBp3xBWvIt57lz8jkmdz7S3O9+9xvXbbX3Aq36ufvd737M49mhXa7a52kg73SFymNg5V/F0UlexTtmm0uBZWAfdjUhMnFJTnCeLctrw9XHpdXqGUFj04AcQ07BMa11c3wPIu2wmjE79nk7Ug0FpZdznRxn18nVYWpodZJgbV/DNoOTpjsVJP18JyVNnSLgB/Zr4IDZHviFa9x0iGeWiSyjeS9EOF6N11EnYblkBp3wyr98y7MygAmE5zl4u5PSmfkdtOcCbCOsOxJpHaGyORZOrgGnYx1JRzz0KUx50xU/PcXHly3wzBOF6m0+r07Rpfob/urAEamX6mZNIN/u/uSpDvAbzJPnmm50Vz48yuZZCRtbXsMvfXaVhlzppVW/yk+muxIdd8ut0pTOHayNJjaleGeoDQzi89U18mO0D/Sa6xKUhax8Ai7V3sHdoOdffiHh+SKQX15sQXb1cLn5bLh+OIjByLZUjsgJOCDnrLF4G9yMzUNwS3Y1KA06J3KdA4mH4q4W5gY3E304vfLV2OpAxGuE8WnYytxDZjzKhnSoNUodqBmrDt1DfLO+ZLOfY40ZyUMYqsOVJz10Ut6k95kZW7Q9KG8QKi3d5CmMHuDouZ4fqFlyI4/O0hpwrP03EwXx6QZm0mbctmu7A0aeEVpSslnFswrPL6TXIVky6jmGsusQpXHuaCCni3LYFGHTgzB52GCBp2cn0tpIAdUDvZSR/q6Vu/KAc+Fspx7YLog7DUF1U31UR/M1e0euLV2JK0/p1TeURlwkzlZ7H5tVTwZhkwz6BzI8o8MrPB+zWcGXvT2nVQ9s5Xtu7ODOxXMnH521o5K9yOG3jvlNugPZUZjtURnF83vb/ckhW1mUT/3TrbZyqbA853t8/EFfQk4vS9ODTH4A8rucPDZcf/ypJ3hyfM6wNqxD9WJr6Jbdzh07snRaGqU7By+vcaI6Z87D2fzSuMYsLDprlE+NLApz44T0810wD4OVg97K60OTdhJVDqicXWuk3og3g7We75NJPrmSHghvOpDlXFgNP1kavj902u1m27WOq4apg8GHvzJZRqSzt++9lOr5ggFUOkuqeOsUwWDnnCz1bGOGN//pr+GTj5zrJHSaeJXZ8g9biNeJWHYSV6dEH9d1yMLJNnv3bEDZkpkt8OuA8dzylrccz0HoSN5s57nMyCYIg6wlLuTjoY4G5NNS6Up7MSqNwVWarlEyHHXglrXnerO93dcR6Gx3HHt4WVmcwcSuxXwBQb/595UHbQ0MBOwonfq2u1Fds5s2SydphGmDBhHb9D0L9PUFmO2Ynela/uBYXurH5gv1YgJSvdDhYrDc7ZkWnwy+ZO5LD/TUn5BLloGTbIOyiQobVvfpteEqYnGQc8dP/MRP7D7zMz9zt3Qau8UJ9Bq7pYPZvfM7v/PuOc95zm5x8N3ivLulM9stt9wjfiZpHvOYx+yW2dPgWxx6kPPF2S6ZTgu8cx7Ol453kPwd53jloGO8S+MfuqNl8N0tjX330pe+dLc0lt0y0AwZ+JcOZciSXtwygxzxy6C8WzrV3TKYjPB4pHGUTjg5S8M7tmM64ls6st3973//3XKXtVs6gyF7acjHvJUzPdTVbW5zm90Tn/jE3Stf+crdMljsloa9u8Md7rBb7oZ2y93QOJKFP5l3vOMdd8sse7d0YoOHXnR64xvfOPjTvzJH1SNesoRlBzZw3jX/SI4wabN98pxnj6XjGnotnd/wo6Uj2i0d5PA9186VLR8T7xx/aa4U5Qcz7ePbR3e7291GnS0ThWGTyoiWDni3TNJ2y53A7ta3vvXuh37ohwavODZiq2ykfpa7h2FvdlQvy2CzWwaZ3cMf/vDjemBH4R/xER8x2igbLgPdqB8+uUwAds9//vMHfyQvabM9n5D3zMNf+Ib45a5ud+211x7rKYxO6VyafCZaBsjdTW9607eyzzLI7Ja7o2Gbu971rsf1GC2TqN2rX/3qY1lsseHq44+m6+cIM6FFl3ErvjTCEeZrxJbozLZgcZAxC7ejbkb8jmbIXeMnE10NyA/NWBx7hC1OPmavymfmBekJdDRbdYfiYb5yoIAXD3nIbN/SiPVvy03uGuyWWjqDwY/XufzkHeiyNOAhT7x0XiR1l/O4xz1u6EY22KorfaCPmWwfuKSHF17dKVk6s6vKbNonm9STfMw+yUxOdynqW5w7nSc96UlHL3rRi8YMfulwho6VX9rs5FoaOiwd0igjOUsHdWxX8eLMiqVT9vKe7Y0Xmc3L31LfHB6vPNZ1Kn9ylf+8QD96BufZgh0Lo78y2pXqg6Wet1rutLIwp1dGdrMsZ6u9srG3upI+HpA3ue5syfJSuruXhz70oWNzxGzn2X6Fp/s6f3kKsyIi7/Jh6/jxCUOXAtvPLTfmd3PeztVpMue4DVcXB2F5zgc6ME7BES3n2LBgecRylk5Ox+Ia8OTgkPNqkDn2HH+WkB/dIaeWNx1cIw6f09PRy4TK5TmJpQ+dvAFJ48czN8gadA0H2MKynofUvnJgUGAjz9Ysy+Cr4dWgyfMsxxZeHyu1M8rDbQMgGekL0jqXtjDQoD27s4RmwmC7sLfbfQVBevVjOWeWVT0Ia1AB4ZZG6FBZg3Ok7Eh8ZehcGbt2TrZwKDx0nVznymJA9+XoBzzgAeOLDsomv+Tg7Rxmnebw64v0mmkGfef81tfO62zzRXVHT2X0dW5LuZa55+/x4TEQ4bPEqU6TTZbBgW3xzAOdiYfni/zPst5rXvOasQzWIJ181DXIR9nIKAwKkxcZ4qpfeSPX63QnYebpg63CsmvtS5z6199sOF9cudZ0PTA3PkdOwumQtWkPVc3ufH3Bg2gofgZH9xCUM3Pcy0X6XIyChlKHTwfkvMFAeQwyOgsdhcHIZgFvr3vXRseOh94GGTx1rPIhT7z0Ogd5mf3rHNxteDBrMPjiL/7iQd/+7d8+niexhUHKFw/chRiIPIyWp1mtXYr+lKoDwstmlcMauzxdV946Enr6hYOvbHu/xHsmyoqXLh4Y00s5pFGWZAC54qzVm1H7UkMPwcVJIz4q34Av+8gHuRbORoicwuZ8yUKgvM49a/QFct8wUy55zvZ3nOvCMfmOVwPyoUOgQ51zenkHjE3Vj3p3N+5uU3nwshM5+CsD3+3OUhrtDe9cRjYkUxwfcleNp/qSls3pQNYsX5xjyH4w80Ti6SyuepafMNeV+VJAN/A8qQFVOyLHgOrXGyZQkG4brj4OYjCqAwYOwkFd63Dt9DLruu6660aniRfE48vRgKNqkMI0spZwmlldLmmIkQ53JnrIT0NxDTVKx+Bao8JPRyBPBxHIcK0cIL3GqKNmF2nLgwx3FGCWaubrAbSlPhsJfJ7HQ9l2oBkkkA7XN868EGlA6k+nQVmyaQ1T3kg4XepchBlk6aWR05/OygXKgqc6Sw5+wE+mjiEbig/O2WLugORdGEjTOTgXBqVRh1A6JK6OL/2qT/awwUFZ2SB9hdNTWuHKebU6L7qmB8iXvtnIdboor6VS/sBHqh/toXTZRBndYSubJXATjPwUr3zxyoOtLOfaIp1t8bEf+Xjy1bW+6k0e4iLxbBifo3RsLO/8iI+1XHg5INdqAf+3kYNf1s7y5WzX9Yarjz+xVMK5TwUsV3nT2zITBwE76HSmnNbXGKz7cipfYLCkAjodTqXxmN1Y/+dM+JCizQ53uTgpPfkajyMeRF/X5U0PjT8edykveclLxgxTWo1MJ6GMXlCss0teJH3lEp+dyNbIyWIHfH6t4LmAMJjTu+PRKHVAwgxqOhvnLcmQDzoZadk4HqgTrKzp5bxGnl38kVR5yfrwD//wo7ve9a7H+kD5CYN0Ll54VFhwXbow85Qmm7kmP711dl2zoXLpxH2KxrZ5g7ywgA/Iuz5Y63wS6IbYqHLQmd/TF2xlt0zmF+Lx2FJv+dduQW1CnchTXdjurf5tfe/uQB7kenamnt21y4MsW7g9b/HSq3bn3IvKnhfKT3rfvdM+fZ3BsyTt1vNex3TH55w9K788xbkW5+gaeZbpTszOOPqJo29IRvzBc1DLbu6CCqebiaw7P75omVL5tBdfkdD3sBEdk9txw1XEUmHnjje84Q1jNx11Fod4q51ES8MYO2ns+nL8hm/4hmOexaHGDjzXj370o4932jgund/xLqGzInnRyS6dZWa4d5fPMtCMeLuHloFot3Qau1vd6la7F7zgBbtv/dZvHbovM80hx04zeifXUT7JEzeXSzntjHKUj91hS4M71sURLY1u2O83f/M3B5GxNMjda1/72uOdVfjJECe/5GdTfGTYsYafTOVKT9e/+qu/ehxmV5TyPO95z9stHcHu5S9/+ZCdbuRKQ1b5rWmG62zbOTnxznFInOtQWPrKny6VnW50//zP//zdNddcs1s6tRGfPHx4kLTlJ+2lUmkvRvKkryNSP7/xG78x6oKuP/uzP7tbOu3dMkgcy6bzL/7iL+6Wu+ER/rKXvWzsgMTrfBlIdssd0PFuNrsZtT91++AHP3h33/ved+yU++mf/ulhg2//9m/f3eMe99g95SlP2f3CL/zCbrnj3j32sY/dveY1rxmEFw+b2fnKp7VL7Tbfk1d2z37pqiziC4vHzr5P+qRPGn60DIjDl6oHlI3wF4baTTf3ITe72c12y+A7fNduumUgHzv+8CgzubPdXW+4+viDqd45Y3HE49nm4ghvNdMBYYtTj1mVGZRZfbfyi5MPnpYAFoc8vgY80p+W1nmv09MzAvmYsZlpAf7SeA6Dz9IFHktoNg94zmKXoLIEctwlNSNLf+nJEi6scLbIHuLYo6UlYBc6xc9mXvSTh3TOLefNd0PZVDxUTmHlXfnW+YvzENhROHnytHxoSdAGCeHi8asndQrkzXmdBZI766u8M7wH5a6C7dwVFU8vPppvKRvMfnEWBPTsvHpC3jHyQq8Zfzvg4qG7d8ZsjLEpw50B+oqv+IpxZ6ROusvwQ0P+KB/PD30yyNKuj6N6t+/zPu/zjj/9Y5PNk5/85GFLeSNyrVb4IoO01THbdZc8+wtyXR3gWfOxtzD+w5/5bH6t7NJeCtjAr0dqD9LLI8iX/dRx+m24+jiIwSgHmzsJzgg5h22mliKsV+c0dV7SONe5NWiBRiw+2aelGeu4OoO5UdBnmc0d61S+HNw3wnQMGrVry1Q2LNhN51mYOMsp0pMzN4TO9zVA1xqwsus8LfW5TkfhZNZJZUfhjhqmBu6cztnSUTryyMJfXungWD6Oyks+/YFsdSjOA3W7tHrjnfxlNjz0UsfZSty6nOJQNoU5/kKIj+zSQjLLs3Pl04krr7K4hvImD+FNJrocJONixJ7qAehBL3VGt+XOaGxGobMlbWF46KgTN9GwsaRlObsebc7gezr3JgKu7eJUFyYzdlbaHWmJTTrPG8XbJam8Pt9kl2vxjgY3g2K/IKc7ZC+QNv0i9i9OObO7OsCr/PzEdfUC0l4K6MVenpH6r5b80ssmIs/J/Dpjnw9uuHo4iGdG/ktvrb5nRhxaI7P+/NjHPnbseOEsdjz5RIxfBweOoyFpGHba1WDr6HKwswRHB7PNGprOWCPwHoY7Azr4FI0OQkdgYKXnU57ylNHwIjIaAMBRWtVUVblWts7N6F3r+GvweD070sjZQsPWQXkz3zk7S6uxO4I0nt95ngUmAMognTi8v/d7vzfqQpnTt+3ZBrFsH7+j+pSfa2U3eOJTx2TIX5nXqNNA2XXWFYXZXoXPx8Irb+WvgwNhZv4mPB7+u7OgAyo9SgcQXt4XQ/qcFuzEpuohWxho6PzSl7503L347lo7TNWrHXSeSzqnF9uDNBEbiMtfyMXnTl6889kPxdMDyV8afHgc6dbkw85Xd1ieH9n2HS8Z2byjOGkdyTbQ8TVyfJLIDlDth6+kh7TOgzAU9j0zsumCXKsSvljh2ZE4OiirNmHVwjNNZRY+57Hh6uAgBiNf+/XJe+++1IgsY1lC8MCdg9ug4MtFnMx3s2qcgN8SEV5Ozfk5+FmD42qQOmjg2PRCHNzuJLNNg4XGagZ23XXXDb01EDNQGwjmBqYDck0uVE6EB9WQhdGhPEG8cMtNliY8XNb5iPftNjvp4iGDvekGBi4dibu5BnMzag/BK5uJg+/H+URNOrnr03kkEzUQFaYTk5dBzMBFHtQxkbNG6eUrHuGd4xAUXtmgtEg+UEfsurC5ozU5MBh967d+6/FgRA5eR74Fsz7lfTGk12lRfgYYdUQ/dlMGL5gahLQby2XZ3QvEJnBsDXSE7Fz5EX4dvXA+TLbwBo/S4Vvr7hovvfCYZAjjvyYz2qNBND4E2ZFdoSM5vnunLHyaryr3C17wgmOb45EWZfOuw77BiL/ZdOH1EL7r/Tr2YU9y3PU985nPHIMRe2h79NxwdXEQg5GZirf6fWE4x7MU4O7Bd64sR3gPgEP5urWOT2fJkSz/WM+2RZkDaVAaz9xpnBYnmWKWMZ/j15h0ZPLl3K7lbynEsojG4W5OuAZKX7C+bgcdnTU+sqTDJw9lE1d+6eYalTfgFeYaeX/IjNIHTHWo1vzB7iR2s4OoLb/45cPGdkBpmG09F28g1cHYneWO1K88srV48nQ+Bl07rYTTTXg64ate6vTpLK6ZqDSVEeZyznF4oTgynRc+Y512RvKzGR46+tafgQiZqYvTgddR68SUUX4oOWcF5TOxYE+dpLzoapnX8xrvjFlKowtdLUPZMeaLC861g3RE5KU3OcoCytg5OQ0k6t41/vII2QCkV69kuMPCD2TEU94wywHpvCPnKxHifNxWudWDMqQDf3Gc5aOwbzAywOkjtEdH9qksyLMwd0Z+cW/Ayyc3XF0cxGCkwzNrMRhRh4N4W9zdg1m6zrHP1XhYatunzoHT6DzN9q2bc9BmT2RcKk4yRY4/NwLQSHROGqLOwrITGci1z+x4AdVMG4+XQd0NQY2cvsolDXnKBOLmTg9m/eiBB83xGjwbuSuSv4fQ8oU6WgM8e9WRS8fOGq2lUo2ZLuJ9bsidkaVG6+vilceGBPE6SA/QdQI6QEs/9NYxkZvOeCFds6XrbDrXWWEhOXN6YaWpI40POse7j2+2X+HK6u4VeZaHbz0YqaPqZs7vYrgYb2Wey04/dx3lyY6OfongXTIbB9wh8bfK4y5Hx+6ZpME/W4Hz9J7rRHh8SD2CgcV16aRx7ZxO80AhjQHEOz2+bNCL0whKO4c5Si/cAKR9kGnTgTsjviYuHuWc7e7YOewbjHyVxIAtL3EmVNqdNmgguu1tbzu+cs6nyd9wPjiIwcjOIM+DvN/AYTV+jm4Qsmyi0ZmpidMpekeCI4FOgmOJ50iWgRSpBiYNR74U1FAuBnkg+krjvIapI1Mmy3V0aMZVJxb/jPSOQvrMVSWsa0f5Vk52tNxmcPibf/NvDrvQ0YBvIEL+RSMd3cCyj4fddNZgxel4NWQdtDstd1yWUnUQH/RBH3Ssl7wMVOJ8ZVtZyZUej/wtASq7ZRB1xxbqTj54Kk/HCLJF+UF8obg5bB9O4iu8wcj7Le6MhNPbcbYxnYTpOC+WZ8DHLtJVpjlt9b4ubz4F6pE+L3/5y8cSqh1yBiP2JJs86Q1gBiL81TEeJJ7e7mhNJkwc1FFlTEdwJLNrcqWf+cXTSTqTGnfInmX5cjc+KD2d8BZeevrwDe2YfL9GoZ+6AOn5S8huHQMfnQcj6SzBGYzIZjMTxOTJR52Lc80+G84HB7NMZ9bOgamDzFLcsnsI2gzV1wM8WP6hH/qh4fg6PUtGZv86fU6u8SWDo3NsdBYon/KUT50C5zYQ+KkcxxcnvI4lghokFJ7ea93jm4/SA14DgGdwfsdxhzvcYSyf1QGYLRuIdLRelMQvPb2so3sg7rmWjRY6KOFeAHVXau1eQ7eUZzDyra/KYjCSn4mCDQ/CdC5IHjqeOrFmpOwkXP6VRby0cxgIm49nCR0T+1giNhjRKcpWQJfL0YeMOd1c1sofyo/t2I291CX7+3WDZV6zenoaVBoY61DVj7DZPxqMyDVB0AGTyz+qM/x4hM2dM9knDUb4tAN3HZbC+A0/IqP8Sy9MeSqrcOSabGSQsIGhwQjoOqfZBz5qwDEYAX5fcTEYsZGJLR1bVra79aM+6qMGbzpEG64uDmIw0jDcJussa+w6crtf3B35grQlB7MuSwA+9ggcWqeqg7Ssx8k5siJpAEgjEX4WoKvG65gZ6xRaztGAapB40NrZS58McXUGjjPiiR/V2PHr6IU5l/fP/uzPjoGCrdjNc6NHP/rRYxAnW1q64jHLZkd3TZYcwXMH6SyF+h+OLzuYIHgmRm+6WhpxNCjNz5voUTl0VHg6d6yjY6948aAL4TQ8l4sGI4PvejACuoL8C79UXWb+/AIKn+uUHXXgOn/Edr5+YMIx7zQThxeyKxkRzPqWh2t1AQa66qL6SRYIxyN9AwMZwvFJ63mMwcgzGIMRnnwBb3fI2om8A76ZPBee74xAHuIuhH2DkUmtf35Jr4/hz5YQPTu1nMiXfWGC79INXSyfDVceZ3PLcInQwDimDnMGh+fAdtN5WGuHnedFNSqdqLsq69rOaxggXvrZ4c8C5OsI5rxca2wansYLnFu8BsHZnV+ILqcxKD+wgQ7A9b/9t/92NGyzQDbyXpMt8+SLZ3sDmHeB3A3YyOCzMN4f0ZkYgMxydcw2kJg0uEPtRUo8ntvZ6ahcddbKyQ51INnI+bpe6EE3ukhP95nEI+d1lmeN6qu6QFBY4VcC5ZW8Om5gN50lOyo/GzvyLSQdnjDrJA6/tPndHJ8fBuf41I9jcfSZ2xVKjuN8Xpr4Ot/HP2PmuRBmXU4LS8981SBl0iUf/Ybt5/xX+/DNOoP+pcrecOXwR554juD8Gp+Om1NqJJG7Hs8jPP/wx8Z4OY1zy0mhBiQunrPEWlf6cPTybi3eeY1wH5V+7jSQuJMgTv4RsJ8GpbNqYPdFbDNo9jNAaoDeE8pGBiJ6u4PyrpaXIPFbckPukswgbem2lGc51YQgHhscyHNHIV/60222fefyQ5ULf9fKW1n2lbs4fGeN7D8TndIzStfTUsj2KNvs4zE4q0+EN/9G6sxdET3E4ZV+n06l6TrMOiCyyEWVLz7x0p5UbljnEwlLNh/km/l5PCCPWSco7Zr3UiGd/MkzoWngST5b0sv5hvPBQQxGOUAOCDo4M3X/SPHC2rXXXjt2vnCqmd+1Dp9TaZCIM8/AdxYU5sYT6NOMdZ7Nz+kjqKEhaTtfY+ZDeGf+OiwdvWvLmHYo+QirOHeZZtTi6VUaSyIe7FpL9+tzD59tCbcF3BZxG0MMSJZJ/fOHTOvvSMO25d7AtraF8zlsjhOO0kG90h3wRWEu61lDHuUz6wDXJ/91mS4GeVWfPlr64he/eNSJVx+A/SB9UXmgOTyKfz7CzBPN4fP5XIZ9cdVtfNXdvkEovjVBfNX7nO5S4NUQu0UtTyd7xtXyqw0n4yAGI87BSc1cnGt4Xqpse7JlI2EGGvFmMBzH0o6O0KyGM9nSWoeY858l6IIaBOnoWr41OGH0nPmjy8FaRiQvs07ba517zmawSQ884FwYfenV2j09ofDKAtJUJtQMU3i7GPEa5Nhf2uJhlhOFdCdXGlB/ZKB1p3Y1IL8g31mHqLjri9kWIRuxczvM2MKuU8/7fPHCX1ndCasvbUcdsCHMeu4jstlauuoJiVuXVfhcN/GLmzFfJ6c6TBaSFsoDOu5D/OA8uhToL6yqeC3BLtDCIB21lc43nA8OYjDSoEDjCx6k28BgmcnDdJ1mHacOTwPRmHJkjdGyWI2lxnOWKB96yz99NDTg2PSk99yQouuD8olck8k2XrK1/d2mD9+BazAEjU4YtJ2VntWBMOXwjgfeGfIR5mjgcbfUtbw18OxwEk4qN/3XZapzQIXhudpItyuJC/lAeamTJlfqpW/KsT3Yqcm3rjSqh+tTZu1iboPJhHVdZosL2eT6wLKy9kC2PPksu9KP/Vru3HC+OIjBaHbA1m01NEsRluY4EMexm86b5xy5NV7nGicH0wkmK+fP4c8CZOso5dnsUVh5OgoTVxjei9GlYM5PWvrYSeQzQAYL+QuPz3k6Za/CCo8/mc7JLb0j3tKXtnjE9g0kkbB9VF5Q+uTO14cK+p+WYC5T5drHWzwb2bGoTi2f9gttdcWu6zvZk5DcC6E8Ecz1NGOWk9w5bJYB6/h9vGuC0s10qXA35EOu2oMBPhlz2ZA8+dyG88FBWF6nxkE0KDOVOm8DjKUITuTjj89+9rPHmjmnMRCZ1eOzm85MJydz5Fx1gGcFsrszKO99SB/Hk+j6gozKahbt00N0c4fjeRD74bGTzp0mm7OZZ3M6M7Nu6+pm3sK8Sf8bv/EbI867Q/jdedo5168W2N27IO6G5DcPOM4j+c7X8cyUDXQGDZQzNeDVSZ01LpTPWeig/NkgsAMfZx/P82w59/02v98XV/tA2XAtg66ouHU8FB5vtp7j9qW7GEozpy2PzmGWX/4zH1xO/oF/spGlf6sC5LMfm/FvcWwpj8q94erjICyvgzJj4RQ6OE4iTEcHP/ZjPza2Gvt6dx/k1BnqOA1K8wDmmkNJn1OfFebOQn6Foc6BXldajxrtnB97aHhedvWZGO9o2Lpqk4GdcuAz+ng8X/PnT/b09QW76GzhtnPRC4K2gktrl50dc2aWNkHY2u1LC7bK2sTgbXd3sbZ299095U2vljDRPLA4qisEOgU+0OA+g7xsXKdxNSG/q5XnXK+gvHMdsxNky1D8jEvxuX1lTJfr045qF+Fy5Vwf6Fe8f/TQhz50vCwM6cGGJm/Z72r71oY/wsG89PqYxzxmvJDGSZCX1Lw457mHGY1BSudoucJLbNTWSHx+xjZjL63VyZGn83KevEvBpfDTQ37S7OsQ5o71QnLFXawqil/LEa7Tcqfj7fJf+IVfGAOTrdfOxRuwLXv6hYU7G4OEOx87Fv2P5ta3vvXo6AxgPrNfWeycs6uODOROywzdnZZys/md73zn8YC4stJvJjzSindUL13Lx7k7K+8x2SlWJ5s86XUo0GQDnQX6HJCvHHi3Cqrf8nQeOu+oLDPm8EjYLEM5Z1vIz7nB2UYUdepu1aBvYuGFTfFsgt+5ZWtwDfvyCOu49IJ1XCge4q9e57R2XtLRJ6lMIOWbPHx0VT7+qi4rez4B5PY5IP6ZPwgnC382kqayiddfeJ+IfwL+ljZNwL7jO75jfPDX5Ii/i7dbV1/zkR/5kUMnYem84Spiqcxzx+JMu0c+8pE8cbc42Pgd8Ed91Eftlln6+HXygx70oPEr4sWBd8ssffw2GA+6+c1vvltmPeOXw3gcFyd7q19Dk38oFPaFr8PSP1J+5dsXruzLIDN+q8yGbMSeaGmk4/fsaGlsw27CHZdBabcMVLulMxvnwvALu9GNbjTCySJTeDLjq76cSz/zINfSO5bv0hEc16E08vjoj/7o8Rv0ZRA9LpfzZYAd58ud8ChftjkrPPGJT9x90Ad90O71r3/9W9nWcV0vXc/6rONDYeqPLDSHKaswfrt0muPcb9xf+MIX7pZJxO6Zz3zm+O2438aLp9Ob3/zm8dtu52eNuawXohe/+MXDx5aJ0HEZa5vIteMyuTxuq67xzrb5tE/7tOHLyopHXPGu2SK5zpHwV73qVeO34/kfH7vJTW4yfsP+yle+crdMxobP8W1+yC/x+y2+OthwfjiIZbrFwY5nRUsnNcg2VstFvr/lq9Nm+ouzD77FoQfvPsQzQ9gh0FqviwH/TLA0nnEMhZO/NM7j3UFsCmxptrc02nHntDTYEQ7SsiXC71hehZFZHCwNeRDIc4aZ6oylIxhHaeOlTzLBOZ0cxRVG38LBcy7PrG7oqP7megMz9XXdej7qW4E+/+Mug93VLTs595xPmmx5iFB//IDOs38ot/plB2WonkF4ZcrXIPuQJ7w0/But7QfytJPOJ6zsqvOlBbL5l7h8TtuYddhw9XFQ36bzt9fU8ea/b1z5kKFP1XA0y0N+gdAmBvDQXbhlOg5OljiOxmHjOxTs06ewyu6IKouyK5uja41J+Tp3xK8xWdLxCZ86OXzS4Us+/uLFofIsXCNNPsJTnvTSmPFabxdWmgYesqRxXiOXHtn96GjgLE8bIzyD8typ8lhWgfnXHCAfss8Clun4mA/yzl82z46QHvt0mPVUjmxDhvCuZ7nABsUB2dqD53WWDX1DbeYRL20dOlueJSrTxcD/LJP5d1A6G0CBrkBWpByILWZb+YwVH7PEJjwiL2SP6kF795zZKyEmr8Ll6YV5r4qIZ0vfWwzysqnH5ijLdOwoXbpsuHo4iMGIUzUY1XGZyXAcnZ3NCt7+99Kad2h+6Zd+aXRIVOdI1pUbjHScIL7Z5g3FsaoKR1QD1ekoW2XRwOocGyiK04AdzRT3VW22KM416rrGXidJvjpphioe0YF+Ohpx8QsjK7mu64TUCT47mpw3kJFPpjjXlafNLPhmuXN+VxpXYjDaBzJmKJcwdgA2IE8+4mwcsYPORz2/4Au+YDwbJRtPdpjPk+P8LHBSudZoMNIuPf+joztaZTUJAbqqw7lOHec88oXas/P4oHSdA5n8n+1AuAmNH0wa1PxS3m9S6MjGbI7HhFYf4k+v1YHjhquLgxiMOJzfFNjpFXy120NkjuyhqE0LOgoPdP3mWgfFoTzMbTACDsZJc6pDQo1nH1QDUqbOYV85dO7CycNfwwXHztm1Bg/S6AjWDQ1/PORBeZIhvx74mnH2Az3XNkOoo77yrcMhwyCV3GS7lrd4eiFyhFUenQn++a7JMZ3xRGeBsxiMKgdIY0lImDKSDdWhcBtLLCn5jYrfZNtaL55v61ybAKgL5+KkI3ufTlcC+8q1Dw1GvmFoQwo9lZMf0RdaVoP8s8E0VL/i+ASQNdcBma6VH0xabXCyEepXf/VXRzp2d+33KDbJ2P1pE8MMnwjS19hRSu6cz4arh4OwOCfllDlAzqrRWoKzLVOjtGOr91k4YqSROtbgi+967sDOk06Dma+GVnoNRZmEO2YzcR2FK7s4181Ca2DiyQHHZHY+xwmPZrB3eSNwLY185JkOMOtWWvHxqP/ughoshYkP+BCedLwhgc7KrpzZpTvG6lh5/TTPL/jterS85FuBs70BrzTaCDsZoLLxocAA6m/COnplcG13IirMRNKnjdyZWKbF4yV38Y6F2e3mf2X4pNMHuPMSR0Zy3AHhg7lPsAtROvZmR3WBTLD4G578zfUh2fGPEw5iMKpzyQk0LDNuDdP6r3+3POABDxiOhpfzcBzkuo7KeTKSCcIOgS6Effx1UqGyAhugeCHboMpfHJvWmc3At7bVPuCR3mCTfLytsWf/Bj/n6sfsdN0JOCcjua7x6EDIJK/NFuKElSc6FKTPxXSKRxkagJTRufDK5306P470BQ3b5fvpGztmn3mjg3PpxR8a+EC60l35XCPlpXM+4Fo51DWC7IXEx+Maj3Ngk/lO04rJPBCBtFZUfMHF/7zolMxo5t9wPjiIwWj+XwuYpXj50n/wORBnsxTkKI4z5Tg6bNeRRoAK52iHgrmBzVTDCjWQUHz8IGxOV5wys6Xyu2YzM+c5LtmO2a08u57jpQFHy3F1Ml0715jTSTo88jap8G6SDkm4uklWSzU6EEt/lvjquHQozvlEOpUnOTdE0F+HqdzqB+qADdqWk3yZu9+3syV+pA79g2ce/IHdEHux26Eg36ycayiDuOoyv6gM+R7wLb7gmD2gY/4N+Y5j9oZe5vYMrrz4J156WO7E73puVxuuHg5iMNIJcbTZQX2t24YGDdP/dLz05588/jTKWZrJSNM1h3WuoRZf+CFQOl2Iaghs4LzrjoBPfA0ZaryFObKlQaGGBsmM2Kp80awHCuRpqC2nuZbWYONokCgtwitvEw1/0NQBs4EXGcWnKx520THQkxwQL07HgR/wR4eCtZ1mrPVUJnZQRqS80v7AD/zA0YMe9KCjj/7ojx4vdit3nWjLRwZsOw3ZOn8iX1z2PyS7qH+6VY980XXPf7IDndnA0TU+9e26OGHx1o7yH3JMiKRJjniI35dFXvnKVx59+Zd/+djhBya3fAsPSEvmHLbh6uIgBiOOADmBozVhDdODx1ve8pbjx26WLzQ88TkPR3d0LQ6c55zJPhTMzr+mGevwGmhlddRIQ3IDHmEasQbmerZJFNbXoTxnvXU0dYjNJN39eHj9whe+cNCLXvSiUWcvfelLx9F2fGF4DGDkSadzqvNQHnkhnXGdWLqhGzqypU0KNuaYXPkAqkHen4x9CUO8cmfz7GHwYvPagOOh24ae/I8f0jGdlY8/IhBW3ccjbbbIN4Lz2oQ4kAaBcDyOfMzzJ3dGni3VT6QXOfwYZrtvuLo4iMHILIVTcBLEGZBOyszQWrrtrWaOBidOxNGk0UDnZY+1M+I5JKJTVDnXqFHVWJ3PHbawyhZv/Mksbek1NrYtb3IQGY6F7yM8YHAwQ3cXo/PUyBswfELo0z7t08YEAnlHzM/M1Fc/4bOt1q5JW/PpSCfvhSgbH0hH+ZntqmcgH+aynhYXSjPHrXnW1zMuxD+Hdz7Xc3ViUw47sZEXvH0+x9ellb27IuVmb9fO2YnN8fB59hKODFLknifmsvML9UenfKh6BHzKUrxjaflA4eSAOOmbpAA+vojEScMO2SQ/8u+nhz3sYSMdmexoaU88Kl1tbMP54CC2dluC+8Iv/MKjZzzjGeOaI/nY5wte8IKxTOdbUv5rpLF6Gc6SRoMWZ7Ot23IQaACcSrGcV7wcHgEnBLzxXcgZpcdzpc1FrnKQS7cakvC5sYqPT9l9u8uLhcLw19l1TM+uyXG+5gv45zTFz+E6Pzpp/N6BeclLXjL4xFt+sy6PB9Yy6OioQ/iYj/mY8ZyDHPwGKR9e7XngXH7QIVc3wqPTIN0hfYK4/CF53kWxtdsuTnfkwquD0rN/ZQri6OgY75z3fP41X/M148VLkyt+aBXAt9PYhgx26DmqdGQheug009V1thLf+Vlg1v8k4HHna/u0l3UNtsJmuzSAKpvzwqsHcF44lLewjmQkW33Uhg3yfEmfIj3yfqJl/6/4iq8Yfzr2XK72D+6W+jYdX9twPjiIwchLahyF09TADDx20Gm0tnk+8IEPHI7luZFwaqd6TgrS1lngn+NKg/AB3hq985NADp6Q3DnsclCDUe7KjoTpeJIvv3TA95Vf+ZXDDqVHc1kvhnVZXM95BXkJF8Y+HqL7yrddjiYGwfZanauZa7rQH3Sy2VbYf/gP/+H49xT43DXd+973PrrNbW4zBqk6KnmTVSeNt9ktOg0qU2WYy0kGvYQj8H6Md068u7YejCA9Zkpmeax1E6aT9MFf4NO2GvuDcZ/0MfDiYxPEDvygvMWB6wiE42Mz5/FdaWSzCwHPejCC6pme7Kc89J1tWXlOg2SBPKXN9t4z8ukkS/rBM2fPinyx2//QfuVXfmXokE/aLEJf/sd/02nD1cXZTKMuEZyCc5jd5AR+b+DfLWaMnInDceAaaI0jx6nBzk4dH6rTwQeuc8ZmV2skE/blV/xpqTQz5rIAPTRedw3C98lBdUCOs56nRXaZMcsHuiE64XW0RdauL1/C0HDNJL1pb1bpO2rf8A3fMBq2maY7ACTs6U9/+tG/+Bf/4uhpT3va+N6gdDpcd7aem1i+84XxOijlN/BYjnKnYJNLs+pLLSvQv7KwL1nr8s/X2bR0lb+XetOho7jq17mvTPgPV0dfUPeNNGSW7qXWNu4oE3uQKz2bCJPnmkJ5RZdjk7NE+tJr1hOUE0HxfPm0hD8ZM7G742wvxPZ20fE/qyjyVP8gvomPczI2nA8OYjDSqQGn4Gygw/rqr/7q8SMxnZKZYx0B/p4TcaCcMYc6CTkzcEjp19fNvIMwg+TcmOY8nZ+WTgK56SIv56G0cxmvJsobvLnuDlUH6/9IfTdNYzeYeLlQHRpIoOd5GrjO1rk7AUuy7qw8J7EU687IUqx1/e/5nu8ZeXbHAOpbB80+80ujpwFZ8dPN5omWP2fUKQbn0hm4AD8ez7b4IRvEX/2RL9ydj0GnZ2XIA3RfdUB+2cEe7ibnjrHBPd/OJ8ifqbg5/pBBz1nH2aeADS6F9uFCcZ5ltoogb+R85q+Nbzg/HIz1OUIDA0fVsfkkkLexOYpBwrKQGbn4nJlDrR19Dsv5YE4H8TmuzyGnrTEVDrPc0yJ+8mZZdEreLHcdNvOFOe76oHLPeq3hHzGeC/nsinrx7MdkwfKcj9mqo8rWAEAvnX92VJeWYH1hQP36BqE353XC7hgsZdl5p0z4g3QN1BfS8SRkM+n5GRLmQXZ3ofQ0MDhH8pnrvXAyhLurUT6bN77qq75qzLyf9axnjWdptmH7nA+yRHTb29522Or2t7/9WHYm06CTz5NLZlTe+8LkH81x6XloSMd9SO/LpWTPJHwG3+Rz1d9MsJaz4XxwEJbXoDXKZtGcREMzU+QcOgkdYNuFW2aRTjze2QFzLpidThrydZp4Cg+u60Sln9PO8i4XpW3mG+TZUmEd3KVg1vO0UP7ZZslYy4rHBgV3Jexg2UmdVAZ2VSfSNWgoi/DilKl60fmLrzMmx0NkmzJ++Zd/eWxakaa8pc1HDFqz7S6G8gTp3HHN9jcYKZvnCL704Q19eXsAjixLer7l3PfO7AS0jR3RlU1+5Ed+ZCxdeo/FoPT93//9Y2nZsqVlSc/3DL7KoH6r68pEl65n+6d7+rteE5SmdIeC9IP0m8vjOPOcFnP5UXKSvY5v5UX9WfJNF/aGfEFa59JsuPr4A684EOQkoBPTMVgS8cKah6Jmlr5RVwOGdQeeIyUHZufSGZmBe14B8kmeNOQZrFomIrvBD5qdhxz+tKQjdNcnDyCr/NeE/yTU8Ga6vpjtD8nV4VqG8/IgO7Md0sgrk/KwE+oOQ9oGJ0i2cPHkkode//rXj7q1OSJ+PNWHAYwvXF/Ql1/ZiOHcRgKDB/+63/3uN55fGZgsR/rgp4fhfsFui7rt6n7TbokSGXCk9eDbcqUlOM/KHvWoR43vp6W/ugTlnH23QRnyX5jPZ1Q/cx05z4aHhH2+S1fhxe3juZKYbeUzS3bZ2eDA/k1I1EeTorPWZ8OFcRC76cxIzR7NiDUqDdRvx7/pm75pDESWQQwKOgTO5DNB+FKdE3EmnZyOULhzYWR17dztOjn+X2IXXw6IB7n2TTBUpwg1dnI4cR3ApTqwtMjLoD/xEz/xVjO1fdgXJ89nPvOZ40vmVwpzPuRXLmV0d6CzVhcGUrukPAexPKchA9saiNgHgY7duX9SOZKvHoFcadArXvGKsVUc6aBNOjxP8nxGvE6dPurDwETWae0uPz4hrTTkGdTI4B8GEDvn7AKbOyT80uKXJ534jnBh9HeubCY3BmbXdFWnIJ2wbEu2fFHl4guuoWPAnz7VTdgXPvNfaazz3wc87aZTf23tLk6ZlbEwZYd0Pq3ubJ8MaZwj5/oH+VtSjse1ulMvXsjW38x52k3n2WVf/qfjaXXZcAWxVNi54xd/8Rd3S8fKc8avgBcn3V1zzTXjd+LLwDN+O7403PEL6mXAOv6NNb53eId32L3f+73f7ta3vvXuIz/yI3e3utWtdstsd8Td+MY3Hr9AXjqE499q3+Me9xi/c77jHe84rqWf5S2dyu5zPudzBs/SuY5fKS+NaOS/OPPQYQ7Dc1paOreR/td+7dd2n/VZn7V7t3d7t5Gvci/Of/wLb9eFdT6TcL+hpsdM1weVCc0yXf/6r//67na3u93I+6Y3velumSTsfv7nf/7499fZ4S1vecuw0W/91m/tlgnEsPG11167+0//6T+NOGX/nd/5ncFPtmt2XiYFu+XOYnezm91s/A76Lne5y24ZAIe9loFj2EteruVDp9OCfvSRVzqSSU9yP+ZjPubYruzPJ/jMMugOXYSJe8YznjHSkeO43NUdlwnRL93oqZz4nIuTH12QsMqSTxWGyBDHTs7XxHZXG7NPnER0WyYgw35L5z6uK0/tx7Vzdqg8SPrTIrnJ7hz57fh7vud7vlXbuclNbrK7733vu/vJn/zJ3TKpGHHavLrW/t7rvd5r9DXSs/ul6LLhyuEglul8Ct5uKVgcdcyYXve6142XIT/wAz9wvEG9OPKYrZi1LE5zPOu0HGJ3lgfHXpr1sqLlFXxLZ3C8xLY0+JHGd9JsRbbMJD25YXHsQXaB9WMwaZHz8gRh9LhUKAM5dnVZLlocf5RXnnQzw3YNS/2M4xrCpYtO4rsSSHZld5f0mMc8ZmwycCfhmQs7s4UysJNNDmajlka8U2SZy++exbnbUT78ZKs/d0S28Xs3RH0sHdXgYSt3XnikVTfz3ctpQGdLrqWjox1vlukcycUjjnz1ymfUD58BPPRF9KJ3svDT2ZHeeNK7PJ2zn2uyqjOyhAuTPtBDGArkRG8POAufPck+djZaadEveN9LvbnDjzc7O6qjDeeDgxiMaricgZNqjDogS0H+YeQ/JuJsB7aswonqHJy7zbYVHFky0amTQVYdhw5HmI6mo/Tk6hzw6BzqCHQSOSuUZ+mSi/e0VAPsgSo5IH/ndWbJPktkm3QCec75NtixCb269sC/jlzdsS3bibMM4uVlvz73TMjGE++MOZcXWfjk04BjM4CHyzrk8sPbuSOCtY4XwyyncrC/QVGnlE6gPMl2DuKdKyMfdQ1k0lcZyGOH6jhdwxzuHMknWa6zBSr+JAKyZiIreYeEWafOr4Su+9LPcud4G0xsQvHpJX2JejOByrfmNK43nA8OYjDSwGqkwEnsrvLZHy+92r31mte8ZnzKwzscoFOpg+REGrMOA2qgc6MWnxMis1np8UifDs67dgxzZ+aYzPQun5mKi9KLnq7BUT50oxPZ5UvGjORCeoY178VQ+ijZcx7gXDy96O6a/j6pYpbpuZcXCq3V++Dnc5/73HGnM6czyKo3d0o/+IM/OPjUp0FKXeggrOmbAIB088DELsKK6zwUNlNp07tw1waO3udJT6QuKnuDg/DKTL+ugS8YoITnC/ISnkz5dQ7SzrJBOnKEoVmPs0I6pQPMYfvoNDiJfx3mnK2gssazj+b4UL3Cmm+GZ8Pqwd23r2rwLXf05T+nm8Nu6JR90A0BBzEYQY0waLBmrjoByz52Mnkv5bM+67OGcefGmuFzpDXEW3LhkDqKdnEJ55jyAvHkinMHJF4caumITjqOOU1EdlQYGUF4dz9Ahg4xWfJ1jqSjS+UUtq+TmuVfachPvnW2QHcN2WeZ7DSz9OEO1rKcHWZ2lwG7gnTsYClVHdo8gtfRrjODmnMfwrWzrfLJQzpgs3S5UB1HeLK1epQOqTf2Fk5+dYpgtre48koPEI+fTRrMkidvvHwNT+fC53wgOeV3qZBupiuF2Y5hPj8tSjOXcS2HfdZhrte0D/xB+uqmI8xp8NlI4XNT1RfiC0h8yMdu6FD+bMOHT7LhoeFgBqOM5llOHT7nsOvNHZGtxT45YwmOM4nDY7CSLgdrRu16roicEL88aiTSVHmOSLqotB07h64jOqGuQ3LlZUmHDuKF6TRn/hxojcKSX15dl8dp6SSs49ML7Ch7whOeMF5StdvQxOBzP/dzx12N5TjPkxpEZhsqo/iekekYHv7wh4/BS33azm1LtDugymMZrbw9T5RO3QpL7r6yiEfql72R63hRdzmOyYK1vM47JjvK/vIiq/yQcJCWPdigfGAt62I0Y198dDWQndZ2AeVelz/E45jdSjvHrWkfyCUD4WkQYeM5DT5L/p5LJ09YPmpH6GMf+9hxdy48uiFCefgZZBths98dMg5qMEIcmWPpvHzU0O8jDE62c/sXPieaHRB/ziOsRr92qtLgt0Tj6LoK2+eEha3DZ5CRnJkKnzHzgXyVZ5afLvFIU0ObdUk+muWcltYonKw1xf8hH/IhYwDRuH1hwOaS+973vuNOx5cUfGnd3WtfVkDODWLI9V3ucpfxPo8XXPH74oKt1f7oa2utOlZ2g0W2Ul+Osz4doxnZpfR4+UW+oe7NkvcNRh3XMiG58zlSP909ku1c+Jz/nM8hYy4XKgxm+/C3OvTs1XnlhsKAnM7jETbzzEiHOZ0jkmbOAw84mvDVvvE615/4eovnnSAN8nUGd+w2NOzT4YaG7JPdsouyHjoOZjACzs1pzJA9h7CbTgdoFi3OkofZ8ezIkHPOtMbsaOJLXyd+EubK3Qfha0o/NMOS0fq5EF3KA6Rp5g7ODcbC8ZY2fmCTlhUvl7LbPhIf5G+Z05etn/KUp4z6sszmzsY36q677rrxCwbxkU0nniV5b8yOx76GrWNwZ+UZ03u/93uPLxb4VQh0F6Qjge4ou/OFte5dF0ZX/MhSGppnjmvI73JQnUP1J6xBSlh0Qwa7dmRHdp39Udi8wQfNdQNdo67JOA1Kl6w5TzLYnJ/YCdsOShBnV6cNDJ5VzvUFrpMr3PUNEXSvzOvyuD50HETrYLQarnNkZ5zPq3i7HcQ3mxUPnKxOmFP2DGDtaIDHuaNG5Ij2VRK+KB4yk5tM4fKP6vic1/khgyjCLy0dZz2FywfSa46rwYP0Gpx8ek7R4JXO14cq50zCy9931SzVucPxle3P/uzPHl+g9vUEL+Fauot8xQAJF+/cHa47I+SZkc/rfPInf/L4dcPNb37z4/p1lLfyK6vdUHbdCc92s86dg/SRMGkM6Mi5MPViUBXGnjDbGWY5c3h5ocKdV4/F0UvngNZ+eYhI7yjM5QJH5akugnM0+zPM/M6zy5wH/pOIvJm0dQTJJVOYNsFPWi6Why+H+LW7F+vdzcvbMnB+U/04L88bImZbgfJENwQcxBcYOM3jH//4oy/5ki8ZHTknsaRj+YaTgIHIbixvSvuaNx6q23WHz3MLzqhj8R6M/yNBlRH/Pe5xj/FOklmS79zBXHkgPeKk4qSTvgYU/1zxa2TW2bx4yaGjZSpfvS49ufHWwHTC6VRHWZzlMktfPZS9Upj1BbLtZvTttfd5n/cZd6vqyHcCfWGBzZVButk2zpHw9HYsnh3qADxgVi/gdxO2edv5pMMA6dxF4bXJYR/whPKsM1JvM8TR27tE8vOnVXesax1n+BVGvzKBuXxBnLB8zfmM9fWhYS5LEJYdkXNwzl7KjEeZhflIrGVbvu2IH594cF3dw2zPNQojH5VXafIfEEa2HZ7ahi8wgLws/3o29PEf//FHT33qU8c7b9qNCYmJlH5HmwLyydynz6Ej+wD9lX1dXweNRflzx3LXsHvEIx7BioMWo+3ucIc7jDf/l45v0Jvf/ObxNv9i4MGzGPf47WlvXf/+7//+8Vv6vqCQrOT50oLj3/t7f2/k5y3/xQGP37JHy93FkPm4xz1u8CyDwZC5zKCHDmQvlTvCkevFAU5N+JPhjfD0U5Z0cI6WDvT4axRrHtfK847v+I7HMs6K0mcdTr9lUB160LPrysC21RVa7kDGm/ldS0P/tWzh8ZH3F/7CX9i90zu90/iahriZdx/t03Uf0ZfM7In4wkl5LIPR29ThDHGzT+QvpVnzHyLoiOic3sqxDNTjiwnOfVlimZwcf01Bu3Otvbh+8YtfPGz4nOc8Z/BoOwifa1+tcFzndTHCy750cHRNJ5RcOiwT1vElD/XK/9Ayed0tE9bdX/yLf3H4oboXr/71FdWPI5LfDRWzzZSF7dnlhlCmg1g3WJxj0OI443ox3Ji5okXHsbX7Xve617hbstQDwkG6pQMax6URjDDXyYLkBdd4YHHCcQThKMQzh8UjfyT9xag0kTBIfug6/eOHygvilkY5ZvOQ/aQ7Lc1wTeZJtDTccYzPDjjLW3SjB9s6jweEmW2agQrHt3QiI46u+NM/uc1OqytpvIdkyQUvu1XONaQv/86j4qVNH7LMjF3nN0ujfSs/2fAHfpfvZcugDtlLPaF8NVQXwN7qP958BpXHmk6CuNKBeuU7/BTIlq+NL+6kPc+0I9czyw/90A89bpN8Kp90FLYu4w0RyqGM7JNv8/VDx0FZnvNyKMfOfZzTg/Hv/u7vPlpmPMcfMwSOk/Pk+Dmp6+Ba5SSX4+F1znHjlTbEm+OD85lOg5P4lU0jSv/0jlwjOuCtoRVPb1TY9UVyZzoJ9KpBO4JyzOnW1/FDZc72c/lc17lIWzmTcxLKa6bC5yMUT255yXfW8TQgA/8sex/IRoeEbDDTxaAMbFXH71pdsqHzZAib4xD+whHMeaYDe66puJk/GWFOO5+rU68G2DRzpzvd6W22eOOB9fUNEfRHM9i+9nboOAgtdQp1anUODGg0956RnVhm43VQMDt2lZDzOa4rRXiVYgbsHMkbSg9kJh+SNfOE5KA61RpeMqRD8QhTFrMW1yA+Gzinl7ykqQOAddnIkq4O+7Q0Y188kleyyxf5FJA7lmynDOotPnDdTFiaMNsDZps0SfBMDWUbqFFVzjWSOdNsK0dp1/qAvNOh6+hiKC+Y09C1844z7yFgrU/6z6QcKKgXd5Pqg81cuwMRhh9qv67x8XPx1atr4ev8uz6JwqyfcPU6k3B+y0d9g9DzYZto+AO90t2Rz9kR6u7bs1HPJm2AEHZDI3oj5UCeiQrn88p66DiIDQyc5ElPetLRl37pl46BgrPa92+777XXXjt2wHDwD/7gDx4f6PTwP+P646hNDXg4Fr5/9s/+2dgmjIdT5oTIg3IbIDyIt4FBfI0tp/+8z/u8saGCU3Nocs2uxNXZ1tgyX40jxBtBA4rlAcuN7vjKU+MQLy86JVcZajTkCC/v8iu8NGcJedKTjrPtYNZBeOVO1+LTu/Ou8at7aXUq8Quf0+xDepQnzHaabVqY69KV1xqFnbSB4STMec2y0+m8Meu01qfreNSFdskHbZnmq/vSitemfBj3y77sy8bXOWo3gJcsNiDDZLPzOc81xKHi1AGabVmYz1J5qdo/qdS5eBuWvH5APwOT31xIq13ZHWrFpTxgnw43FNDdwM8WyqtMd7vb3Ub5lfWQcRCDkVHc52IMIBxUh+Tjp/6OadDw5QUOy4nsnDP4cCaqu2Pi/AzN0VUEvpe//OWjIvDgJVPl+P+MwYjD+o15xa9RSG8nl3ebPBchU8VKX4eGN+TAMJ/jW1ODSu/XeAenRlTeyj93nPJC9AjyiWDO46xQh5GudHROtznffTqk60k6zuUgG8hel2+N4mfMfNUTPvKKEz6HZeM6L5jzB78UNxhB4cknI1uI63pOP+fduXh8MIfPchG+eOkofuaHWVY2nCEO/yw7HdGc11o2n/Ten28KioeZvzRm4L43qI36RJR3BE1c8t3kpgP+0iZ3H8ojYgPtSJuEdFUef9+1kuKOKFvZ2q0zVg6DkSX/dJAW31yW7BjmcEcozzXW8ZU5+XO608ia49Rr9QgnpXf3iS/7ep1Cn3aLW9ziDzkOEwcxGHlfxV2R2ScjMrptyx48ukPiLD4l8+hHP3oMIG4/hTG0ys6ZIAclRzgIs03Yrfjtb3/7oyc/+clHj3jEI8a7B9IhcgwGXpjjuEjedBE/y+vOAPY1/AvBXZFtp35H7Qd7GpXGqizdGclr7Yj7cJIznhalPw3ohl+5Z3sLm+XQPVyK/NNiLuvcoVzIBvSY46uz7Owa6ayA3OKCl3XdkYub88WDF5FRXqWP0jF+wF9HbaJSePJdS+O6dC25SDvLxDPLWqM6Kx/njunsHDnHk3+Ta3XAVm0TRp18nRwZ4JwcaciQXnsTzt/xxzvbqDwuBvzlQR95aCd8cpaT3QCPOOno7l027U7b9/kpy1fsFY9jtEY643cO+3THQwcy1rZ0XRxa885xs6zycV2/sy6v9DP0Y+SwOx6TqIc+9KFH7/d+7/eHHIeJgxiMfvInf3L85dXfIT2PYPjeMwKfBfqiL/qiYVS33xqFCmm9WmNheGHSQpU3O6Vzd1Luun7xF39xDGriVBhejsPhvLvkTmtuRNKfdH5azHkZgHt3ht7ikksPPJVpDXxzvtKkz6XgUnSvQbLhbFPouNbjUuSfFifJP6n89OYnBpo66xnqw2SFzfmRsgmTBr86AHfTfjleJwjO8cqjTkp6deZa3Axx0sgr/pMgX+XDR175zOWcz9d51RaEzz5ERvUnbm3DrksT/9Of/vSjRz7ykccdeHlbPVAe5aIzXmhSKHzWM/lz2MVQmvRF0tNxlkPX2Q7i6OvOSJv27qCXsb3H5rHAfAchHf70d50sYYXLA2abBnpJU9xJZcXDPmwTr+vyX8tOrrjKmE7pNeu6zte7VF5O3wajU8An3jk7p7E2Db5p5kd53/M93zN+U6AS3K3Y5m2Gyug6BQ7FmVSssBoPaCTOFbFizhWlAvFwWOfScoQqtg4BZjNdH5PJw8xldsSQnrNelWUGndILSneWyCZzXungeDV0uBywNz/J3uyqLHTN/nPdFyZNfPzAb94NRpAt1E02mGUV5jwZUWkc1a9OSN7CXDu6dg6upUtW/gyuoWtH/MK1o66VxXHmgXSDwuRr4KYDwiPOErqlayicTenvXDo2II+NHdHaf8kqzwth1jcIK7xz8hGd9gGPZyZ+RYMv3dSpvgOsulgyt4z1/u///uOTVh/xER9xdM0114x46fyfC88nfdInjfL6xJWv1tulJ14YuOMS579qyKexbn3rWx/d9ra3HfFAlpfGPQ9nNy+Pe/HbB4jJAv2cRw2Vv3LLxzMuLxQL82sWn9Ny56c+yAJxnu95bucTW3TwDP6Q8QcWPGf0zopb+irVcyR3TH5JoGHZUKBy8SHGVpGW3qpAqKGoxDog8a7ninXu2CyXLCS9NPOSjbC1U1wOylc5K4OjPFCyhWksc7lmkCEuSrezxIXyEnY1dLhUZE9+QHfX6lKdo+pVvavv4oU1EZn5yMi3QMdWnDyk4Tt4spdr8h2BvPj5tbiZL58lV/7inEO8EZCFykO4a+dkIci/SuccpKN3aVx3F5m8joEs5XCUVjnwFDfba0Z5zhC2L3wfkomcl1dHcugR4VFHOmvfprvnPe85luZ9fNm551o6a8+RffjXQHTnO995rJ7YLGWwQT6kanlfmX2tHpHr77H9FsXRgCK95X1fhDEI2MDhdRTx0cd8zMcM+/pxqC9DmJw6pg/dpFEuVNmVUdl9Ydxdqkm5PORlomRzFhtkD4PRHe94x/FuFX0PHQdxZ/T6179+PDOy68Vas4piTO8EePBmZmPZzMBjKc93zrqt5XScRwOyzNLMJ4ddQzqDH1nymSsbqczS1XHMjo1funVDOw1qeCelnfOezw8VdAyHqGsdJntXh0Bv4UhnXXgNtmtHPGbQ7gw8/Nbxlp6PgqPr8hCfH/IVkw8ymomXpzQgnTCdUvx8lNxk8W88PYuRXjo8zsUrb2nwOkaAL/7OLVXLUwfaoCS/ymkZnKyW6dhSuLS1MdfZbm1rUE485TvHzbrNOCkc5K2s6Rtv9lQeYREe5dCH+M2J9O/6ru864uirfG984xsHj77E9mjnBhLAxx6+j8hO8vHszAu1Onz1qs7kSxY+9YR+8zd/c/yyBgX9FJ73eI/3GOUw8cabDfkB+f71BfKbfcXGLndfPlRMb7uHLUP6y7Kv6AO5ZBpkDYA2ghlsDxkHs4HB96FsYDBYqHy3lIx497vffax11ri8Rf2ABzxgGJvqiME1Rh++xANzsYSpTI7nmCO7Bk7gHOUQpRfWubRklQ7mfC4F5ERzHjdEKAOcZxnoMOevrvIlviEuPdnb+dwxgzRd8wOdCxgYzIz5obDk8iEwwzWDdu1Nf0vLc14NFDoZRyTchAjc8ZvB2jwjX0s9npd6Pgr0hMqAnOuY6Ow3CAZKfDo2O8os83g2ohPVsebXOkJtSf7SkqGt6azIzW6+2fe6171u6KrMft1tlSKbST/br7TOs1vIFiD+QrgQb3HKgti1chgQ5Iukoxt+ZQXl0DkbNIQlu6N4cE12POqMjeSDgFwk3DF+59mUPOF8In6gXzrHj3f20eLiLz25ePxmxV2QgVPdu5sSbxehDxCDvNWj+v+0T/u08cwI7yHjTz3BJ5jPGWZn/Yo65/nwD//w8XFOsweVoFI1Mr+tbhccqASOlyNWiR3BucqRhiPksMKRyg/4usYX8Ekz54vm84vRDNfyQTk5rPluKNhXxquFffmyq7oUl0/NOlaXrvGuw+eOFvig2aqZqFmtnVk2wRgwzLJvd7vbjXrkx5aFivu1X/u1wWtgcERmy65tg3atk/SMQueB+LrByABABr83S5a3iZtr4chXz6Xv1xsNRr5cYju2VQd3A+n8cz/3c8e64RNnsPJ8JHsps2cdyoL3DW94w+Ale+ZxzG6zD18fJG8fqidH+cszPQwatW11hwfSS4fvLkbnPLdrKP1Jcp2rf+HCIuHFgfTyxqcepZWf8PqV0pReWuRcPJIePxnFQfmrB5MNy4MmQcI8dzcRUu/KSk5pPS+yDHjSR4YPBQdxZ+QhnGUAszEzF7CBQYNQIYzNwO6IvuM7vuN4aUH4bHTEAcB5FY1P5TpXocBpENRZgXQ5xey09HBdejLRpZgPbzqT03UyhOfM6Q378rjUvK8ELpRnuoarqds+O7Hj3Ch18MVX78LBdfVNFiouuHP3NWh102zXbNy5zlxDl96dhzseeZGJQmn5IuioyDCYWBKSZ2ncHeWXhXeevmBGzTf/yl/5K8f+SbfuAPDLM192lzfrlDz504ve0pErHSLL9mg2KG954HONQB7Sk5MuJ0F6mOussLCOK1/h2cQ5ooP81udBOv5A58JLD3X89MYbzWXA71r52MvO3+wqDuKnAz72kwdZhZevtM7l3V1e4BfqSh70Sk8ypVEOK0mW5YTZMWcSpK6sFPEtGzPI1m/afGIX8SHjIO6MGM3vIcwEGZ7TWLow6htc7Kb7gi/4grHbhKHN+OaKUxkqW4Uhcci5ys+pVGJ8EK+j8OKj8nBOTnAuTXIuBeXTebJC5+l0Ei4Ud1Y4jzyvD9gwX6gRV6fOq1NH1zX6uY4sYfnvkmU0jdnSCH4dhecHBpI6eB0P38XDb3VYiDx8ZuZ4nfdMAq+OZ925xo+PLNeeOySTHGXCg0pLNx1QR3zipZllpoN4fEBedpoHSTqaedsEUGdNfvZC7DrbLTvvA75I2tMCP5SnvNiGrvSiu7LQy7m6kKYyxUP3db75CHnSgzR415h1j8BRuDTxkJdN5nyTjUd+5Z8vuEb48aJsagcfn3S3427XCpJ/gfkDs99jKGf1JI2Xj90diT9kHMSdkSULBv2qr/qqYXwO5aVXmxUY27KcrZD+VW/ZwRvFHA2vCmTsHhCqhCoPqvAqB6Sr2IU5RjnCHC6fGh+ZnSfnNCAHpJ/ldw6zvPj35SFuHR7/aXApeoe1/MuRcdZIx+rQw2h33n7W6O5BmLpTBxq+GaY0/IWPVBfqW/mks5NTxy1OeHfvhUmPDEZANln5Hn4+XUcZSpdO+bRr53QSTkfn8g7Cu7MSLk264J2fp8g3uTOqv+J0nJVbnslzbXMRO1iVgHRVzsqkHdrpNdtR+lB+6Qj4Cof457AgDkmD6GowpYulK0uW+hL2FlY9QLoKh+6Q6EGmOOUX7+4Wqr/KIr/SzXHKn76Fu3akH9mofAwKBgd5Sy8MXM95KIcdxfxKnDtuR88vfYXGkq2lOb/sNzhZTvXMCA89+KdNC/0vzGT+kHEQg5EK8UKaZQCNi0oeCrsNtWNEw/KzPLM6leCW1B0SJxDmhVhr3sJsYuBUnABqKCqoTiQH4RwqDeggX9etK6vM4qEGrnGTh9/1aSENSIPohuoEisu5Z8deYw7vOOt6MeyTeRrIN6zzDzPPlcacV/kIQ+xbvWjQ6tEzRg31IQ95yHhHxHKapQ/2NuufOyVh6p39nZMvnL84F8cH1D9bq6sGIPxIPD/jx9U3fiiffDJfI0daHaF88IXSCMdH33RzLQ6PfOdwRL4w8ZHryohHnmSQ6zx+13iQzllbfOITn3isO591Z6i9sScZltp9Zktaegibfbi0IA7oIM41PgTpuw/0Z/cGD2lc+7qCXY+uawt4s4V6wJcewiqzMuIL6ZN+0vIdkxt1Jr4y4FNm12TKUxrh5GdHwOPr4TYbyBfw4acDW7KrdCbeNqaYkOuLPGtUZo8wLJv6Io1nfurGZNxzRp9Gw0Nvg57vX+pL5ZW+h4qDGYx8nNT27hzCLNY36bwsxpiIMZ/97GeP/fU6CLweHtthh1cF1ijrADgBPhU+O2HFFg7zdWnIKR6E4aPHOt1pMKeZiT7rOJjzPg0uhb88LhVzHpcrYw0y9+k+2wJOsnvnswx1hV72speNBmrCYtnXIFFngeZG6ljHkc9AfoBfWtf5UJ22c2FAjvNkdZ3+eMF5acWhGcJRejin15oPymctX1hywHV+DOlceUuPhIEye+lX5xefdOyg/OLJ9ZUKO7dKl7xQnlB4ea15Yeafoazy1OlKY2OHyaq6NfsXTp+f/umfHr8ab/CAuezCqhfyxNkibeeZgUc+deyVCbrOD+jQACwsXtfi85H4fXnFZi1fEr/NbW4z4vBWLn0bnQxGXm511Le5M5Lepi6Tb+9CSe99J+EGHvZXPjp4NcYWcH0j+eiQcRBDZc7hqDJUCmO6ZkiGVznWrP1WWJxBxywHj8pr8FHheEsPVYIKQ7CunPkaj8qf4yHn3ZfuNBScJ4u+++JQ6U5Ll4J96U9DM/bFX2kKnc9hQVj2Cs6rKzNOdtax8C11i78OBPEVPrO+no9ApnNUHTq6Jts5XywcSk8ulAfkA/HuQ/nBSXzlh5zP+curOIhn9j1h8pjLGh+74a0MCF8rCDPmvJIdSjuHx7/mhZl/Jvz0Afm7Y7Cdnt3tKrRaUvnTubKVvrAGAGGWtNx1WGHpRVWbVpAXUS11WfJy3supvcjqPCpsX7ijLz34uowdjenlSOf5jlqYczq626azc/0enfWNDUTJAcfOhUeHjpNbwFUEgzNugwtDWqv3pWQP6YDje67klrRKwde59NJWMcK65rgbHS6pI/UI6gwBvzBwIDyuq9vqVzrhjrMMvsEnUH4ivGUx5whcG5jiK890K+/kQ2ln/5p1nOP3pT8N8Et3WsJ/KQTKfBqqPDCXbx/Ipk9lvxity3Exkoa9+YBO2lIh6Mhtpff9OctbT33qU0f9p4/BysQVX/lmC+G+gOBuRT/jy/94wFEaGznwuZZ3ejieRLO+jmyZryV79p/qJR8X3rVz8gyavuVp4CyeHRDZc91It66/Q8VBDEYcBhiaca2PWs/vFtneeTOKO9zhDkf/9J/+08EXnDM0virYMZkbblioo9vXeKrj/MSxujaRcbfc4BOPDkhHUnrXpavh6gQKD8Ii4XVaUXBeXsh1+heXjMtB+Z2WLhX0Og0dItShSYM7IefqH4GlfN+SQ14Red7znnf0tV/7tWNJ3wYofYtnYOI8a/GHAMu47/M+7zMmwe6mfdnATl++xVfAZEYHL092yU+zkzqYz6Gwy6mfOU0DEjLw2LRBTzyWI+kN5X9Dw0FoPBu8yhXm3EDk5TsP4yzX2bEjbibAyyGR8+R0vtFh0z7M4fFpkOvZ3toXZlhf93KgZwkaqIEBn+M8AM0yUA0aXSzceQOX6+C8gajw0hwizWWL5vjqINqHmf+0mNNcCtHPYKQewashXga9y13uMpbULNk593DfoGInoAf+jtK7oxKuQ7fk5QsblugsfRnUbH5xxKu8TXDXvgPpdCGC2a5wMTvy9Xjq30CccDsIbWYwMLlzg3UeMJ8fKg5iMKoRZ2wzEY7iQZ/dc95x8ADVBwEBb8ZWIRnaeZUnrPANh4/qdN2I1OVM+YdOQl3j5T91So6u8Yq3Pm/zgs4mPxOHVycljMxkFY9mFJeOKMzhzsMcPiNZp6GrgfJK130kPrusbQP7ws4S9FGH3Y2il7zkJeOBvW/ombjmI+58bJCyW/dxj3vceF5jYPGSvddFLOd57pQviEPKRH4+Jcy5u6q1LdY2miFcvHBHMrpG9XtzWvkhd2TKAOJc08NyoWvvFflRp4+v+liqvErrHMr/0HEQGjIqg3EuMxMO4Mu6brWtjz7oQQ86dghQOVV+FZXxuyZjww0P6hCtob5RPlDDXVOY5Wi8BjDHrudlF3FnjbV+Gy4fTUh6RhK0fWSwqL/QD/ixnK3Utp7bjWuZTrhO3A40z6G90JyPiMvPQBi5+ifhzg1080BxIeSHF6v/fT4Ms9/P8F6m3aLK5HNSM26I/nZQwyXjcTQwa/Xpc1u6DUgq5MUvfvHxr8Lnzsaxzqq4fZW34TChzjTq6j4IRzOqW+RcOp2IQQXpIMiJzwNtM+DXvva1I46PiHeuQ9HRyCPfWec3g0wE8a7TxDPzhgvJvtpY638amrEOO4nvNJjTnoaAbatv58INQp43Qz7CNzwH8u1AfYkvXutPDDhWWoR7AdU1X5KGLyRz9o98BLpGcFJ9xw9d8z9U3DrtnCbMYXbhGYi8k2Rrt5dg24oOtaV9cg4ZBzEYzRVvtsOYdtP5oytH0Wl4s9pSnZkM3gg4xFyh8/nMu9FhkvpW93Mj7bzryLWOw8xXHbtuYJkHl3zAW+qf//mfP54niBMmXp46KunrVMqjtCjfWiPeNUpTupP43h5xtcpa3ahP9VieNqrY+CSM/Q0sBqzqvTsm/oOqc/x8yLlwvMA3pAWyoPzmJeEZ6/LP185nfwZ55S8o4EPiSweuTbAMRh/4gR843itSLsuMnofhpePMD+V3yDiYZbrAKapw51708skLvxy3dBc4SQYH/IjxhUvrSBbejQ6Xqu9IvTnOwGfwMOC0nAI6D43RGrpZsXMdBJl4W4bTUYnnFzoR58J0KvnMWWPubDZcPtSnTQdWT9RjvuJOwZfV+UTwfT1Qv8L5jXP1HvgDWeL5DB8BPPyJfHk65oeOax+9XDRg7IM8+A0dEZ+1JGdXoO8liqOPDwa0my69yBV/IfmHhIMZjBhMJ+I8qpNwC/qJn/iJ49mRH+2VBnK80jC+jkgFOYKwjQ6f1o3GdWHqto4A+Iq40rpGsxy+43wepPKRiP8Ih/LLt5JzGuR/pYX5fJY1816MriYq/0xhfQ3r66ulb7po39WxunRuIKGHMEeTEXxrniars7x8wjkkpzBynOdH8ew7D+v4k1CewfWsB10RHfiz36jrF/0SxCfTDKZ+u1M6VHuAynrIOIjPATGwjzAa3c1MoF9I+C6TeMZnYB9PdWsKjG3LrncIfBqDwRm//7TogHQ2whRzrlyo0lzPZojvYjiN6fbJWqdb84hPr+JO0i+emS/eyt31Ot0+7MsP1uHz9aU4/KxDKJ04RGZ1iYR1l2NAsjzhR3SAN35HPoFc63D+3b/7d+Nbhl/2ZV929Mmf/MnH+pJZvl3PSJeTQM5JKN2FeE6LC+lwfbBPt315xeebbw972MMuWCZLR1Yw9tnzQphlXkgHcK7e+IElfXcLlvBt3/f5H8+Z7ZbzAzo8tnG7a+4O2GTGA3+fNsLneQuZiN/oL/DZkWdFxu48n9XJn4p3rZzBeXLEV44GMOGl/zf/5t8MX3R340sO5U0mqs/yGSAv4ioXHiC3D6VqD9/3fd83dgn6HJJ/VtU34rvpTW86yuhOily2OmQcxGBEBS+YGYxUHrLX3yBj1OdUz3jGMwafwcguu9S2C+a6664bHRQ+swaV4yvDoJJVTE4BKgZyPg56lmbIMeUH9Jwhnm6OJ8XRf0YOjpzPsisL53OeTLLwrfOYkZx1fmuQhXJy5921nBbSQPUBNRgNF+hjUtEMV/3q9PoyhzzTxdIN3l5yVXZfNPYyo87U51jEKz9+dpNGHqWB9Oq4D9l4H0p3IZ7T4kI6XB/s021fXvGxn2+2XQi+Tadt5sunhTz4gDTSriE+npmPT4DJp3/2eC5oc4JJrI5YGj7Dl6RpO7T3cgysBhqbGmYfyA/2DUb5Gl5EFghD6dl1KLw4ny6aByNy+aV4vmngVD6DkZf9DUbyz28//uM/fvR5+jk/P1R25f7u7/7u8R1GuoHfrOPzWsOl1sm5YDHAuWNxmN0yU9ktRtwtRlPDu2WQ2T3oQQ/aPfaxj90ts4DdMjPe/bf/9t92i8MPPrQYd7fMgHavfvWrd0uF7paK2X3hF37h7ja3uc2Qs1TqbhlsBh+ZjnNaJL648j4rIr885LvOG6XXOh3eWe9ZlqO4wpwvzj3SxLMvzRwfzfmLS64w52w6h+FzXVlKk7zTUvlKjwpLdroug9VuaaC75z//+bvl7nf3e7/3e7ulUxrH3/qt39q95S1vGdfLrHn4xNJAdze60Y12Swc0wvkRXvH8bumIdsvseffbv/3bg39p9H/olRtmLDPvt6mzmdTV13zN1wybXqoN8a/TuY6Eo6Uz3i0Dy6gn9YjU44//+I/vltn/8E1t/1d+5VcGj/rG76ieq/dl0BrlecMb3jBk8Jnf/d3fHTzykNcjHvGI3W1ve9vdctd1nCdyHs9av5MovUv7Hd/xHcOPv/mbv3lc08kRySOZP/uzP7tb7vSOfT/SNz7wgQ/cPelJT9otg82x33/d133dqAttBt3kJjfZLQPqscxDx9tOQ84Bi0OM2cFisDE7AC+9+qme3XR3vvOdx6zADMG/aRbHPyaQxrm/Y5r1+JgqNGNfn3cEaZcKHmFz+KWi9BeSszjYcfnkuTjMOIJw8XNYWOuY/GSBtMnHuzjwcRh+147iHfEkcz4Xn1zXUWHJhmTtS3M5kG7WmS1A3ZMvb+c+8eKOh98IA2no5ToZCAoHYWQ5Lp3DsV34X2XYcHXB/urHcfalNcQjwNO1urTRSf8x+2ZyhPEl8Xg/4AM+YDx/9u8l4e62uxvJL0AcGcK6Rvjm/E/CrMOMOUx6Mufz0iF5I+fl52sLfkbqazS+NGEHYTqtMcs6dBzEYOSTHMvsZZwbNBjWspuBxSc9ur22LuoDgZxqHrh0SsvsYsjIYSAHJ9OnMhylq3PDR7Zbc7zirg9ylpMgD3ni0fnRQyNIX3BNzxkzP+ApHzKDMOXClz3Jxh+R7QhNAOIRN8vVCMjKLo5sjad8pa2xC8++4Dp5p8HMn0xU3dDHtXN1ZhnC8gZI1zJLVJnUsbLmH+LA5CVZHgCTcUNotH9coW7UF/AP9ckn8gH1qGMOs+9Ag460+TdS78JrF314FT/gJUv++MkzYDkH4cXNFMgnA52EZHQuD1Rbqhz08EVx39nreZc2yc+zQ5BvdEPAQTwzUvk2MPjYn62YjGst14NG67XuiBjfL6CdC8/IZjfPec5zxk4Snw26173uNY4qrgryzpJPv5PNERVZJavgHJDzSAOnrbzZdOtKF0emY3wvfOELj17xilccr2HbdGGNnZ545C987bjiNDy6I3zx4C+vSDi+ylia+JxzauFAH3GuK0O8rvGC60A2krbOf46HWdaFMMc7L0/n5FvT9/xQ3VcmX2bmL8qSnpXZdWV76UtfOh5u4/XMqHA+Rm6/GyBHXDbd8NZgvws9M2Kznhk5vxQbqud8YF86YepH3ZpUqKPajDjtXR3bWWYlxSS2u55ZrmsyhDnnJ7PvkOtaHj4f5O7De412ra31c00HoNuMeObjnN6zHc8xPf+2QYFOtUkyneP3jtz97ne/8bdX7SD9fPpHe/C1GhBuku750Mtf/vIhB0zWbGDomRE6aCyFPncsht496lGPGmujy8xmt3Rsu4//+I/fLZWxe9WrXrV7+tOfvrv22mt3r3zlK3fPetaz1OrxswTrp9ZFl8569xM/8RO793//9z9eY10qfsi7+93vPp4nWRNeKnqsoTpvrVYYcj5fX4zi35fOtXItnd7xM4wHP/jBY62Y7uiud73reF7hWRh98PYMZHG6Y1n0xUOGuDe96U3HZZFGPuVl7ZgM+eMXhk86acRbY45HPsI9MxEeP3nSI/njTT9hyfLcxhE/nn1UOU4i8umHnJPlWH7Ke4973OP4eZX6ZcvS4SsvuklT+u/6ru/aLZ3J7rnPfe7IKzulf/mRI37DflyNZ0al3Zde3aozPur5jjrEL3zprHfLxG74h+c8r3vd60Z9iss34s0vnBfPZ+JBeDwzut3tbrf7tV/7teFP2qn881Np8nkyZpI+vyq/Oc1LXvKS3XLXtVsGinGdfMdZp9e+9rW7a665ZvRh+o3lDn8cP+ETPmH3X//rfx18no/x8WVytvugD/qgURf6PrQ9M7oMLEYdRyN3t8hut32p22zL9kWfePf5jsWoI94MohmAY6P+UrnjaKYDiwONMH+ENXuXfnGMMRuBZi0IHJfGcCoqzRpzOPmIfqWjR/rS3RqwciuTJSXHeOlO59LQ3XbVxcFGuHTOQZnxs6e0Qf7uAMsTlB8fXcmmhw/TCktfcWQvjeT4TkJ+4t1xWsYwO5uXymadK8NMZEZBHmRXt7A0xnHNFm3jll5e0tLftTLjkTdkw+pfuf01WLrKTD/89C9dxw2HD75ZnTvnu+rWtfquLuPL7/nTHIbyH+BPfIMvkqFdgDDy46/fCa5nwjf7E7nSk+P8tODn2hufBUey+bKjvOwg9DdYu0s9BwtzO4sOHQcxGNWZqbCOjGzPvKU5P7zq/yF1WHgQI6t4R3F1RBlf5SM84jmEzk9F5tDCxCXntLTGOpw8RO8cVDynKj+Np+VDnb5OmD6Q3tKKU17lM7BKJ77BK/nCXYtTRkcyHeXB1jph6fB7Xid+7rQrg3iysqkjXQ2IDRbyLR+DKh1dS3tayINOjkB+sioXyI/t0qt81ScSD/TPvo4GWfbDq5xk1MCDfKTDs+HqQ11Vz9UfUh+uq3MDhOvlrnbUYW1XnHDX6rjzWRZ/Uc/SLXdYw7/Kt3rHUxuoLbqujSbLuTQoGWTPVBiZUXmRIQ/XtUtlmGU5Cneka/nRiT/7PJrt3fTMNnP6ZKAbAg5iMIIMzYCOjI+W2+6xRqrC/NfIv+Mhp4CMHnLANYSTDTkHCBMHVd5p6DTANzuGfHKs4jkRp5uBD4k3O7LObCchp9MwHH2P6ju/8zvHuxB2mPlU/rd/+7cfk4FGvuTorOVZuX/qp35qpLHObF3Zv1sMCPizrTByfKDW8y6f6Pfrd3dm2QzRT5hzoDOayx0F56Wnj/p1nHnSXefhKI5e5YOfHrMtxeFhYzDA2gTjGYJ4JB3ZUFlB2mRvuHqoXlCoLqoP9aXe+L1jcTpmvs1/rJzYYeZF55//+Z8ffqFu8xH8HaE4+c75kOU6H5KnAU6c/ITTAfDtIzLxpzeZ5LgG+UJ8+X9pC4dZJnihX7v0jMzE1HMn71VB+SHnKHmHjoMYjOZZbZXsiwtf//VfP77EwBHw+PaSzQugcgJDS+dolqDzyumqiM6rrMLmSoYq8LSU/AtRKL/gXLnp011Hdzrxcnwv9Xmg6s1tYTWg173udeNz+F50u+9973t0n/vcZzxA9l8TXx3wwJ9sg527jZYnLUNY9sT/8Ic/fPD6p0tLmnjY8cu//MuPZTnaNIDPnYY60YDw+nCjt+DpLz/67bPRjMoXVV/46Wv5Tx7sYxYM1ZswVFrhBvO5E0mezonPeFEQn3SWgBFZeJO14XxQPe6rg3Vc/tHGE/XHr8XbxGA1xT+L+ro/PwDn3UlpX/xLmPSO5MbPH/gG/2sQCvjJKA0+aVC+hMoX8NCVfzqfUZ7zuWN8tdlkONqw8YhHPGLsOLYJwsuzNkPpI8Xvo7kMh4qD0FBHwtDA8Ayn4kDl+NurdVEdinVR8Ug6nYrKNzvveUaGJ8O5yiUXxFfpOQ2+8oe5Ei+X9qFypRdwbI0E0YduAY87Er9a91kkoG+DrZmgQcWdjbsinwixy8bgAQ3MYKAgz1vddkW5y/FnSwO+7/654/S2t7fO2ftTP/VTx/tddhP5moUdSo5+1eyrF+lPX7t2bnazmx3rVdw+4M/+UejZFHSnyJYNcpB9srH0hZW3DkR61xoorDuIgI+s8r2Q7hvODtUh1IaikN+oKxMU1yZv+gD1rC2BOtVJ+1o7XnWqzQnPj8iZ2z0eYe6oTNBs9efrXgkhNz9qOdkycvmF9EP6myjfQ2sII6d457MthNGRTzsny9cW/BbFh1KVX5zXXnylJjnRLOvQcRAtjyMwuOPsfKBztMXyJje5yViy88JaBnZEKgjqSNYV4LqKwTPfLhcm3/jOimBuZKi8EdABuUuxBGdbpwYwd8bKy2nN7u50pzuN9w18PsngwTEtTdnizmbyxSu9tJbufuAHfmDwGHA4tE+SmFmZTb7xjW88+vVf//XxUqlBR7zBimzn6kADpYMGSn+dgcab7qgyzw1xppkXARt0nT0c1RfEN2O2XehaPnUI0rpuwMyG2T8fWsva8AfI9tnrYqgeT0P7II9oH4TTxYDCP9RpbcJrHPzUXYXJmQmbyZQ7ZOcmYCZWhRfmOTVZtnJ7l+ejPuqjxgDGf/h6/l7/kS2iwqL0nEEGee7uHPNBduCDjqWpncB8VEYTc0vPViQMvAZH7VKaNZErr0PHwUwDVUh3DQzIkTyHMOO3NmpXnYFIZaoQxMA6bfycxq07VHHixblWwY7yaYaUEwmv0qq460vJmmnOI50MHki5c0Jxyu4bbMrrO1rv8R7vcawrcGL5KIs7CneFyuR9gze84Q1jpmSJSnndIVVGachxp/k5n/M5I1/nluDoAeKlw49cywcvOeLIUUfOGyizaeVc20G49FHounoprTDykPN0KY1z/HSYUf54DD4GWHYEtiAbOccH5bPhZLAPH6i+2T2bdWTzy8Ha9q5nKkye/NTdMl1AmA5amzBQWD15whOeMN5VfNSjHjVWCpCNUL7jhtbn4q+77rrRhwjzwVWbHEzePJs1QbMc7WOkXpbmT+7OnEfa7JqKIwsZNMCHXJWHzvy+tpEvO8+WfBRftsDLf8n3HN2v0+2ms1wff/7fOf5Dx8EMRpDRGftnfuZnjh74wAeOZ0eeg/hPiYqow5wrbe6Q6hCh41wpiPwqfw3pOflZ0KxPOnCS9AI8dPBg0s8Fld2Lv82kdKDi3Z4Lg3d+53ceszk2qHx4csBshr+7mnjEOSLxOm+DG57C8ZYG6Ch/ZDLQYFc5dQiXQuTNdeEaKY9jwLOvzvZBWrp7bqaRuhuUlzs4ZWlwMqC6pveGi0P7BH5Tm4PT1suVwuwXVgC8lMvf3e1bbvZSqWU2vgz0o7ujtHwB1H3txEYgad1Z/cN/+A+HLJsDrDJ4FsWPxJu84bGi4IOneE5LNgV5CZW+NmZZ9Qj5rL6u56T1G/Smq3NheD1Dt5rht+n++KpM+bF4dTTToeMgBqMcIkcBleTLCSrOgMTQHuDbKQP44mV45zrLObxjKG7mCa7JOUuShzIicKQzmsOB87gT9IsM5+KkZwfkmt2AbG9rP+1pTxsPNe9whzsc2wIaRBpcykc61+Q54uPMiGy76GwftRbtq82+HgEGIJ04funIAfldjh0hnWYZnaOTIN1MUBq6mYla5jW7hfR1ZNfyL49kbHhrZNPZzvlYdRVmnrMC+fJ31Ff4TYK7A0trluj0G9rBgx/84PGMFD30oQ99m/OHPOQhY9Lr2sBiNUHHLr2vOfiyi7sky3bOxSFxaD4/DXm+aomcriaZ/HCG61YIlK8yAjs799txA5DVEDIt05NZHVRXM866Pq4IFiXPHUvHtvucz/mc8Rb30jGO48d93MeNt4uXWfd4U/7nfu7ndsvMZLdUJquOt/CXCnurr3b/6I/+6PgCw1Jpg8eRrMUpj78ugG+ZIR2/bb2mpfL/UKsrD18NoFfkqxLLzG2UkQ3SbRmYxzmdxS+z+1GupzzlKcc6LgPCsAte6X1hgD1e9KIXDRnk4ZXe29rJ/uEf/uHdLW5xi90Xf/EXH7/tLdxb3Mud0e55z3ve+CI2/dj2fd/3fXc3v/nNB3kr3ZeOfcl46dyP34SXHjkn81JBN2VY149yRktHMeoy2/lqsfDS4ZdW/qUR5qvdN77xjXfPfvaz3yqf8kJsxZ7lu+Ft4QsMc7vS/jrXZvne137t1w67qwPElmdBZKurfGWub+Qc1rrEF68jP9COyOEH2kt+gIT9zu/8znFbzNdmOZdCc7rZRvUB8TjXny0T0mHn+kb21k5vdrOb7b7pm75p6JQMPo4Pj/p4z/d8z/EFhvz90HEQd0Zm5mbjiyHHTABcWxeG7//+7x+3xGYrbpfxnYTSh6Vijmf7yIxD2BpkXkjuWUB+a53ovzjpIOU3Syo8AuFm9ouTjbRsuNTncbxr8oUtjjrC8MlrhnzwAP6lIQ6il11Fvvtnl55/xFgKNNO0Vm25Tx7O6XC1bXda0JGuypNtYOnIhu7C8HT3mS02vDVm31HXzhF78aF8DPAifGdB6VLbCfx26cSP65BeS2c9wms74lwLpzNZtR2ynC8Dw+CRl2ttLSqP5JO51u9CBNKQE+QtH7rwS3pVBn6pnFCZ20VrQ5F0ZGmDjtLhIYuc8rwh4CA+lMqI/ek1A9rBZfOCH1H92I/92OCzXrvM7McDR6C6HSW2NruNfu1rXzvWim3PLF6leOkRj2cca+CZHQXOqgJt0X7605/+h1dHR3e/+91HJy8/ekQ1GuBYNnBYQrCObYCAlpg0CI3HS3DeOTJw3OUudxnp2TLHtpThyJbkeGBrmUJ6sPbMvjZA2DrqhVhr5sud0UinIVjntk6tXixdgLVtuiB646uDOK0dL9Sog3V629yzi6UVttR42YGd8h3XQObLXvayUQ66m9DwNbpKR3efGmrAp4f0Nf4NfwTLtPle9aIuOme7u971rmMp62qheg7qX50Ln30nn4H8ROetI89X8x1QFjKKkx6vXaM2I/Cd2h/I83IgPdn5PmRTcTY86Le85Co8/o/92I8d4SZZ3jW08YL+XmS3tJ4s+vL5u93tbmNZ0GTykHEQg5GZhoeNfg2ts+Aw1n795fW5z33ucIQv+IIvGJ2G9150pCqQ6rYfC9MIbHpgfLvJVIgKggajHhZKN1e+Su4a5vMriYsNRuCI6M4uyvxLv/RLYzAyWFjjBpsNxElrS6qvU+us2eyaa64ZDYotNSi8yuj6x3/8x4/ufe97DxtaJwe8vvBgkPL+AhvK2+AtPV0c7dDzDMmAZys4mTWkbOYoHH9hFwP5c4OE5AB7GIxe9KIXHdupwUiZym+tC7m2qHvYbGeiiYoZsTtOcQaj7ppAerK2wehtoe4NRtmG/UDbZG/+4isA16fDm+v/NMg/Qtd8AviENj/fNWgzjgYURzxIG8i38iXPRr1w7jkP4jee05j8ideuQNpLgXLOPlf62Y+b3NmAw7bi2Fxar3EYgNzZm2zxbTIMlHaOZkd1Y3OHF+JtvugrDYeKgxiMGN32xC/6oi/6w5A/eEmT8T73cz/36JM+6ZPG7jIOZXCyVJTD3fzmNx9hDUZ2rPgVr8rLAd3OqrwGI6jCxOOdG8J8fiWxHozMJOlV/uXryPE4l8bjhdcGI9u8m9EhcIfjqwh+3e5O0YxIuSp/jU0+PilksHEXZWs3yKvP2nvfwq8WcguNVmNgO7rbYu+uid2F28k3d941cg31tHaUPx+Y+Z3TF8i73MHIR3Z9aUJn6kdkOpi+c0hXepKhw2rwza4b/gjuLLsz4pPq3MDOjtnyyU9+8vCd09b7GpeaDr86RpAf8BEkHI9wR2Gd8xV1DtLkw6XDZyDQ/5i4WW2wzdudNF5+xHdqi5eK9IHyzH/JF2ZS7ZULKyMgDtmF9+xnP3tsLKLTYx7zmOHD2odzr4G4ppeVjNvd7nZj0mWAO2S89dTinKASUNDx2UlnNLc+6ppzzE410+xgobg18M2ogufwWfaVJFjnNWOOUyYDsmuNntPrLHUEnEw8mRqU23mDzS1vecthK+Fs4ZjdosBZDSYzD8jP3dOjH/3o8cdcPN1ZaSTylyc++shHRyR/YXhqnGSfli6G0/KtkU7ZowkJnZFwZcum2WHDW0MH6FNQVjCQO3DL6gYgS+ziTBp9icMk0oqFCctZkDzIj1z7oLI47+/EYyeq8Mi1OwWdtXjt5Ra3uMVxukiYMpi0NEkRbqeqZWvpfL2kPMm6HKKLOy55pWs6iDMB1wfwTX7MNx09hvDahwHm2muvHRNCk1D8fNxAqd3iVVYDqPNDx8EMRpDBdB4q5v73v/+oJB0nI1sfNUuoY0LSSue8GVJxQfyaQrwz/1lin26huDpOgwBH7K7GgITElU6H6rqOlA3wJwOEN9sSBxza8zfLDr515a6yeHY2oxJOjgHIEZGFhx4aCsgzSs9LhbzT91JQuplCNkp318pSGN58a34GsOFt4RmhFQkvlLqr9v6bu9PI8rGJI2TbS0X1dzGqPp2H6q4wR/Ut3LG0+an02gQqPrnim6zp2LUxPA0MZGqb0pbXpVC6l5cjyAOKQ/KqDE3ytFnPhzwn9wiiO7xsIJ7u+JND5qHjIFofI9bRgrV8L36pKLMTLyrCF3/xF49nFlWeY51rDgQM7zqoyCp6Br7zrCTl5jAo/ZRpLotZWTM0VFw2oL9rcRoNJ3TNljlvthDfLiLP2cxoLWkaeMxyyRJvTdysy1vt8mfj3iQX5+6iTl0n3qCZfpeDy62HuQ73yWAnHQr76jzYht2VgV+xF73njmXD20K98gMdMhtZHuIP2TJ/ZMc66trdlabaTf0GH6ST6+qxdiWcbhHdUJhl8GnpdebxklF56uTZQTxdyudSCchlT8f8TnujC5JnbYqeld97l94zspEBnzujdAX64SObnmTXtx4yDubOCEHOxIBVtmUj67YemnveUcWB8zpuaVXaGniEO+ZEYT6fIbw46eY8obB9cVD6k2TQB1X24oTNDgvCck6883ZqDUi8c/HkcF7HZPiEiY9Gei7kjtMtPkc2u7Lk4mViywWewdg44kU+z+/8LsImB7sXrZ0biHwR2ZKA/OShcRrkynPGuuwzgXiU/uQon2tQr002LhfkZgf5spFOxaArXEeqoZZPOv9xRnWkTpvg1MGpH3bT+fFJwCfcMT+Y61haJMx1sqHzZBc+ywN8ZLh2HuFzjOckgvJG5bcmqK3xCxMy52CgKJ0jkLWWcTFKn5A+EI82UL6AR/k9D/ayrJdctX32UEcmlDYfBbzqjdza06HjILRksCo1CFMZOkydoof4tidau8Y7V2jp5g58jfJAVTzUEZY/ik9Fdw3OaxyXimTsQ40V6IOUJT3McJTbQAL0TS8Nx+YNb2JLU9nEJYvOvkDgDoET2wxgUPfeFkd+n/d5n7H98373u99YC3ftQTTHt63UYOa5lLV06XTg6duAIb/Z/umOTot9/NnccR+Ud6Y17O7yJr61c7KzdfWoQet0ynefjLdnZPNoRmFszy7Vr3apY2Y74cXH27E6S07nc1yY04V96bqG4tdhYT6HuW47n2XE3x2S8mpf2lDhcxuDdfrT0IzCyFzrlw4w8wlLD23zu77ru8YyuzvVwFbadnLX+R4iDmIwagZQRwEcQLgR35e7LSv5VEfxZwEVSH5OX6dVRc76XV/IAymnDh1xmuC8TtjDTA+K7QrEr2PVMOjCKe2wc+cijXhhNSBH6S3DtUvOXZV/v3hfyNZy3+SyE6/liurD7inbuMU72iKKh9O39DWDTvKrbAjwrWmGciKypa/RuXZsK+3lwEPnr/3arx0TGTLoTk8DamAv5V7r9ccBbB2toS74wj7Kx/YRO7J1Az7bZt91XvjJqn5dd5z9WNryFnYpJO2lkDTyBm2FbsKhsleG+E9LyZkx57um2pT85O3zViaI6WTVyCTSf9967WNG9p5tfqg4iMEoYzGu23+dkBdY7aazq46R3R2oDMhxw1zB4k4y/IUqRTqUE2pIOYg0OkSg2xr4Zh32gQyyK0Np5Ekmp+t6raPwlkXIKC10Z0JfxwYTjYjjprdySBvhK88Gg/jkLz05ePA2E6arZy30AemlwZssOiUTZVtyHQs3c0NAbraR3hIDHlAuacmn+6UAP99xlL41etfpIj/lXdv9jxuqH3aKqlv2ch65XlNx1ZNj9c7O6hEVv/aF8q6uEYgXl+xLpfS6FMqfmwgJ4yfpJgzmfE5D5HS+L33IZuziPL0CXq9ZeL/QZMukq7Y0Q1q6pu8h46DeM/I/d52S67/8l//y+OChgcisVmfhg5dm84yvMqhuG6QXWi1VeS+gLzAUD3aceCFUA4DyABWMr8aSUwjjfA0A8ndEOVSY04Q5PvnuNNzpyYcMy2TeERKHJxmdCy8v+jqvESPh9KNbMjUicRxTuLK2CUE8Ile49Hhcg05aGF7ppZNf8ekizhHSER9Im/7xzEdxUDmh9OKln+vGuYFJwzMLBHn2nhFd8Cm3cDJcg7TC5jxB2SF+R6T80qbvHwfM9RCy34VQujktu2U74exfPPuqW/Hsr77yFaStFe6aPySjdCZD4WrUkS9sW5a20cfuQb6mvclbeeh4Of5SmcOcvjjl9iNML2ybmMsHiTNB9yzXblebF7yLJFzfaKdjsIKib/QMWNr8/mCxFOLcsRh+twxGxx9fRMtt5/EHPn/nd35nt1TM7u53v/vuHd7hHUb8UoGD/upf/au7V73qVeNDgD/yIz8yPgI6xztfBqPxIUw8SH6LMx1/lNBRuA8mvulNbxpH/D4IKu94hYlbOse3+fhi5ZivwTm+pbGNj3tWvsU5dkvj2i3OtFsc/K3CUdfR4vjjQ4mo6xvf+MbjY6b/P3t/HuzrUhX2/zf1+yepMuUsaAwxiAMqiqKiBFEGkUkRKwZFrHhl1BBGkUFEFFRAJUoxCDLIIKZEQETUoAwOYBxQQSUSJyyCICiD0ST1/efz61fDe9v38bPP2edyL/ezz9mratXTT/fq1atXr5776WfMVI4ujhXuWTy8+KULyD0a3qnL1T968eHojKaMhfETrzie0ZQmv+JD/PitWBpkTu41Hn2Up9KOtne6pFtlwUa46XgtF+6///u/373jHe+YT7T/8A//cHRBKjca8cYIeLrXsrvUQN7X/Pd+Lv/qRriG0Wt1jv7VLReOpmvlwa1euXS3eoXeEyqn6uOa3prOSfCksMZ57Wtfu7vWta61e+pTnzplYS/ZGBmvjBww2JcX7/JML2984xt3N7jBDWbdyO7VZXUQPuc5z5k6e+c73zn196xnPesKtKMzmhel4kfuQ4eDWKYbhTBxyDN7b6MPTzAarvm3UzMk99X59ujqglGQczYgfWjz22hsGN+UjyyQexTu9L8QGI3pFfKFj2Ps3PkDcnh3pNtoPT/0w1iPaC0hOJjgCdAIRwfQ4c3fTBM/bn7kHxVqju7QrToH/NFAIA7oHSgvPPiVpjyK6z1Et+IK5AH80YorLXmSl6B8RX9ScADGz9LsOwL5dJqO3reynME/hePKbQVlEgbKCvDLvuk+OwpW++PeB9s4Vzdks1tY5ftQyER32h+6gZ3sc5DIqoAVIzJZNnfDiPsDt0DO8NDhICSssaf81fi9u7HbdNkXy+5cszYKMhY04QrxOA72hSswFYP/GE1coRAzUE8NcPIeB1v+vcPicct7jS7/la40GKB3T50TA4xWR+AJigeqON7xkYa8MO41PqyT5BYGxYEALYzPCuKkNxhdvFcQBvhHs6ax+oP0v8bLHXjf+gG00ClA/2Hye+Y6UvmrXOUHXTrZx+tihPSz4vnyH90KxdnGRbcty2wk3RfHe2USjzVudKWf/9UFaxrJ40lGICz/KwPnywPedAHTQ+jdjQoOMzkZ6xIAv043wLJkt8q18oGHDgfTGQGFza3RGNPy+WGde+eMbl0/4gvvDCJYC/ZCDaS420KTvsIdU+BZ+Pw0WqHOSJytLOeD4ienimnGYsTDwKzxemdU3p348nRdCH9P14+49oMhooe+OxCO1tO774bi02Wgnr4REr7SeMJkyC2NaM0S8ZZ2T+FoyWXvDm904goP4xHyiw7ihw9+dEHOrm3hL44ZK71V1hcClZ8Bhie9OsjAn73hST9Xlv/FDHQS7oPVv/oUqjsNNAEdGww1aKH/6ALvPZWVsGi5C0+mk+KFgDRWBHisMnDHd03nfLjCvnB86Qlya2vYrTbJt3H0SX9WOchiH913gPaF/F5HnGRb8TTAQRxgYHSPfOQj563dxPGuQdL5+CaGojVSGihHkSkdUPL2AAP6fiERHHeAYTUq75Cbf2ohCzfjAPmjFdf0GRRvH/DHxwEGN0h417j6wNQVKxpHlVQalqfimzwriKuTbOoOGCz+4okDxBPOkIVrfBmyd2kFdAEBHuvsoRlgOiIf/+Qqz6VfJUpX+0DcFcXHUxrSJiM3/ZQf/B/1qEdd9trXvvYDXPZflEqG5ALiOm3kSPoTnvCEebgFLTrAjbantD3PJf/FAvS+hfQW7KPZwhqn8iyed+WTbbJHuhUHjfA6K+FB7vh4X93iV5evapBOdqChd4CB7TkYsIatNrLq4HxQPlbYFx+dWY/2zDYFoD91163dLjS2POeXEeza4QX15G53u9uUUXztpc8yHJQ6FTCEvsZhGOvuYQ972NygHsqem9j/9t/+291ovOdfXB0ieNvb3jY3MW3SETu0ge8Aw2hkd7//+7+/u971rneFTTzYAQY0cBj/3IQcFeVoA9HTO7pXv/rVu2c/+9nzb6Y2EuEo6Pm0YYjeO1yB/z7EW7r3ve99Z97IJJ9f8zVfs3v3u989Nx/xRlda4olDJkhe79Knj+QQh7t43DaL8UXP/73vfe/k0SZy+UCfbN6lEQ8oHRvOnvRSGH7e05mNXXngJ3yVmzsUPx5kQB9f4eTDx5Ofjet085Vf+ZVHhxw873Of+8z8o5MOt6c8kCvZ/OnVIZHnP//5R2HJtaWN16UA9LXFff4rbMO2mI3SIzddZn/KMf16spnsjA14V94dEljtJV7FV15XF8hHtrEeYFhtRPia7wuB7A2uPPb5O7R1wxve8OgQkPbRoaPb3va281DOy172st2jH/3o2U5q+9h47Sf60RnNtvG0wEEs0w3Fz9ET5B5yzU06RyrNjozcLdf4YNEHX/tAHJj7fHAczTC4+UM/I2mHA4zApI+efMNI55O/0VHpxm9174NhJPM5jHryMQPEq3xLq3doz8P/jMz23CPni2s8jBCLw00WT3f6Wd7EWxh/oylx8OWWRk/+f/VXfzV5j0o2eUB6GAY/r7H/8z//8xnuNxX8RwMzafEX34jNXhaegI7SUzrrPZmTZ4tkSq7RUE094SuMn/x44nE+QBOSmwzpCj+QjOTCF55mWPN8HBwXlv9JeVSWvYf8IaDnbFMYXbMdGE1hYX7ieq7lknul/2BwH0gTbGmykVVesM99PlzBezrb0pV/bvarPmgH1cuf/dmfnf9bcmenvXQ06Sc54wsPHQ6mMzoOGG8NoDvV/MMDUHbAaPHQeJ2LV40iUHBg5QM0qhrXtRKh4ebv3dotuYqb4ZwL8EMj3hbwLB1QntH7g6ubE0zXof+VjJnKpAPiOBmWn5sWTOH70BPgjZc8yN+aZ/7utPILAB0ZHQK0OmQ/4vM/IN87+AW5+PZ5LC3iA6skxatDgS0thN6hMLQweYpDXmAZQme9grQupGLhj0f2sYW1k6rxu9hBmUMg73QAV73yh8cBWnFWe67OKEP11b4rGu9gzI5mGaBjn8pduI6JX3TsubSTs/T4c/PnLn3PlbY85gf2+e2D6su+upqtrrrax0948YV7T659UJi01zS25UJHBqa2Kj7jMz5j3rwCtEn0nd7UU/VHfGXheehwEDWPISqADKAGjAIVjo+/dEQ2uu0fgQpVPIXliU9+20ZlW6iFZ8TiaNB9UOv0VTwgmv/zf/7PfKpsdUrixRN9T3Qa58LQqYRkSO4VxFkRb8alUzHy8RM+a9d+HOhfKj4Aff3rXz/jMr4M1Nq2y1CdHCMjIENy4Is/Ocgnjk7IunNx5A/g+9a3vnWWg5/S6QgZtY92dVp44oEOT/HwTZ8XAslIvt7xSRfxzP84QL8F9MquhpLMGjvlgV5DWB48z8X/tMFx5SCv6SqbAPJOB4A/neHBD678CvdULpV9ZWkQ5dCRa6w82ZnLd7ld2svfiJ7fM57xjDnrBtVhPKRXGUGQvJAbSLc8BMlxEpBOGORmM+UxHcBte7KmRx40yZe8yZw7WMND8fErb/Eig/1zddJ9lexYvTcIdeEx+nTI1rP7/A4Z3p/DaxgoisKBAqA8DSzFahA1vK94xSum8v3AK9pAHH7iVXAVXlChFrfwjMjylyPkT3ziEy/7tV/7tSM+QFyjjgqabIVltBkPRMdo1vet8R4HpasBfc5znjON7SEPeci8O86syLdW/H/v935vpikdHYalPL9md2GidFb5YHkvDrT0Zvbjt+XyZbSqQ9Ipu+3AiTcd4UMf+tB5W7eRls6ou7HkCR9p0b188i/Nk2I62hcWHgdr+JZOfvFVdmSUN40anXpuyyPZLyZY9RPQC5Df7C174QfzEzc/7sope4L0+/u///uznrJL+IIXvGAOpgx0DJA0lP666zfw3i0xcZtt+222wyni2ax3etbyNCDDKpP0gHdusrBBsMoXJuMW90Fx8Iu/esEd3+j4Rb/6hfmvsE1/jdvzOD7FIZuDCQ5DWaFwyIKO6dZ/yNCj9WTjdFaHeuhwMBJSYArTo2swgBNTZiouSvUfD2FbxTIUsPb+FV6gIYJoFGgGrKC4nTpxRNIMYRsXMIyeZCvNaBW82QxkCJax8NZgC6uh3wcZHODGm0x46/jgCqbgdLAaLFrprZBf6eKJt87LaTXPNa+5GbjrT1y+6HQOOpBcIB5bP2lJc+V7ZUD8Fa8sFJeOKkOdqvKpXMgtD/S81eHFCspt3ftjTw2y+KUrQCfZoEGSOii+ZTdu19I43ei3+JZzLe0a2LlJ3sBJhwOf97znzVNf6rJ3v852W7xBkWuxXN4r/jd8wzfMAaG6qvzY+7q8XF3zhGSQB+5WMNBembJkBy0TpgtpqfNsmx+52AwdZfvSI4P32iFx89MOgOywuMXPTfbyBQFa/kCeyEAmH7nqhJwwtqJz17veddLQB3D8W7qV86HDQXRGlK0A6ywonoGb2r/61a+eBuaPr6anVYoMU9wMAYLVHSjA/LlB79Ksg/EnS7MPbsahEKWhAWMIjo/7Jbe12gc/+MHTbWah0GuIxWUAnniTGY+tTAF/4aF4GknHvm9729vOcPKRR14zVHTSVMGNKt3tp8NGL4xMnqD46cEyihGVfDhijo6exVEZNRD07eAI0PBYInWHoJFZcsovmcQTPxmlc1KsLMFxcVeaFeRlRYA23MeLrFC4fAD+8tP7aYM1/8eB8GwMsMt0kL7owEynBixa/nRWHCsWvvo3a7dEZCm9TxUM6vhf/oFfkvhg3TdjviPzKYZfoTigxN9+qHr+bd/2bbNDY+9sVUelg4JmXORYOxflVaNf3oXrJPhrkDXY5Tea8DjAV8dXPgG3epZ+YOl74kc3+XNLc3UXd5VlC6UnXvwDYclE1/5D5htBy+e+2/P9oXpJTqDs6BGP6uihw0F0RgqGsqBCABpES04MmEHzVwhOkWyhOAob4KfQV/AufE0rUGD+pe+/N2YCncuPD1qzAHss/q1kGcEylqUJnYBRnNmbSqMSo884ufHHC4I17eNAZ2SU2D+H8Et2DT7s3RLmm9/85tkQ+BcRfZA7OnJ4lhduN1uQ+y53ucv8aSGog4svI3aiUN5e9apXzZGWm9Qt30WnggA8q3gfLEh7RfnxvFAQx1LGTW9607nfSF5lQcZ0kbzbMjqNsE/+dFgYLM8aLrrNr7jpZxvHU3nriCy7mfU4eerUpe/8zGjue9/7zk7FFUxuCVi/F4OArvHxrgNz1Zd4vuXBw2BQZ2IZz+j/Z37mZ6a9qntOkuHHNj2zjeTjBqvNA2EnAfx0RuKpy+KRF+LJH6bXdLvWm9LiTq59GKy8YPlTPjrX8uopXm2jweEd7nCHmXb06ST5i+d56HAQElIUhTJADRpwVNH+jasuGKtCsNnZaboVKFsh4gHQKgxQATPMIGOqgND7MNaGqtEFwLMCZogaammrIP7t03LDs5/97FlRnDjTkflQLSMij9GJuOcyCP5hFRUPcRiU9fPeQTRAeB0VUPlVpkC+6dWyFB5o6zTEyZDFK6/e0XPLr8MTlu0sZQJxhEnH0zt+Zo94XCiQI/nB6v5gQUer0bzRjW409UC+dEFmeoTsofxfrECv8qy8YMC/gQgdGGz4sWKzDOFs0zv3C1/4wjnzsXdocGKZyEzmy77sy6YexcEnGwXe8RRWnZQm+8STTZrJqH/2Md28YtYuXfXOEh60p1T9KA/sVXyNtLqCj3CDpytbnvi8/e1vn25ymvWryyCe0hRG/mxIfqRd+Oo+KeAj3+IqC/lIl9Jyio6+b37zm09/9Y5M0iBj7QioQ+Z36HAQElIWBAw+xWkgjWidKDPasgR1pzvdaYbDjHqLweqncCqg0oqHdw2rtKTJTyFWWbwrdO8K3PTYEhZ0VY1lCQcrjNoaTaGXnifkB0HPFZITAhXNqTXpO5qMhxGitXYzIKN9fmuDgbbOj59Kyl8jDPCWZ3GEpRNpiVPlpg8V2jKMTVHLf27HEM9hBt8loVf5WwpQcdKX+Pvy+MHAleEnDtk0glCeKx9YnpUpHfFL/xcD7MtLeVdG2Tab6N3Tu/Jnfw6z0BH0t2WnWl/0ohfNBtKtKbe5zW2muyub0Gm46Z190m3pqGPS9o4u+aQJlJElJ/UQsnF7xpYBDYgcMmKLDkcAvCtDaVlNgOQPpLEPg1UfEC/vGngyAHbD9psxkR/gU1r8vct34eLlX10sHVha+aeX0Dv9t/zNj47N9rU9+Mq/pxO2/XacDMlFR3ivOjlUOAgJNWqUlhIpF3gaCf33//7fpyG6KJWBolnpAHd+a/wKG+8VMgAFDIqPjltYBVkYg2dU/MXDQ5gRiiU1y3wMBSQLfuKcC5IxmcJGYlWC3/md37nst37rty673e1uN5cujd5cd2Mp84Y3vOFRR5Rs6VPc8smwLc/h+cVf/MXzmYzpCL08+nhWI+Obhssvv3zOKIyCjRilg650Vr18KIGOVwSrPkPywdUPfe7ycjFBedvma9WVZ7YK0HJr/CpPurGH6BScGQsbcrTYQQX/1kFLt+KJL062J4wfNz/vEGRvQDj70thW7yydW3GQjvpl+c5SuBUJM/aW7EqXDOKrpyBbFH4cBuJD6ZLP4KqZnCUxS+HQL75f/vKXT11YovT0zp8bvuxlL5t+hVvShKsfdyhuuPo7nGD2aaAkL5DM8ty7umjv1x67drS8APGcUnzjG98493wPHobg1ziMDmde7zIK/+jaizHimteIDEOc/zHi/vu///vdM57xjPkPnWFw85oM1wGNRnpeo/GGN7xh9ymf8inTP8Sv64BCtMPg51UlowCnG47Cm2Hf9V3fNf8jgh+aYZzz2pIxI9mNSjGv1Bkjx8mLTGSLj/iwOPyGgU8/eaTyUL744yMd7lUu1xHhLS3/dnrAAx6wGx3IbswUJ/9RIXdj1jSvSBod0+4v//Ivd6Oj2n3TN33T5BmvMcKd/OTPP1I+9VM/dfeYxzxmyi7NMdvZjUo/ack8Zl/z2pH/+l//67wKiPzwCU94wvxf1M/+7M9O2fLHY3ROU1Y88j8piitdfOTLO/QejMbvCrobM+UZVzy03PIrvnjQu3DIHw1/7/RDH8VJltMKyS9/ubcon/K76jd/ukgf/FebZH9jhrK79rWvPevmIx7xiEknrjBX/aDjt/KRhnDP0manbNG7OFtZpMm+8eTvHT1bFfcWt7jFrNOf+ImfOK+6EQed+rHyVcbZ4rlAeLKXHpvH61d+5Vfm/9JGxzTz3XPMkub/tmqHRoc1w/h7R8OPG526VPiYuR29x5MfWognOv4Qn9oxdu/5pV/6pbu3vvWtUydjljrpXvjCF84rzNDU9uW++93vPq8LOnQ4iJmREzaN/q0ZG93ozW1oXv/6159LdEPhE0eBzZEBWjgKZ44QRl6ORjqeRjSFo0czCn/yyK93bvSewxgnbenFZ1SwecrIkVUzBaO1pz3taUd0ED88RgWcG/8BftJMvi2s/skGjRQtD9gg9p1PSyN0QBayojdFN3Pxx0d6M/O55z3vOU/+4UO3+KAdlXXqyr6XUacNYyfr7Htxm3mJQ2blIF/pJH1apkRjtJUfPZGXDvAvLyfBYHXjiw/kPg5WHmt8IK7DJnRBJ/KOJhlHg3O0BAKkI5+nEdJDOkh3IVBmyikElat3dOmajQmzRP493/M9cwkIjW/ZXMyJdtUd2uKPRn0+pVcdioZNxRsIQydu5cO+2Cw3PtVTS3DsX/0THwpHJwxNMuArHp7RhWi2kO7IUlskf6OTmvti9h1dcmwP237Nj/3Yj003f097x2sY9J0VvfHrKHu0whzHhj76LX78xLMkqj0kL7lqD9KZNF7zmtfMI/OO0dOr2Zww8lul8XGx/V436x86HERnZE8kw6HEFZwm6ydSCmU1QAi8r8aZQQbR9QwUmnQB+jVOPDwzUpvglgkZPqOwhu7GcBu6GvExGpudVhVAPE8GvfI+DtAno3QZl+m3qT2e7umTvgot3PKchsGtDOThn6GK64kfv4CunXKyCSoOOrzJveaZXpIFpB9h0hG+6scTH8+Ae8VzgfBVRyeJcz4gl2UOna1GNUhu+lE+q92teT5NcFJ9RbfqGngv79mDE5rs28EVAxL7tT6CdiybTQdr2nSa3cFsT7h39rbaIxCmA1MWQHzyeEfL1tCQSVvgFJkwS3VOtAJ0aMhVWvgcB2iigyC7kB5++X/u537u3LOCjlJ70oNOk9zS9MxNNsuX9GU507P4blEJHXcXR7tR/NyOv1uWNADdymqga//YN5GOx+OLV/pDC3SqthC0W/bADh6G4AcBloqIA4cx7EaDOX/7bbo9KsecSpuK/8iP/MjRlHYYzJxGu13XcoAbvkchHvEJLfm1LAOH0U2e8fWUDh7DmOYy3Wd+5mfO5T/x0KMbRnK0pIDuJ37iJ+YUezTOc2nMMpklPMtVlhnQ4OldvHMt05UOJIulAvHHSHT36Z/+6bsxwp88LVWQ13KCOMnvnX7cbj1mSTOMPx7lzZMcZLQMIUz8MXPYDcOfNwFb0pMverUEQHZ09Pa4xz1uLtP5vTte0pQGmbnf/va3z3TKxz7cB2QSXxrJTP50ze+4ZTo06Lk90Yrj3fMXfuEX5rLIGJUe+bcM472yKq3jZDx0IHcYcMtT+YJ0pOxgYfzo35Me6MYy0OMf//i5ZDQatd2DH/zgGWZ59q//+q+P7KLlM/xW/Xvm5q9st+Fr2i1948MO2TLeaMhNpre85S3TLsbMYTca39kGWLpWftUzsuAp3hbTwYrpSRy8pUk28rZM95SnPGW+y39h5P2qr/qqWffZl2duS+ff+Z3fOfNQnsuvtPAh69d93dddIW6oTZGv3/zN35x1P5sfHdHRMiG6MYuaPPGmN1sY6EYnPJGO/HacvHR86HAwRyyMRIyawCiw+RwFNf2GwuepEidrTGGH8q8wmjUCMppB6+m9UQ0Y+fyA658COvSw0RUeprvS5xcIk2b8bnazm82TRdBI6IEPfOD8FokcRiWAG58t4BtvNNzDcI94r/ID8g0DnLOZUfGmHPw8h7FNfeAj/jD2ucRAZ2jpT5gn/2Z24nrHR375Weow+rQEYOTpSa50FODbHXXD0KcMZl14XFnAq3ItL96Bd+WyBbTpLNjqDtAJBOkblOfytuV1sUHlCOlOOUK6Tf90Y9RvVE4/lun8E0o4u85WLBXTF/uubNgKe7AEiq/3/DsdGrCZyrq08OEmA3uF4vJ30s7zxje+8bway4eeZr0+/TBLED+5yLCmdT6gD7zLB7mkS0ZAHjSj0Z9Lvk60OknYzNH/0jy1BfzYoJOnXZ3F9silvrnhxBK5A1loLZmLFw/v6pKP6h1QqLzomj4cXrI054YUfuk4u4/eu7SVw+gYZ9ghw0F0RhRMqVCh584w/MJAo8jAnLsvHFJ4ys9g+FUwJ4XiAwVY+hVo6XiSF5gaMwjTacZjP2mMzGbceHniU9wg+UFyV/nQqQSm4k4PMSZGa23ZWjJdOOEDVI7SEy8E5UkFiJcwlR+UVm75RG+d2nKgpS3xrG9L0x6R61usRZeOCp8+NASg95MCOaF8pHty4BOvVV9BfmtYcpUvz8pxjS8dlVg6hZ9mKM9rPla9AGHZhCegA+i9cGAP0SlWurEsZilYWbMdiDbdbe0bv8I94wvJQ/eVLfReumjrVEonXvy43Qpyi1vcYnaQTnuqd2y8/JYuyJ5WiGc0ntIvP97jldygzk0H42SdvW7fJ6r/lr6h9sD3VuJauq/DBvI6ZirzhJu4TrMWDw958uM8p3J1+ujED8gHtDXqp7y7k1KboI4qs6A8QXLTz6HDwXRGFMZwMoaMSOOuUH3zovCs2W4B/RbPBxlbhlLBiUueRkTCvXvqFDTIvcMa4/hw977KEn8I5A+uII64QCejA3Cc28jdBaX+79Rtx25+QE9ORloHY0QLVdxmdwwRLzcprB2R9Bl9m7/NHMgszDqzgYDrWlw/Iv8+RNRZiYe3/KOP75qv8h8CMm+RTir3gH+8hCfvSWDljacZZbOf/PGjO+H8k3GV4WKFNa8hndQYcxv4mHVo8PhVFmg0kA7VmP289wP/GPPphb0M6N2sXKeUXeBhxiOtypJbfXKjg/1XswB8xccXj7/5m785srHi4alDMnO44x3vOOXtmyhptoJQviDwvvptUdhqC9zS8pQue/FOB/IOhCUXzK7UDYM2eVFvxIFmQDp5t5fbixIfSl/9WzvVla/3tW2UhjxrG7UHDju4fBYUH19pAnEOHQ6iM6LkCpkxVQAU7qSYBlkhOjECFEiFC9AqOHHr1PZBRnYcxJcha6C5o8ffMiEj4q+wpUNuYUDjb9TCEDMyEG388w+EC9NgooM6FCeHjHg0DDoTJ3IclvA0ksKrJQ1Abrf5OoVY41vl1JnYSPUOMlRp3+Me95hpqTze6R1YCpGeZQMnB10dRC7lJc90LR3p0oO4+Aq/MpBMnvjjgz/AGwijq8plH6ClQ/KBGie8+ePJD+IjLQ2BfBfnYoZ0Ke9slq3XENJB5Wfz2ykvV0wBOqR/ddGlqAaG64Y8dCLT/Y6ePpSmb42mDgzfyk1Z4GdZys0KbMu3RNtNfuhbOp1WswR82JuyIrfOzBK5xhh/eeAvn9nTFqpncAVx8MVHXHzYRzoD0vbRqXBheCQL9C4fTgHrJHw/hJa9AQNNeVEXySY/sIGhDl1nTAZtCXuV/pon/tpGMzRthDpquZJs6XiV+TTAQXRGlEdxUKEoIEtEGn9Lc+69cq2LhlBBoA+BeIwiw4hX4cEaZwv8xWn/o44tPp72g9xIIKw0pEkmKO1Vjt49QXEyPHGkl8F7B7l9yGo2qBM2LbeX491as5N0yRfQm/Xk7qcjJ14MFy+XzUqbPPJUek5HOULPTzz+jJqf9NwfZn/MvljxVx6QO71wg/J7PkxHpe0JPOVRxUQnbbxXBNv3la/45MKfWyPAjVdyQ2nBeJw2KM8wWHUCCq/8IB3QBf/0Lw5dqW/qnhkyv8LMYux7GJUb5bszDvKDls28+xhTHXZjR2UpfnqWpjAXDRtwFt9y8srXjIc9wuT3BOqGTtGeEV6BsofSCU8KaOUVBtKrPsE6BrTZTrokpw921Svthc6ygQ4Ur0GWvODBH19x64BAecBbPPzNtvx2Qxxtgvrp1LH0ALoVTwscRGekQCg9ZVO8Kbuvvd1RZ0Sv0TaFtxGXgjMEwC8jXXGFfX4Bf/GNWtYOiX+Vx5KFmYjj1u6gg46/+jqdcdpDwkNc+eFOJjx6lz/GJq03velNE/FxEawOL74qmE7Z5bD0wS1cepbP0IlLHv7i80fPLcwTHxUijB4dHqVpH0p8NNaiuZPJaE1l90625BAP8he/fKwoPbjPD4oDpYcvzK0yW5JsqaMyhKCyAT1BNCqsuMqS2+jfcy0b8WpEpHFaYdVLIG+rXso3+8xGhcu3/LN9ZWImkp5qaPHexnGowCBHQ/ipn/qpc2/JMq4jx+qrH7/pbPBTL0B1Fn9A9/wMsAyk4oOnp31iswoDOGmv8eyxOEwgbvlP1uguFOStPMP0V97ZUoMaYT3pj4yeOlD5pwtthvZB/nXw0LJmsyMgDA0QLo481JaQg0zyrC4+97nPvexzPudz5r6ZMECOFUE6gYcO/2wIeY1LyWj6WyHFU7pNU0tLOqNuiXbNvBMnRmZoGIARiCmqgnF1kOUDDdkKNhnFq9AYC34gPkABMg5rsK7s0Bn2sRg6nYF9Fx+qadQyEk+VwkWpn/iJnziXPupU8Y7//e9//3npI39qN+L0PYFOqXw3JacTPPhzF6fiYqwZPbmlkSzR8cMTVjGLD4Sv72uc9R1f8QvzlGbhuXuH+0D4uWAbL9mBzlFe42EJxKhbeaFJPyBZhDkRaAnIkoblIPoBKrmG11IRndOlOPE6bVCeQTrrfQVlRQeeAb2zNTZNX5Zs6dtSE70BOkGnY7dUrY7QmQ8qfevGlr1LW7r2VCwh2W+0v4PGErK6Qd940b+/vuIFXL6q/koD4KcTckec2QIgd/54sEsfd/cvJPtIwvAmh3oSZF/79BLQDdugDzM0sy6/TZFP8cW1dH355ZfPNkW9N0C2PC9d8cS3tC7/biO3qqPTxlsn5ENVS5g+ZHcij060Ac22LNX98A//8NQHfvzkOxu316StdFcnvUuPTrWDOidAVm2XC5116JZKrZocNIzMXeMwDGqeyx8GN8/SD2Pb3fa2t53fNIwGZV4X9PCHP3w3Ksn8NofY6Ibh78YIbJ7HHwU5v38Zij+6OiPsOqBRaBNHwR6d/efuHY9hxLthLPOKHemPijG/PeDP7XufH/iBH9iNznPK7Em2YaBHaaAVh+ze+ePtOyMyDwObV3iMhnAiv2TlL//yMIzvCteB9I5ujMDm9wiFpY/o0eQnPTwhd2EwXqMiTfeKxS+NePUkq/TiU5z1/cqg+KWDf7KXd9h3RvRLz5XhqPBHKMx3RmPUvHve8553hbL33YrvojyVDfrin0aQr/IdrH7cvcsvW37nO9959D2csNEgzqug6Pqud73r7sUvfvGR7aMRb8yO5zcwykj5j45p8hBXeLzp1fdAyhGOgdr8vitadWs0qPNqmzGz2o1Ge/e6171upiNNPNCRV/3JDw+8lWWoTo5B6+7Rj370URxPWL7hcVC48sdPfj1/7dd+bTdmNrvRMRylSYbR6O+uda1rzavKXvCCF8xvjsgnnPzSdWWSK8XIRn48PeGLXvSiqeMxu5n+5BVXGmPAu3vyk5882xbXj/lWSBuhbVRP6fzmN7/5tF26Lj327bsndaN648okefBd2Jvf/OYP5PZw4f1DqGsYhmHP55DnCqO6UWBzNmLd2EWD1kddEroCOgjEhfjF86SAxzCKifZJXPdjhDKM9Ig/sCRhWcAsrR/seZp9kXdUvKMRlLjDwOcIfeXjOYxlyjqMcIYlbzIUH6QTNLmHAc6RbDRbevxB6fIjG//0Ey/+w8inuzyAZIovwAtu3dHG+zgofMUt5I93+gDJexxs5ZFXG81mzUaQykJe0k86QZv/+dI4DZAeVn0A+SyP3KMxm+HcgA1AujFD8a8cUDhYeXqyF0tT6Y2O2SZ/s870im+zGeXplJzDEfadHHN2lZVlcDcqWF4ejf7kAcgjPn788KteAWUILV9Z2uWPLps+CchLtlZesnvPEJ1lNCs3lpYd1bbcbYnaP84sKVtalr49VzLjSSZxyW0mZHaj/rquShzXeFnZkX//DjPTco2VtNJf5eeJH75WC8Qz28IDZNuVE90oo0OHg6h5KVflYLBAI82o/dvE0pgTPAwAbcoGq6GACgsGq3sLCkxcBctQQv54wSqDQiUnoweWDhibTquKB9AqfDzFEV4lAvzlFQL80XmWFzKXZsCfbCvEM8AbH41vcUuPTsVf9eOp4o9R2XwXr+vpkyVIVzUSdOE9+cE2zkkgPQO8uPEG+NKltNPncVDaVUJ87DsYLLgSRdwxEp18CqeXMao92iO5FEC+2WvHttUzOsv26QeyAXQgnVluaj9DGdGn+GiV3WoLxRcXX+myHW72xl9c+mfr9kGcnrM86MbqYJWtuoUvfoWzbfEtbfkcJP+TAt7ygw/ZPEtXfqRX2gY3Pmj14z8dqSXI5Oa2XN9Sm20E8ekFD/4G1S984QvnQQ/LgP52a5nRCUQnWC0BthckDhnYZ22GTkweyevgh3QdMLINIA69A/JLW+fX7zAOGa7Ykl1DkPI0JDVwNrnHVHWODBxgsP5JqQxQuDjQO1x5rA0SOJ9RiqsQVZQaWhUFn/jHU+HqhNCDwnIzFnkQ3ykwhl2eQLJUuRmb9IWXB4COEYI6suL2DrZ5U2GEaSQ8kxOdNCD/0uLvPX4MHfbuiSf60ooXiNdWjuMA3XEY4CmP+MJVR6UbrHGjX0HnqvFwbD2+gFvDUgMD+a1ynDbYl/99kM6gPGcj2S0dcUPhePJn2+kQiufYss7eSgH0G36XqeoU3JYiDZ8OaKTxEF950nedlgM29qFe9rKXzf1gezDi+pxBfOl46rSSiyz82YMG3u/Jnawz4ypchyK8vGY/q1+AF3nky4C4egQ80arL6iSbcrejPRgfqPqUQjwDH/ti/nLrA1advbjJXPnIuwMXOiKrLG5jMBOyt+NYvH1yMpBfPHojMyAHOQ0YDdBf/epXzzhmWtrHNU/JLU35OXQ4iAMMlG0zr41MIlG2QmHgvmqmTNN3P9byg60MxcjE7QQ2CU151wMMZW3fAYYKNwMB6BlbxgqkU1r8Vn/8xGU03hlJnQBwmkbFY7yevoVY/1TLIBkRg5MmXnSRTNLCUzpGkIAbZqDJHsgbwFOa6FTMlY58vctvnQ06aXKjwd8TT/kC5BGeLryjgyus6aWzFVa/lZYbxg9/jY0jv/QZdIChBjI5QDxAsnmX5kqTHgrLDU8b7NMnv/zXPKWTVReVsXpCt44O21zXKNITO4IaUocSfHydnzTQVA7i4MUG8dVoumWAraVzy2nqqiUmMy31oPqpUbV0pW474KAdQKMzEAaky27xlI64aK2i2LQ3E5A/8p6rPFdd4SmOPADbAw5FONDh5m6dIVtUr9CT3cEAddPhAQNmbU06N2jVYUmDn3f5t7LihCHd8Jcvtydo88xw5MnJXPLc9a53PbptRR7JZ3DliiaHTejax/D8tY06wtoAB0fIpZMmQ/k6WBjKuMZhjMR3Y0Q1N+iG0iZ+yZd8ye5//s//OS8UHIU9NxddLDiMYW7+oSG+Awy/9Vu/NTdGXWxoM3QU2qQRDs91gGEU+NEGJvcw7CM6OBq7I1ph3vMr3qh4k1Z8G5nSQmOTNvm923RPJvI7pDFGhZPOJqhNyTEynBuOw8in/2iA56amDci3vvWtkw4NFBadzWhu/jaZXRgJ8SpeabjQ1XOMQCcPcfFAyx/yD/mPDn7ykUa8oPfirWHcyRDykyZceXgXBskinT/+4z+eeYn29re//ZHuYAcY0i33vjIVxjY8lRP+lUnlLazyE+c0Qvld5eeWp1Uf3PILuemBXgp3aGE0ivMSTnanXIXTExRnNIT/5ODKivxtuKur8Od+7udmXGWjfjiEMDqb3ZhdTPrRuM7/bCkbtsRW7nKXu8zNegcF/D9rW67eHSYgGzf+Yza2+4Iv+IJpP5XrGifkF/aefeDJFtThMeuY7YkLSNGUf3HQ+7cZXY0Z0e7lL3/5PNg0OsHpN2Y6u5vc5Ca7P/mTPzmSD2/6po+P/uiPnjTo/YNNHsfgavp91Ed91DyspQ6MQfaRntP56FTmf5IcrFA/k0mZCae30WHOS17984ms8nTo8P4h/DUMevwhyxwJGMl4N+ppndMIxa+9zX5MbdE2whqFMEdG3EYE+eF1ZQBf6Yfe96F0IEBXup7RGEXJjxFJtPyNZsQhrzV4MycjPkuS8mxJSVwjpfyMlNCazhslChMPP2mIzx+tJ1mkYzRGl57iCjdi4hYPD7zEwcu7o/Rk6ClMHMsOaPlJD3/03skZH2HcJ8V4kUma8im/6QJWtvR2IWBUaS3dPV/sRlr0AdhIdoIvnaE5rUD2rfx0FgJ5DMFoHOeyLD2MxnjuH47Ga9pfZa9+QfaBjzSKb3bjbrTuTHRTh1mV66vMJvA1o4iv+PRv1uPTDUegfdbBtpSNNKWtzqAfA5EZfzToMz18yAnYROVGNnGqa+KOBnjSpZf0sCLwxKf43PzEwUPa3OX/t3/7t+fhArO5xz72sXM7wbdRbqwwa7Tk6H46OhMvWbJdOhFm1iO+pU2zP/Fde2aFSFr2j0bHOnkAafO3nOdmh/4sLdwRfAdCuOkj2ya78h0DvcnjkOHgOqPVQBiGbwgs0YwR07x5AGZ8azzvps/iAP7xOimgr8BXzH8N45YGWP0yZu8qnQpTGATrE638wOKj986Q7J35XgFan7cMoUIWBzpF459H1tzRcftt8Rg1zXD8gtJ24qdfInvScZUcjbT5+YoeonN6aNUrd42ENFQw6R0H4u1DfNKldzrQUYL4R3uhQAeWcZ14IiMb8SzN+Kaj5LgYoLzt05t8rmVVw1UjJg77NUgovmc2l/4cKtLp2HDvF+HQt11uDaFXjbdTYnVobN7Aw71y4jq1Z7B0Lll7krFGvvqvoXUCzcfXgPzJGKzu0lkxuWo/vPMH5Tm+Tvg6gOC0HPl1yJbcvcu7TsahAstpbpLwETGZ8VdXfcPlVHCHFvzzyGDPB7/e8WCnLim27wySEaClXzeivOtd75r1Xn223Fd+5Dcd6Ax16IcOB9EZpWTK04vXAAH/u7c2awTlyosab3EyGMhf5YHxK/zqhmSBdT5gTTu/8uhZODcM0KoUOh1Gz7gZvFmho+Q6Zh2HyqFSu6vu8ssvn6dy0Kog7qmiN3ox26hxzzCtJRvdiacCGKEFyWhfwMazSuNp5KVsGHi6NrImByCTMGmeD1bdyCteID3wI2v5pBNxSutCQFz8lQ355EE66fkk8l6MQJdmIWa39FE50HOzGW40Gkc0GtV9ZSCssgPc9Cquj8TtZ6y2oQzoP8S/uoNGuvnrEMmWjMJLizw6IftcBh1sBqIT78pA+cOjfR7yskXpklO9w796oH4lP9TR6pzt7egs5F2e6MKg0sxRewZq7/AujfJPBs99gE5np23Ay0GK4kA8kil9HTLsz+WHGCgNBgzA8gC/KgWFKlAIGKFCZJgMlvKFUTq/DDb6C4HkSaY13aC0KuQ1jrAMOh4gIwFoCmPM8iCP8mVK/853vnMasorlyKoOR8fsZJLTSkaCRlk6FN8+MW50lkue97znzY7DyEwaeJCT25U+lhVUpn597HfKviR3XNXGsRkRw7aBLd0nPvGJRxux5DMCU2mACom/o6dAHuj+OMCjfOdWjngAepMGfxUc4hleKFQWOk3ovQYEP2HShtK8MmkcCqTPYLVRblDdgGzRoMPoW3mKq/GCwipH5QOz6bUs8FZedOvpXTy8vLMLaUhfvS7tv/3bv50nzxwQYHfsska5fJQXZaNO4Ee26go/NJb32IlG2dKfWQq65IBruaYX+VkxP/HkXzx6QS++9Mur73uyKflDi46s0s528WNrOmU80OEtTDr8hHOLR0ee6MStjeNXGaRzy6KWn508dFwcH2FkEE6eNa+HDgdV8yooBfT2t799noqxf0DRCqPCXHELFA8riA8VVOhwH+RPZvkA+SVv+fOuwTfq8W6UZdrvWwYXV/q2wPLTe97znjmVN/NB4wi80zy3ve1t53+H7LswZLxb+9a5Ow6qQvt1MjrLBJYILO9pFOjespy16W5ONjNi7EZ5KmL6JXMoHHwwhl+54uFJfvpIR/wuBNAnX7zDrZzl6TTCmq/joHC6ADVY+UH6BvZpnfgCaOiqMln1KazyAfzwEF9Dye6Kp26zQX5slx2yX98UadTBqn880dcJeMcbr97Jwe74uR7HoIqfeMlVHs8H27RDICzkp8H3xDdMJ9DJXx/02gfqEmL04tNHnStQF4tX+7fyEsdTByavlubMAi0X+o5J/XQNWfSlww3yP3Q4iM6I4oACUDAKyjqze53cNu0bAgXBwBgBOoWi4MTlX8OiIKo4VxaSZx9UsDCjQZ8BQGEZVUbAn0yejXy4QSMsIKwGwfJJSw1VQmj0ZDRIV+KJ04jKKK2RqPT5kYUf3Ym/Vmw8zELp1wyULtGUNzQ6O8fSje7c06UhEU8aeHKbaeGRH+Be8TggHzlzw8o0JLNnujkpyAv5yObpnSz4Qe/ShnQCL1ZYy8FTeatHDpGwM7qF3EbdZtjo2AGgf0BnobraTJmNeUIzdTzEbTmLbtGYLRkUsW9lUlmzZbyEKZvslwziJocwfEB+5ADeDZbkrTJe8w2SHW3oPUBbXPoofnUaZrPkX2d88olWJyv/ltV9cyRv8imevBj00QM3HuII985NHvzx5AfpSx20/+k7LoPFfhcjDkiO8hRK99DhIDqjgMIVmqdOyLLUl3zJl8x3yvV9ESP3rgAyVI1fFSVQAGjEu7ohQzgfoCMno1vjZECAP7fbfp2mMdOxjFI8FV2FTU9ouaucjJVevKdP8VUY+sjgV5DmNg9oVEa69cQTBhl7jVCNARrpXAjgA0oL4KMCVemll/4uBNIBxL+801tyrn4fCnu5poEe6TxbYRPZlHrnZNYNbnCDqevKA312ki3Smw6rGwSgpTKzeNfkCNfQOi3mgIM0vOuc2Ld9SrN5jatGVVw8jPQtQzsc8dM//dPz25tmBXgqIwMoT+/5QflxslM4NwRb+96C/GWH+LA79iD/8grUoezI4Atws/1sDL34QJrxST7XHlmNcMLTMnvyoRPXQE964pZ2dUAYHTq4YGnOt1vZcLKDdAKV1fnyfihwEDWPskLKo0QG5XikpSa/KjDKMNrhH53nakQrn94vBNa4QX7bsO072MpSXsBqoBAdv+IUr3ypfCqj5TPGWFqejMgOaLwAAKasSURBVDQenj6Yc8DD/o+9Issj8ZTGGj8/Rq4SJSP/Rmj48w+9g/IgnvjiqCQqG0DLr/eTQpVGXOl7TzdB8ve8EKgM4tf7hcp5yEAv4QryvNWj/HsqO2WrEaVv6Ii1pSXH6uMnPl2xo2ygdBwecC8am2OHltx8jGmp140E9jQtIRvFm/Hgxc7UY5vuOi6NqoZZBwTxYPc6JrMKbUB2tsqiI7AU5jCOhlq+oPDysw+SHaQb8dggu6YP7+KjjS+Qrj1ae10OCDnKDnXgobqIl1OC7RWJx8/eq/8PORFHZx2FF08bZ8+XnwGe/K/tHdmAlYraRnLRg2V1y54APZSu/OmwrKQcOhxMZ0RpKS8D8DSVtaHu7L4LTO1dgEYo4lC252o04qpo6/txIOyDCSfzFkF5AKs/v/V9BXEYnadKy4igd5XZTERDwcgBI2WI7sky0vSdg6/oVU75pxsjOrrCVyfHiL0bkb7tbW+bSwb4ftInfdJMc9UbEM+BCmVB5kaBoM1j/mt+V1jzuk+X+EMNjnIs3BNPeeTGQ3iw0uUGqzvQGOCPB34wSL7j5L8YYKt/yE+5G1y07EtHnhp0ZWx/QjhatkSPlovYkNkN9M0Q23EDgUZWmKeOxGqGvRzpsTk6lgabBI44W/q1ryIexMf9bt/8zd887ULalbtnZUU+nyWwe3RmXHWu3qXpCcRZ874F/NCSUUdQugC9cHpg6/ZtHb5wMar8+S7IE6p/3slim4GuyEyfyaSjdWjDvpITq6HfSuiUOtnqZgV7QclFb8oAAjKZKRmsO2hkPzeZPZWVdMliKfbQ4SA6I6ACZKABhbo+x4jLiN9BBorlvzYoFTZc31dQcKDC2gfCtuHe8asSBOfiE5BhGwcfBkn2ZFp5MzhGBBhhdBqN5zznOfPEnH+Z2KjVOQF3Uzk6a8nEKFHFtizieiTxdCL0y4hVdKfj+Dt6qnOHL33pS+fFji4UBehDldCHidJfw8hNPhVCGlsdnQuq4NtySUegsH16BIWD1X0cSLO43GAth0sB0q+nhlud01A1cm8gQufqnc8EzD7YAGCTZjN+Fw59emA53bKR/385dMTfBrvj1uJp3PHX0bDB0iEH9E8vswO8xIc6MnHYGRAHkI1b+bWHosE2GGPH8mUg1mBpBXEq9y3Ibx0xvjqd5COzcHVG2mic2NOJktV1R/LsaVmRHnwHZClP3HSOpzxpwxw8cAUa+hAv9bjPObLLNX4dkXIAOkQdt5kSfdNr+azzA8fl+5DgIDojys7IKFuBOSnia2R+9o1M6U1PGQVYlSw+wCMDyo+7xqxnxhyukB9ecKXb+gd4lt4K+/zXeAF+ZEqu4pG9cBXFDMZsxiWNKralD98TWeZwjPvGN77x1JP18v6uiY98442PhsEpPYbNgC0F6uSNbi0bGAn7mtzaNh5uTdcBGuladiEfWciGH6gSg3R0EljzWbmmi1UP0YD057nSBMX3hNGkX272BWpgiy+NldfFCPK34lonVrBvwzY0dpbHAyN0M3OzA+FszjO3Jajc7IiuoXoN13ILdIhuV3GjARS/S0bJpYFNvsqUTDo8N19r3MXXKbFFHZQ00R1XpsmxRbTZh7SK65ndB/ZuqnMruguOLPisaSeLJ5nFT3dQPHr1NGhsMCoOTBd1OGaFv/Zrvzb31FwGUP0E6RwP+ShPhwwH0RlRrpGMxoHSVBBHl009FY6PMvnzgxkNyE3hCkvc1WC8ZxT5oxMPZuSF5X8SvFBY40lvlSeUDyCM3OiNyFyLogNhpPKiYlj+8M2QzonRiZNeQEaosuONxgezlgNUWN8xiW+JwNfylgcsHdi8tuls+q8jsgxoo9mSCv5rx8GNP6wMymOylG/ID5Z/uJYZGats0RUHrrxAPApbdZkswj3TbY2KhhWIC+JzqQC90wl90zuQf3qwX+HIv3c245YDOqwxhOLyQ4MX5MbLs0FKM4LKBKAF4oNsp/IHeKzlCLjNfOwxmck7desX59JCIx0zPel6r0wh97aM0UDph71LC6382xtzu7gLXl0xpZ64WcENKW4/uBB0k8k+FIZ3KK1meOTQPnp3WlCYlQqfebjItb+4ls/aPHWY/PJ06PCPrfY1CPYtWnLS8DJGDaIpq+UoSmVs1mR9oAky/JTMcMTjt4L31Q99xp57LagM9iT4wcAqF16rjNz5qZxuITelNyK1Hu3bK0B2xmkEpMLXoDBE+tLYosHLngB+9FsjJN/uthKf/sQXz6hNZ8XIjT4tlRp1iS+dbd7xtFTXTKOG5soAuchRAxQeB1vdAfT4rCBfMCifpQdK91KB6gF7YQNsSVlym0GbfShXgxYNX3pKd8p51bVwNucJ8fesDNOt8qrMlJ/0k4G/zkba4pRWZYeHGwx8/K0BdzJNp2TmniziJiubzH0cSFNepAHxAWQT1xaBZTOHFixROj1oaczpPzNIftANKS17r8g/Gu/iQXz2YWE+abFSQQ66hPKvI3QwxKyQ3pSbPCu7dEYPOk91mPwOlBw6HERn1CZ4jSjjMNLW21u/dT+dEbyTJaazwil9RbD1BwpFAULuDM8zjMZzjX8+/GBAWmH5Ti5+DE8aPh60D+QiRXk3M0Iv3EjKhqm9IVAetnzxVCnz8+RXpxE94E/fvmRn3JZaLOEpDyBdtCoIrPERr0qQ7Nw9t7jqT1y8AB5Gtb3vowu9QxAdf/mKxmYx2zGLpJ8g+lVnxblUIH2mLzqhD+WpHCwX+d+OMHcd+mWHmxO8K+MaebqzJFy87MD7Wn6g8pKORpRdwhpT/gZCeAR4SU8HSVYDV6N9+6JmcE63aT+iq5zJyd6lyY8sMLvZh+J44uWpzbGP6gNx+0BQmjomT51U9/GdBMXX0YgbvxCv0GqQU4i2JsgEayMtYUpfZ4WXTtzhBct2ZJZXdDpoqxkt3R88jMK5xmEY0O7hD3/4/IXEMMR5BfqtbnWreZW8K9h/9Ed/dDcqxu4Vr3jF7sd+7MfmFeqjcOZ16aOhnL+QGIa9G1P23Wg8Z/gwWrVg0t3mNreZvw2QDhwN6NGV8OJ5z39UoBl2UhxGe2L0n38yQ7INA59Xu0u7dMkwKua8Zp/7sY997LxG3pX7o8LP/+TzHxVyXvc/OvLds571rHnlPRTmyvuP+IiP2L3qVa+avPHzKwZx3vjGN84r78cMa4bhJ95LX/rS3RiB7n7yJ39y/uNfGbjWXtx3vOMduze84Q277/u+75v/2f8f/+N/zHRG4zHjk9WT/PzwW3Ukb2F+9LECv3RRnLVM7nSnO80yVbbwPve5zwyLlht9uOrVk+7kX7r5KXv+8shvK9NpgmxszcPWL3f6SreViTJU5+iE/pTlW97ylt3d73733XWve935u5bnPve583cidCYcnfIencPULz7SEJ6tpm/0pUv36iTbkR77hOKgxxOPyom/X4mMgdf8VcQYlO1e+9rXznAyoBGHDPhKqzIt/fK/D8mNBnJL+zWvec3u8z7v8+avHeSvvHhKS7re099JMFlW5BefwqWhno2OZNbLMUCbv43w/NIv/dL5uxXpk0u7d7/73W83BqxHv5nQLmgz/UICHd6HDgczDByFMEdIo5Dnu5EAt0MMPqCzXKSHNzJaR03oAH8jhGFYc/TDnx/wDoQBowYjiHhxA+/cF4IXAuhLA5BLvoPehyFOXXgvHbMFcg+jmmHk7jjuqIhTV/xW/mBUzqP9JssdoHD6EBfggyadoSEHeUbFnMuE9g2cejISHZX96JQevp7AEyY3yN37PiCLPIyKOPPtKX35BfwqP8BdGBAOSkMY2eMTFiZ+eQXZ0aUEW1tU/sqOfUF6sv/i1JgRuKUex43d4o5OfDql43W5t3IRDisbcap7AD0/9mMFxOidH3r7Ij7Wrh6Xnk88fI8jjWTEj52TpXoBKu+1LQD4JxPgrt6pD97laXSA89AQIBse2Qka9GQQN1s7DqNZbfh8IA386cxsUT30DvCRvs9eLr/88tk2WrpMPnWpzzHkSdqHDgdRAzVyGjfKhwzMhqELQU2TrQu3VLQ1LO+MsWeQ3wprRSmt4nheKIL4nAQZEORe4wPv+csfw3OSbcxO5p4aXegQ/M3SFSPWi+3juBbEJqoGw8k63zbY3LR81wezdOvoq2m8/SZ/z7Uu74of3zvg5xiv9WXLgZa0uA0ChDnW7Xgv2U39yYiv8khmqHIwen7hcbDS4FvjgkcVOF2tWBlCNJ6rXuNdQ2EJUx59oNhghayrvfSM76UAlZmGiq3RS3VL2cLe7VWqg2wMOILMNu1noKNXvNIf/bMD+md7GnWNY/ah3Ljj33MtDx2KBhitY+N+bc7+2aQDO5aR2T/AkwwwfvHKjno/F2RHIB2AdCId+cFTpye99FQejsNoVjmy6dJNf+u7NBtsehc/Po6A+0jY8p89dh0mmniLqxOvIz90OIjOiNIoL1AQRjqOMVu39hMpBVAhgQrVM9wH+W8LfsXCossozodr3JPgml6wugGjaYbjJAy3ymeEZsPWCR5o7d7asXVzo1K6sodkv4dRGiXZX1Jh8HAIwsjWSNcoV6eCnj9+5LBW7fsHHzD64JAMOjadoW+XzIiUlTwoDxVxzVthvRd2HKKJDqz+oErnvTLeFxeC9VkZ+URAY+ZJD8KyCfKuaRT/UgB5lWc6oofsWZnXuQD6gY5cs6lb3vKWc7/Gje8u1jWI0dHrXPDc6rA0Qu/pujJdIR5maRpgtwr4bseH3GzV5wxOdvpGzsAKT/Q1uPEPtvKANd3csLyKz7bJkL9nnalwftKD+3isuIbD42CfrPx0fjqk+Js16pS7Togu1Fm0ZFvToJe1PA8aRgaucRgGNdeBiRPe7GY3240G9mg9H411Y/tH1lCHEcy10VEIu9/5nd+Z6772NYaxzn2iYUyTBtozssaKFxwjtqN1WW7ILZ1R6HO9+SSIVryT4va343e4wx3mmjlZ5E/65ZWfte/RCc3fP5PfL8rHjHH+CrrfZ6OXJ3y8508f8RmVevKw98Mtv3SJJ0Tvaf3ZnoEwdHjGV1y8vcs3OvTc+KUT6ZFpzTc/uPrBdI9eePs3wlY94Pu1X/u1cx8r/Y2GccoVLzTx8i4/ZPSL59Hx7kaDdhSOL3p7FKv8wujtNAK5w2DrlzsdQfqVf7ryFE4/9l7YQfpBJx6djVnKrGP2JcbAZ3frW9962sZaxum5MoTcwvCD3qOTLhrpQXYwOqDd6HBmff/6r//6I3tkJ+RTH8gTH/J6F1c4G473mv8VV388yCV9co4Gf/72/KlPfer0l0c8hcU/2rC8rriGr3rh3kcP0b7pTW+a+0DZ/Oh4jvZN7R89/elPn7pAi5/fjqOr7fuET/iEuWckDM9Dh4OYGdXjw0CP7wvmIeOcGg+FzktSjXKHYo9GEcOIpnsU7By5NAJALyzeYBTQRBAdGoCHOGiNik6CeOFzUix9cb1Lm8yrDNzyQhbLFHRgPd2SmJM1PnY1E/JOR+Q1gvOOvjB8R0WZfIyMfDFu6QN/cazTe0fL7ekdr2ZT3iG+ZlvoyI2vfAgrH2QvX5UN8B6s7hXKv3S35aOsRwN0VDYgPUJ00ZYuOiNCeUFD3nSLF57iNJoWRuer3Bc70EW2p9yUP72MBnbqQvlXHvTJTz1kB44nu7bGfq4Pps2M3ALiA0y0dJtO6T7Av7qb3pVrfmTxfY3lZkeXHdm2nGyWblamPMkVskd8pCNNftFkw/hCsLWV0syf7JBMIcAfHXunq/hJu3YgjMeK2/DSW9PcIlq85ZGd8iOPPPnA1zK8bwOz4RXEg/iTXTzuQ4d/NhR7jddAyrJHQcEpznKANVFKtUTlS3BLAvZK/MIYEN2Xzq7ScNuw/QFHJO2hrAbjw1kGzlDxFqZwPRUWN8i/9/NBaZwUnPe3tAHk09KHo7Mae3Lit6K8o1NZGSEa8qsYEKDhTpb4ZITeq5hjdDcbIO9gG49+pFUZgJ7iovWePCpC6QB80cQTFD8o7Dia/MmjHKRlydblk69//euPOkK3PLsWSf7FkZfKFFaOv/zLvzy/89B4eo7R82xQ01sNDajz2sp8GmCfPrd+vZdvulRmylG4d/6rrYnjyW5gtEBY11D5BMG3N7e61a2mP2QX0nJDgCVlvNmRcpGuNCwrWy6WJnodm07Ocpx9YuWkjrjpAD0e4mfP0vGeHUB0/JKRu3cQXbCGkUE+5dE+qSPU9sp0jtKIhhzyIO7K66qA5LNEbgnOcpx6QJf0r210IYABBCCHgwyuZXLVFxrxLWP6LCTdrfk8SBhCX+NgCvzQhz50Ti2J5Gnq/653vWtOL0dnM5e1TNuf+cxnTppwdEZzOj0q0jy27Gg32sK58TsJjsK6Au8PFZIRSj/cyrUP13yG/MUZFWditGPGNI/Nr7Tij0o96YZh78asax6vX2UZhj6XY/Dkv/LOb+VZPP4nxeKsfPiPUeFuzAx3H/VRHzVlIEth3/It33K0TOJpaWY0EHMZpyUjaJlO3kaDOd8tx3mOBmUub7ztbW+by41skN+o8B+wytMF5A6Drd/6Lu+WMi3zyHv+dOg9nUI6g9yOV1sOo8OWql796lfvxqz9CuUXjoZx9/M///NHvC2jWfLFB49HPOIRR7TZA7elMWkqE0uIypU7+ZKHLPIgPORHLnSV9QrlNVwBrThwzPTmMt1TnvKUo3Q96S47gmzwpEguKP6+8PIlT2Pwtbv+9a9/VEfSk6Pd9EceKA9f8zVfcxQeqs+Ov5N5m89DhIOZGTkdY6Q7CmOOSvT+jnMbAdic784rp0csCRi9DAXP0RMaBx1sxFtCQD8ayskbzUmziO7qVMfKWx5XWN9z08tJYRjrHC2OyjHzHA9PYZD/MMzpH0Q3Ope5JDAqyhVoip8s0YOrUlf7+Ca3MLJXlt7dneeEYEA+tmOk7uix2aZ8uD7KlSnu7jMz8h8Z8fGJJ1uhOyBMmhc70NdoyGZe5b8804uwtQzohF3BZjQg3VlKc6+heIVx22T3oayRuZlRgF9loM4qJyc7+10CHlYNLEkrU2kqH/7SXCGbWIHMISi9kwBepeEOR7cmOE1qZkROMqCRP3WmfJwU0G5l2caXPnSi2MzIio/0gDy5q9N2hfaRjvHjp91zW0r8HVJygatj3+nikOEgJKxA14Jy8ssRUqegdDhO0DDoDMWSSksGq6IZSBUCxPekeE3BVo7yeRzIdwjWuOlk9dOQ1MkIK64w4Klx8iwsvVYRrk4oXWmWLh2QmezJgAbwHyPJ6c89RvnzDj1H4V0X40+b3JZa0Fjis5TBvabFhjR2pXmpgPzL99qghulGPVoR7doZ5e/o9+1vf/t5/Bu6065f5btJwJKbpVGow4H2Qr0bYLqNwLU6bjnwDyB13X1zlbV0kzPMTgoLdVqe5IomPlcHrLKcBNNZuI9mzc8qO3rvBlg6Im0kHdrLMljXgW9BeZ4aGMJe4zAak6PTdEPZc0o6jH4uzTg9ZzkBjen6GA3P8I/7uI+byzduYPiN3/iNOV31dfZNb3rTecIHr9OOdHEc0kG4jTeMdi63FYa+MO5h5FdYZvO0XOcZCs+vuMUv3ZXvluZCsHh4JtfKD6LjTybLbve6173maapOArKBUSGnzcQTL3aUHtwe0Qm80dHNJRlutsXND15KkB5Ghz91AblXfWwx2miClpn4r0tIW+RvKQod3Vcelq8ssSVPiAYWX3iYH7wqAJ/SW0/TSYvchclrMl0IrPJCfOPJHQj74z/+43majj2zYXW6+snOnZ6rLOjOzStrnbFMJw9o8Dt0OIjh4FD07PVH4zHfh+Lmx5eWXG5zm9tMf0sBvr72N1Ojn/e9733z62Ig7iiwOS213OeXCvzQ4X0xAh2FK5TfYaBTb3RAF80kha9xhw1c4T0/+vSEK6z027CgeCfFAM9RIecTkCHbAPzlx7KJf7cYXRupW160metwAnr+4sYPiBcdmlFB58eeQWleqkAn6dqT/oLKiY7YlSeabfmJWx3mhsJHI34UD1SuoHSBMoKWikujsGA02qe6rMgebvW3D4SnLzoElpxtTbhEmj7Q0Fu6X6E0zpfOIcBB7BlRsmtG3Mqt8aB4e0ZOh2hYnCpxEaCbgx39FK4QFJKPvSzn9c9+2XHTgJN33tGsFeu0Adn3FVF+axi9rHnOONEIUwFqnNNJ8Usnveq40Fbxow+i3wdb2pMCfqs8ZPaEOg/yyJP9Iv+CIRsa4ESWZSHLumg0aCsvDaOlIDYF5FMjqZMWjpd43JcCpBvPNc+rey2PnsqAzutoagwNCqIB6TQb8l55ArR4eOfOH61y0bhms8LW8JVPT7C6ryyQRRrguD0jIF/cqywnAfHK7754+AEytAfulm60xdMJOWlsYMWP3b7iFa842mOPr20Nfl2jFu+DhZGZaxycynnQgx50heUVp+l83Omkk8s7R+MzP3B1KgwNtATz6Z/+6fOiwE6gDIOZU9LRwc0lGdNp74eMw0DPifK0D5uiWz7wxMsyB30K5xfSg6k8RC9uvLl7dxqJHvFCZ9kl+jXtc8mV3BeK4pan5ElH5CeXk3LKeqURzwfPTlJmG2wpe8o9GpYjnquspVvYpQDyKb/luXznXsNh+lrDPJUFm1nDQjpdy0oZQu5o8Fl1X3pQPPYqHH926LmFeK14ZUFcaUjfSbTjlulyX2ha+JwrXvKj8dHrGGRP2x0dydGSs9N0ThrTrVN1Pmi/y13uMtvG0YnPE4xobWG87nWvm7xOAxxEV2l02ohDLz/kmiMD/k6H/NIv/dJcnjOqdZIOoEczjHu+D4XP0fAo7Pku3ImqUZBz5nWacBj6RHmC8rRFeacn0BOs0/V0ip7bbEdYPMHKB3gvbDQCkxbkfz48Kd0+FDfgljYZoHdl2QgcGukVLv4K5Ukc7g4qpOP4pWdusOriYgd5Lt8rpF8QDV03sqYvOkyvRuiATsPKYy0vtgnBtry2NiBNNit+dlzYaYZ0eS5IF+mDzuiZ3ulRfDphu04xOgDiNJ3vsU4zHNy8jeIVmGOKPn4DFO2kiI9X3Y9WYWb0KoY49gSEKSSdVIXmechIxn0oT1vcFx+a0ttTczzeh7UM17FYT+GAGwK8wLbRKe384l94WDiMJroLhRqr+IUrkEnDpFKCyh5deV0bq60sVez8udkJ2JfexQ7lecXKYYXCVug9W1ptFaw8+NF1ZeNdGYB1kFHc3MkSLT/p1EgXfhK8UEiWLSRbkHtfmschWPkcR5Nb/j3leQuvec1r5inRm9/85vO349e97nWnPuMB4rP6HSocRGeUomsooOOLvh7WAblVgSH6c6HjjBllimfURvyOOOKhkWmW5F3YhWAjuGsKNbqe+2QL6UDeILd1ZV+Ku8niuc997ryFwqEPuqFPuqozQg/pbu2cvCcDQFNaVyeu+TjOP7mSrfIX5mlAAuSjeGslpAd5TX/5lZZ4Z/BPYdVhQF90SO8wna867F04wEOZefKHlWFlXLmBeMPiVNbiXUyQjmEgv+lDftl3dupGEoNP3xhxd9t+tKvuVjx0OIjOSAPDuCnajEah6IScpvviL/7i2YigccDBR3QakRUs54mPzggZeK8Buphha8TA1N1HhDbzgVNmjJQOzR7TNT/6Yuj0VINeg7AC+uNwC/tozoUqGVxh9V8bqMrYszJH22nBOiv+W714r1Kia3kpuirypQxrucDjQJnQ/1pu9EeXW/tBx099rGFE16Ar4Kfc8JG2ONEWD/0aB2xlhqcVyE6ndJZ9yzf/lixdoeS2fr/QcKrUwBtdQF/wtMFBdEYUncH11Lj4WM7Fn0b5jmz7JYKLGYsTKiCFoVAa7dZBbSvGxQIZXPqiB42xpw9A3TrgR3jf8z3fM9FpRaeC6NEM6uEPf/j8HbelPVN9+hP3H/7hH2bnRY90BzUONdTpPBkqM1hjFM1JcQXxjwO05KnT6b3lO7Ikw/lgX/rl91KFVSdb3YBtmHq20qS/lcY7Olh9zH9Lu/qvuA1b6U+CFwrZ84Xa0UkQbHnvC19tmd7Ydx2TT1jcJmKg7kIAdcF+upNzAE0IVt6HDAdR81J+yvOsAfzLv/zL2bC6EdiRRl96g1XBnuI0Y6rwFNKHwngPBeSb/PSmU3GhrKm8mRL9WWP2f5jwV3/1Vy/77d/+7XlLgefv/u7vzr9DWuaky/RR2WwrCfDc4tUFZGmgoQMC3hstk4t8FwLlEdTYncE/QvpJR8E+/21nwV2H5anMooluhegLK9654lwTkGxXBcRr5akOVedA9l0ddDn0ve997/kTTANH1wWp45bqt7DlfchwEDVPIxLUmHnytyyn0XR+vusuGGiQ21MjZd9IR3SpAV2ZGdIbw3VFi5mPG5XpzqjJsqf9pBe96EUTfZ8l3E/LnMjx0z3fcXVHWAjSs9GZ5by1zICG4mKeiZ7BGXyoQQeytnWWldUxdU8dNGA0kFR3v+zLvuzo3sV9nXb1+JDhYFoOo6a+jqdwDaRfapuSOsBgiU54Sk65KX5tDIU1iriUoPzKO0PVIZnGG0n5AA66fJJO/fHVvVaumfdhn9+LX3755XN2pBPz7rcbDpHQKX4qAbcKYm/PLRjpujVrbnSXmu7P4AyuDKgn4Qq1adpFdWrdzzXY1BYaTFrhUFd92Oq/ZysvPLad0iHDQXRGKR72bqnIb7dvdKMbXXaLW9xiNnYpOYWHCisehfOD3KcRLsSQVlr51Rm0ZEknOo86CO/R0A/wvxlfmOuMzC6d1HFjsN+c65ws9TmZpwxgPOqAQHr2zH0GZ3AGFw5rffZUn2rP8lOn3RBh0O4ww3Wuc51TX+8OZmZkpO2YIoVrKK2HdprO/odRuNHBWiiUr0E8biR+KTaK8ly+dUh0VSftafbIz8jK4RCdD3phZlB3v/vd568ZXFFvec91S/606bsvetYpiW851HKeSoEnPIMzOIOrFiy9A7MhbZ06rR20V+SqNHVY29jgc4W1UzsNcBCdUY2nBpHSU6JjyFCDaR/IbQz++NnIoEYWFKcOS9gafrFAnU35XXENBy1b0kf64o6GO+PW0Qivk7HEx9DNSi2XWq6zafqYxzxm/nlXxRDPs0piMBGfC4F9eTkpbmHN/xmcwWmC4+y2ugYt2/31X//1Zd/7vd87f7Phf0fqrLqg7gFu9b06D/fVlUODg2mta1xC0Mie8t0q4GSd5TtK1mk1Gl/jKDiFepoK4VxwPvnLO9x2AvQE6CRdpJv4rrqq02LwnXz6lE/5lHmM1Ho03RuRvfKVr5wXkwYqAawyxfsMzuAMrgjV1XPVkZUGqpfVr+qujukzPuMz5k9FDdYtp//e7/3e3vjhocNBdEYUHFAyxWkUNX4+cHQs+Ru/8RvniZFv+ZZvmfQaS51RDa6CEq+GMTgNhXBlISODdNKsMqATuqDTFVpWq+Np9okWH/7FBWZKj370o+fs6GEPe9g84fiSl7zk6Ph8nZARmrgqzxmcwRmcDNSf6tBap8NAnTWwdCjpsY997OyI1FE0vil85jOfOen4hepivA8dDqIzWhXe8UV+3BTs+KKTI/aPNJYUrFA80VE6hXPXsV1qDaL8m0mmhzppbvoEdTR0o6O3rNZeHBAWLb/ViNOnE3k/9EM/NN8dJXXIpDTt+/GvDM7gDM7gyoN6ZJBowAi0ea388BP2hje8YZ6G/ezP/uzLvumbvmnSAfUwXOvxIcNBtBopyxPqXN72trfNb2P+5m/+Zv67xi+JP+7jPm4qV7jGklsjmMK5mx2guVRAfgE9gN4Bt05m6xeC9L6NLx5/m6g6L+GOg7uY0Q++VAwzJAcd3KxepybO1QnbvJzBGVxssNr1Wp9q69RNv9F/3eteNz/TMFD3HSZ/nZj46FY8dDiozoiiuyvNV8XuXbIuauOcct/73vcefduiIdThrErn1hkpjNOg/HNBeTpXPlaa6NJHnXGGCfL33vKc2WdLbWsHb4bEHz2dd/9VHZsf1d3rXve67NnPfva8ut5sSbj06tSSax8eF34u2EcfnsEZnBY4l92uYeqRQWAn5ap73tVJPxt1ldeznvWs+XmGX+ZUbz1rB+vADh0OojOitBUonF8IFIBfSjhNB9AAiqZ4BQUqOAVyKUKGDOoU6CJ9gQwcHf0WRoc6FMttEJ1wR0gtCeDnAEN8Hft2wtEVTfFYywxdtLm3lWKV96RQHBj/NX9ncAanCdhu9sumDQDVz9qyOhZ1k713Uaq7Ox/wgAdMGiBMHPXdfq443vmfhvpxEJ2RBk7DBzSI0Dcvji1q8HyA+WM/9mOzoNzEACi3gvMElN77WrgXC66wL+w4g8vfc+0swDYMxM+TH8OGVYo6MyOxL/qiL5rXCN34xjeelzW6Tkg5NHON1xaEodlC+TkOAVmTm5/0CjuDMzhtsNozWG1dfatuGhD2faD/uqlz9oqEv/zlL59L5dzqFcSj2ZQ6cuhwEJ2RKWedUbMcR4pdS/MJn/AJl/3Gb/zGPC3iotQ73/nORwVXQ6Rhq0HyDNdCvdiBTsIVVp1w020nEVdabgYPGxCE+emQVIhGbfgJ++qv/urL7njHO85779wj6Ch+S36gMigNT2WGRpj3cAvCwyAeoLDSWuE4nmdwBocI2etaB7mruwZ/TqzautA26ozUo7e+9a3zggAdkjjaUtsdwtR1ftyHDgfRGTmYoMcHGijK8+7bFuuhNuk0dI4yKhxwvkbmuAbqtECGueIWtmE1zFvgt3bYxwE+dK+jMtWvMoDiVzYZefTXv/71L3viE584vz/64R/+4RkfDegeOzdpXCiseSyfwb68HEd7BmdwWmDtjKrT6p5OxiqSU7AN2t227zSd/7+5KcUgcQXt6WnoiMBBdEaUn3I1IqaYf/Znf3bZk5/85BnWb8dNT2tk1gZHPHTe8akBrRFu2nqx47kaZ5BRB4UV7llF8EynhQPuVd94eho4qBBmr0Zvj3/846/wYazOCa0OiaziKCtuFSZs1hWWN+VYhxhu87tP5n06OYMzuCZhtc8tFBay+WxYPVAn2L4Vil/4hV+47Fd+5Vcuu/Wtbz3rndUktNUD7uqJ90OHg5CwnlsjBynd1PNnfuZnLrvhDW84bwBQMDU0FU4FVkcGcwcKowbtpFjDd03iPrngceHySRcr0BddZIj0Fqa74uRGuyJI36D4AXdpmwlZsjNw8BO/P/iDP5jhZOgPs2ZJ5C+t8+U3RCOdKleY3FA6uZPtDM7g0CFbXmG14bA6YIbkL872iPx/zM8z1bl1X7e6C/Ba3w8VDkLClnM0OpRGoTohH7w6skiZwrYFFqwNkPi9Q7zagD8pkueaxn1ywePC+WWIW6AHDXWN9ZWB4ioHHYonyM+IDagsgCwqDVo0Zj2eTuaZJXlvucEo7zgsf+KgDbcdT+mykTqsMziD0w5sXZ1mz+qYp0NCPqtwmfSDHvSg2UmpS+qhVQk03OqGuoPHaagPB9EZURqFp3SNicbViTr7E5RtQ87+0Qtf+MIPxPpHQI+mKWyKr2H2ftpQPrZ4LhqQDss3f3qB6NNzUGO+YrCmA4T1nnHTN38dA77S82654Nu//dvnLyhe9rKXXUEG4Jsl7yoKEC/eWyx/6FUwyF865dV7acTrDM7g0GGtbyCbX5FNZ+vegf+R/Yf/8B8uu+lNbzrbSOENRtFHB7ZpHDIcRGeU8lL42gB5vvvd755fG/uvjgYu2hQtTg3VvgaJ+yRYuqcRyQ/oJL3QRTpZw88H0R4HZin0L13QrCtw7PRbv/Vbp9sGq9/G23iVNlnMlqTRPtI2H2F+4qwobAvFPYMzuBiheuupAzIzcqrORQDql0tSXSRtxUHd1DGB6v9pgIPpjCiMIj0p06jZMo1Gzo20Lki93e1uN7/2B5RdA4geiLs2akDhCT8J1qieRgRN40HGW2N+ZRtqfOK1gjSVkbAtb2GW4/wbyYd5btDwwz6jN2H2j8SzjEfvlSX0XprbckFXJStfQfRncAYXC7BndcxztXXA3tV3P9i7613vOmdKLgXQhmo31THxusoL/aHDwdXeOhPKp0A3RfvO6IEPfOC8D82yHSVrlIysG6WHKT0e8bsQ1LgeIq6ybeVMdqDhppca961u1njwXLDqk5vePUtzBf5mPYwfnSP7KsX/+l//a/qJY6RGNhVG5yQOPsoqLC8wGdGFKpx0Wpblt+YZrPk9gzM4FMieIVjtegtoGmCy62xbHXIq9XnPe978o8FDH/rQ+evx2972tpOPOBBUJ9STQ4eD6YzWwqB8F6T6b44TWTogtzG4fUGYhsZTHO4UTekKaqt4tCsCNMcVUDSAG11xufelAaLZxllxBe8a38K2cYLca1gIGB6ZmjXwTzf8MmL898l9IYAnWNMPKkNpcOtslNlNbnKTefHtn/zJn8w48gxWec+FAL/4iy+/dUbpTccnzTM4g9MI2fcKtQ+Fcdu2+OVf/uV5Y7dBnauBrEK4wBgYrNUZtZd0GuAgOqMauEDj+aY3vemyb/iGb5jrou5folAYrZF2CjcVXd0KsBEBXPlzwxq5aKLb4goZhLTBPnq4wuon/pYuuePtGa60axzP6Lkd7sDHjdqAu5mIcHqjE/7b9E4Ka/pg+x4/AweoswA2WZ/+9KfPgYXrgpRLH+7VMYpL/+SsHFZ3TyAOtzh1RPJvpuT2YmmDyvcMzuA0g/oC1KcGcfbNXSLtQ/P73ve+0/bRWdJTH9BVt7bt5iHDPxuV9hqvtTbefL3vElSNKGVS9P3ud7/ZmF3nOteZdH7q9uIXv3jeVJuyXZHho9iP/uiPng2QhknBGBHUINbYCYc1YmBbSGsjXSOOlrt4/MQL4wXw54cPuvihWXkD72hXmbwXFggPuNcwbjqzFGZvLX4aZb92MFpipHVCNezirXzOBWv6J4HyIx1l8J73vOeyyy+/fF7t9G3f9m3zpm9lLlw5rZUnSLZt2smNL5QfZWMQ4r9Xf/u3f3vUEW/BTeP+i1X+pYmOmx8o3TO4NCHbBfZj3G7wqEc96rJ73vOe007ZG8id3VxVsNqtlQTfWPqDweqvbTRA1za6u7O2zWDPLQzBx3/8x1/2ohe96LIv+IIvmOHqySHDQXRGbqF1Eaorf5rl3OIWt5gdj47FB7BOZdk7gv1elyHUsMgGI8pIarA8IT41emvDJ16Fyb/GyLMOTbzio8sA47OqMH5o1nTEDfCOD77S6F0c7mgC76WLV3KiWek6VICvE22f9VmfNfMRTzyij8f5YOV/IYC/vJkF/ciP/Mj8Y+wd7nCHeUTfDRvyse3wc6/5A3QKvMsbmjpYeRa3gQzYJ/NZZ3QG5wP2wC7AIXRGbFb7KB02rj4ZfP/0T//0PCQE2Kwr03z28qM/+qNHedAZodMZgUPvjAh+jcOf//mf7/7zf/7Pu9Fo7oZilcbuVre61e5973vfbjRku+c973kz7Gd+5md2Y/Y0w4didx/2YR+2Gw3cdPODw0Dme0/xRmM1cRToRH4QjfT+xb/4F/M9HmhGg7cbs4sj3vzQioNeWHH4C48uPqWLV/HjvdJBfvKDXhr8isMtLeH/8l/+y0kL13yvWDoQLyh+8uR3ZVCaW9xHtyIa8o5Z7G7MYOeTHPyTl/sjP/Ijp/82P5DO//k//+fTjUZ+yp/4kJ/3bdxwVOzd6MB2oyHZjcq6GxV7vnt6h2dwaUN2AX/91399d61rXWv31Kc+ddrM//f//X/zubqvasgO4Zvf/ObdZ37mZ047Z/PaOnVgdEa7t73tbVOGMQCb7eSd7nSnaf+1ZerTJ37iJ+5Gh3rE79DhIGZGf/EXf3HZD/7gD172tKc97Wh0/GVf9mVzislP+Fd8xVfMHv6//bf/NjfrwCikOToZyp+bdkbGo9BmfAhGIzWfwWgU5xKWGZhRxiikyYcacgdo0eBFrq2qevdEK+32rADZAL5rXDKt73jzi45bXLJIH3Kj42+NmBuYHcg/f25pe/+Yj/mYuTRmZmRjnz/+QNw1n1c1SIvMyVteX/GKV8xbNeQvGjJ5L8/806d8cMtvED0QRufpAp34QJg8lhY4mxmdwfmAPVRPDmVm5MaF0mWfZkZu6bZFYWla22m16F3vetesN2STBx/Hmhl94Rd+4VHcQ4aD6IycnHv0ox8994Qok0h+Ne7bore85S3zIy9LTvwt5TEM4J2CbdxbRxVHw8TfnU2vfvWr53HwT/3UT510/PHXOP/d3/3dbLx1Yi4bdAzZreAK0gah+E6BaRAVbM+1AbPv4WNcxkFGvPGzxsuQ7NeYSqMXr0YQeHe/1Gte85rLbnnLW172b/7Nv5mNqV8w2Ij3nyD05IFAXOjdsqWLSLnJhlZ+8CUHQ9SRk02DnQzJjv7KVCTxt1CeeqJJbmmQR8djT9ARfSCMH7jRjW40T905IXSDG9xgXnOi8okH6DTZuV/1qlcdVTx+ro5ySauDEfbN7BsZzLzxjW+cZSktcNYZncH5gD2wC3AInZH0dUbsUn2RpnbFJy/2znVGf/7nfz7DtJU+gG2Qt3ZG4h+8bY/MX+MwlLd7yEMeohQmDoXP6aZp6RgBzKUUODqI3Q/90A9NmqHYOX0dDdLu4z/+43ePe9zj5pT1H/7hH3bvfe97d6985SvnFPdZz3rW0ZRaOORGY6o7RhRzSfARj3jEDBsdxO7xj3/87hu/8Rt3o7PZjZnOxFG4u9FZTDc6U+PnP//5u0/+5E+eaf3f//t/p9+73/3u3Rip7P7dv/t3uz/6oz+aacmfeOTAB0pffEtTL3nJS+Zy5DCm3b//9/9+9x3f8R1HeRa/OOKPBnc3GuLd6Jznclc6W5Fu6G50xjOOtMkAk1166eOkKP/yCdML5C9cWmSWDnnpAsoDuZ/0pCfNZcYxYJgyJq/8jk55NwYUu9GBTnq8wvhJ60//9E/nMoW8jwHE5PXQhz50lruyG53d7ja3uc3u7W9/++7e9773FfRytkx3BueD7AIewjLdGJxNG9cmVme0LX/2Z3+2u9vd7rb7+q//+ikH+3/mM585283ql3ZRHqpDhw5Xbbd+JeEd73jHXGIzY4FGG2Y6lnS++Iu/eI5ChnIve8ITnjCPCTc6GQU2fythVvW1X/u1k8Zo2SkycR/zmMfMgxAjn0eb29wAndkFmtHxzK+YyTEaxvlBmSOT6EdBzpkHcFIPSn90ipe99rWvnT/9M5rHTxr4uaKDTGZF/IB0h0FMfvzIZ2TTaRej/Xvc4x7zwzVH2kcjOeMB+RRP2mZd6JwedKKGvsjXchUdkM9SpKd4ZoFmXfigEYZe+IWgPIbSDPGE0a2zDG5PcnqODuUKoz/0RnnK9fu///vnLRsADXpl4DSeeGawRqg2dOnQTEg4MJP1wzHLk9/7vd87L4yU3zM4g9MMbDgbtyyn3vrsxXeXVhAe9rCHzbDqpPpW/QPFj8chw0F0RhokDQ/F1YDoZPzJUONiGmrJCfzrf/2v57OGTyG4mPNjP/Zj5x9GfZXsacnNjd+mqhWGNMSRxi/+4i/Oj8Ys7VkS02BbwhkjoblspDPUoOFf4WpwfbypA9JZWAK0RORfPhpIaTMWS0amxvylpUNIXvE1vBpS8dFZ6rPm6xp4ne91r3vdowbbM/nR2XdxnHOMjmY65EOT3qTPKNHzD+UdAmHo1/Dz4RbiF8/o8MVfnslGHqAjprPSDsRXRuWd/tGhB3RP7z//8z8/Bw/2wOpoorE0YTnC0XFl6VfMwuFaMc/gDE4TqBt1MNUrftqVT//0T5/to+8whfm3kWXuoHoJVvchw0HUVHskGhwNmBGvRk0BePra2LroU57ylPkDKTMghdJIHJgx6IB0Lo6IO9LoGyUdGlBYQKGgtbaq8bK34K47BW5/6ed+7ufmpv9tbnObydtRZCP6GlpxjUqe9KQnzYZzTJGnzGZURu3O+d/+9ref8fE0A5GmxpW8jjiTUceqE0Rr3+enfuqn5mzq+77v+6aRrcZDdrMaaZBRfN/q3OpWt5qNMj3RRw29xl9aZPUunCz88MWPzBpy7gvFdLFFYdKr0yGzdMkjzMxGupUrKJ9mg2aiRn5b2dgDG/BvK8/v+q7vmvfdgfjopFRGZcdG5N0ARocvvTM4g9MI6ocbFgzqALtWJ+yB+1+YQbNVHO2ZY90G2OpgdRKw//DQ4SAkpGyNP+VrNCmcMjXmZhFu637Oc54zl8MaDWuk0CksnY5lLktfj3jEI2bjVmOMHxqdigbSzMIymJmFJR/p+jmVDXHLgF3JLh6oUKWrEzJCd4jC4QbyaUAf+9jHzsZP+mQEjAQC6QMfe+oEXWjogzWb7T5S07F90zd90+ys6lSkV6OsI3rkIx85Ox/5k2ZGlz5q5PHQ8KdHTwc85NM7pIs6rZMi/vSyGnfIH4L01UCBnJWVzoksdVLk4A/iI63KS94c6LCJa9PWV+d4ocFfuHgGKH51bllUudv4dVeXWx/SzxmcwWkDdUMbUt0B6hNQR9QDqwJ3vvOdZ3vikJf6webVw+pT9eXQ4SA6I7MCSm5JhxKdNHNkUWNjtKuRN1NZlUrh4v74j//4vIHACSrLc2ZG4mnY0YgDzXzMshwT1xlZmrPkZulPGqa8OpgaRjIxBKfmdFTcGkWzGh2DpTkfc9q/Ed8aLn+Fz3h0suL4aFdHJD1Ta0tSPt71odpXfdVXzeXET/7kTz6iz5CgEz32VMyYGJwn/o6486+xrRMQf8ujsBX4RXshSCdQuvRb5ykMSI/+5KU06J4+PNHyjw86s6FmMekemu3Iv8EFvaExIDASLD28LO1ZVpWG04nKWQfvhOJxcJxOthiU9/y9w2g86aKGoBlesKXnTn/F8Vzj8FvjBN7JIm7hW0y/K/An1+ov/pqvFYWt/FdZPMm65bXSRwvQSVs4KNx76a/Ab/X33Ed32kF+Vgxyqw+AntSJ9FV7xt7ti1ueZu/7+EBxDx0OojMymqdkDRNFU5wGx0a0/RFXYoAaeU+FRMkaKL/ftY5qlmF0rKDQ4IUvGhv/ltJUYIcUjNAt74irQ7C0hif6Co/7r/7qr2YH9tKXvnR2iK5qx5d8Zmw/+7M/O5fMLLmhh9I3ctG5mtXoeF7+8pfPvLiBQOdkyc3GvBmPPY7oQYajE3Qrr4MORv9mYxqAP/3TP51yy0/GmgHWmJMDkFWeV4Pkl25OgittcWs4a5CEAenLf50R9C5vOm0dvzKMhzDymc0l3/ve976j8jIytDRnpqRjMrO1JCs+wF/aZr2+RzOToh+fBVjGOBdIL30F6THZ8fZc8+gZrnTyk9+ql5VmS7/S5d7Sr2muYSt/cFzYits0olvjr/69c0cHTkKzAn9pR7PFYOW18u+d+2KD8rzmLbd2DNBdoL20XaANsKLjEIMBcsCmIR50lh4PHQ6iM7KBTemUnAIpXyNRx1KhaOQsy1E2MAtyss3pEo2ceE1VNWDiWQ4zlXVYwPINcHLLNyhmVUbVFaDZi6Ue4N2SnBnIk5/85Dn60Gjq+HwTpZNwaEFnEr2GVfqeUGfldJ8lwVvf+tazc7I/Io59LXkmq3wbOZJXw83/IQ95yOxIH/e4x8084+canfvc5z7zYMf973//2fmmG0B3QOfW6Fx4xsi96vRCkf4hGaUB6Z1fjXpliB7QGfA9lSVKFQe9cJ0IXma9ZKQ7enXC0SzQiUHwAz/wA3O/zLdKZqABHtIzOKAvZa5y6vjkc+1oLhTojs63UOWOv3e6Tjf86AXwJx/biBZfQG/yLky+haezylEYyK7wik587hXIhX9lDPCKX+mhgfit4D0envh7AjxXwD/5APf6vgJaaQO8qx8gOQMySAsvNKW/lfVig7Us06P6QQfyDunKv8Es62u3Hv7wh1/hoNQWtro+ZNhvOR9iqDGDGbxZhF9XdzJKo2zfyGa/zkKjo8IrQKeoLI8puCqhwlQ4fnttdqHwdCZvf/vb574L/mYzRuroVVaFnRGYEdmH4G/PQsPoxJ7ZCgOwNPTVX/3VczNd2hmSNBW8D3ntd2mIzaacurMsZ8/JTM+SG7mrdOJDcY3upe3ItyUqf06VXxuUTvyZyenY5GFt7AL6wkfjxS1/0kGrkwNrmlcW8Qi9A+nB/DylTY9mo04+Km/vKgrgJi86+rEEeZe73GUuzZkFKS/l9JVf+ZXz0lzlHl9pmWUaFJihfvmXf/nUizxXgS8U8GRL5aM8JSfAl5s+szvv3PQOyEAH/OQVr32ILztJ3tIQh617pkth6NGRybu4ZpPo+CnnaIB44peP1c8TnRlo6ay0Kw2e8S+P/LJB8SFAJwzyI2edaXHwBd5BdLkhvSYTNyhfpxHIHgblb8X8gXxrGwNtjzZJe8ZN12hq99JrsPI8ZDiIzkjBUBaFUiS33t7RZUtZvuexZKMz0iCrOOjQM2SFkSErEI2dCmpZxxIZw3dqDl9La45I21/SeFW542P0piOSpvhOrug8pGV57fd///cnT3sSOjP+5SEDE18aRvjWcTWi4lrukx+zOHxBDVbg/01k9NW1JT03KMibTXn8fE/jmygdlUZ5bTQzQnLIT3otDF2VXZj3k2L5O1dYCKTXOx15kt3yW5uyNULcZqR0a+lUA2/JFQ8dOD+dt46mOOXLk150YvRFL9LDM7pgdW8hWaG4NbDJbkaqTKSvLNgG2eQJvXKkW3ud7APaxxRX+Ymnw7DhLI6TnGgss4iPBn/pSBsvNlM67MkeJbvOZsXz9C6OpRs8xWG/DtUEZMGHbXED+hBXhy8MGnXz96z+wOJyG5AZHFpxwCtZxFG+uZ0U1QHJm08a8GD/wulF+dEXWSGa8kMX/NQZcuAnTLyLDeRpH9KTsqCnbB06ZOVbQzMjQL+Wpi1TB9EWFx48jExf4zCUOW9gGMpjafML4jHb2I2Zw/wCesxIJvp6f4wQJg1aOEbKu9FYza+Mxyjy6Gv6UXl3n/EZn7H7L//lv8yv8YXd/e53333DN3zD7h3veMduNH7zVgC3EYg7GvV5KwH3Yx/72N1NbnKTeSvAaDRm2GhAdve5z33mF8+jAs64o9LMr5/xgKPiTT83DYxRy27MyGb8UYF3Y4a3+4Ef+IF56wNeblFwOwE58Cc3Hm4JcGksGdFIx5fYYxa2e+ITnzj94WjQd694xSuObmGgM+7ReM6bKehtdNyTNxnxJ1tP+pDfkyK9pKfRIE7EQ54L4+aHRhnwQycPwp797Gfvrn3ta8/bIcZM76gcH/3oR+9Gh7Ibg4+po1GpZp7HbHY3Zkgzv2OmOW+t4L7FLW4x8wg/4iM+Yl5aOzr33Wi4pk7RSdctFWNgMtOBYzR5VGb7kG4gueWZzPw973e/++2+7uu+bubvXve61+5f/at/tRsz1t0v/dIvzTjoxHnyk5+8G7PlaZfyRe7040YMYc985jN3L37xi6cuXvjCF06e7GDMoGc67IONsV12g5fyvOUtbzlvoJA/9PJC1+JzuzVEnbnuda87v753MwW5hLtVBA/4hCc8YepHvt7ylrfMcvm0T/u0GWcMAiav//gf/+NR/XPThfrnOWaos4ze8IY37D7/8z9/5hc9fuz2zne+85HuR4M56x69yLMyYpNkzw6///u/f/KFbt+Qn9E5zrpammS4/PLLj+ox27q6AO/sYHS+M+2r8gYG/MPe4xlmg25w0YZlv+qKenO7291uNwa8R3ZFv8p+DOAnnXqhHVB+o0Ofei69Q4YrLtZeQ2CUOJQ6R6GjIOaIYBjdxFE4s4c3TeU/ZJ69vCf/URDzaLU9Au9Q2Gi05j6CGw6MKPlbrhPm0ABeoVEtEGY5zEjbSMO+kL0M6ZHLqHBU4HlXFb+QnPibVeFhhG9UaKnN3o7RoBHgS17ykrlPJZ/yhXZNmw6MBH13NSrlTBNfeeTvOxt5ESaeUbXZkXhoh9HN/IgD0tloHCadNKG45CbHSYBs6D1B/IP1Pbd0yCOOmSoZ6akneaVPPvtqRtlGv3RkhI/GjAj4pkKe07fZAxAXnRmTb77sPUrPjGA08nNkLZ0LATKTXTryIj6ZRwM6y98+n3v0zKotGQuTZvmha7Ka2fH33ZuZsFNPZjejUZ1LtmYXzRKkJb6TocpeWUF5MwMxCjarMIPBs/KDAA8yi2/UbL+NLEbO6gEZyMnu+ZvN2LtzyMOSKN3LF35kcoTeyVLLQGzPd3GWRy03AysW5EArXLmh8dGlU6H0xlbRWJqlU3qRR/liD2aHfciufNUrI3unU+lOHHmx12pFRFyfNJAR360Nnha4ELnlE8izcvOePdKhd/uofhthH/ZOd7rT1BX/4p4mOIi5mwpHwRVUzxrO1ktVOkrmp3AgGhVOZXWTrQ1uFV+D4Mi0TsD/c2B7Fjqals0cYBDHyRTLBOgtp6jYOjINmsorDUtuOif7ExpKlQcvy3IqtMMOeGk0HJZQWX3rYt9KZcQTL/tW+LnIUxzfJzltx9/mvHziw7AsT2oI7Z2pyDo6Da2lC50RQ6WvDJVONByWIXXQgI6EeeIN0t9JkL6lAaW3xcICskjLUzgepasskyV+lq7oSSNt/01npIMymLCkp+GmY7pTPnQJxNWIOeXogEq3dSgzT+VYuicB8oZ45wfIKn12RL9jljSP+bMjS6tsmD2xO52jDkFenf4TprzcsuFUpP1HOln1Sc7e6dugiFujY2+SbryL54m2OLmBzkDa9kg7Du+DYfrWqd3tbnebOqNfYeyJTnXmwnRA3i1DXz46Tt/k2dt0W4jb8vElywps2SEfy5eALOmNvKC8eBems1K/gN9mS0t5WW4F6OhZeu0B+uwifqcVsq/0AypDuA/4V+bKUUfNbWBqgMQuLWOzx/hAsC+9Q4WD6IwYrwYKAjOMvvfx9K6zAiq4dwh0MI9//OPnCMoBA4VgT8XHpdAIFn/oFNpP/MRPzEbeQQAjw8ChAPQ6B3s8ChyoKCoafx2X2w+cbHP7tHeHFIT74CyZNB54Scc3Tc0IVCwdphGhMDwYF9Rx+pkguTQKKh9w0zR/qBN86EMfOjuZe9/73vOIuoY53dCX0aNDDzq4Gj0Nm0YS0Ge808tJMGOWBp54KAvuDB+gQ68sNT7Qu6e45IinfOOBl0bUqJh+HOXWsaD33Rj90gudKWuHRqSJ55o2/ZtZKWOHHnz7daFAHvoKvGeL8iY97+yKrGYDRqY6S6f4DEB8C+XQCRtS9nQkvnyyVzyUmfDV5tHQi87C07v0uUE6945vNoquchCuQ8cfXZ1a2EAAGuTgsaZjz42+dTho+QnDn3tt1LjFJXs6w4/8/IUbgBlEoTGwoB+dIDr58fRO9vLALz5mXuLJj7DwtAKdrDrcB9t8Kqtsorjc2h6rPcrrJje5ydQfpFf6B6WH/tDhIDojSrcEoME38tTLq8x+Ra5SuI9M42q2oYHRaLm/TYNgKczyjKU+U38Fp5Fi/Ay6QlAgCkljrTORjpmII9sOEwjTyKjI4ipUlVChcmtEjOTMwCxxWMrTGH3cx33cpF8NBj1eGlTxMhKVEn/HscU1qtExGY0Kk554nvglg/wId3jDLMuNEWR3pF3jjo780tY5qbx1PnQr71sDB6vfuRBk1PugsMLJQ2ZPMtGL/CgP8vETLq+Vj3wqm/QvD3Qv3/KmsbOp7SJasxFh+JWmzsBAAa3Tjkbz4pABbPMDtnIH3sXTAJJDOuSF8iFc+lB++ClTgD+ZNeQGNZacdKAO5FgK88RHfpMt26nMyU0veMlPHYv0+NFPjb94wpNZOHnRQO8hGvRkw4ttogFruSgD/KUN+Fd2OhedmDTRGiTU+au30uGPP3nwwqc8Anm3yuDzCjNFddcltxrW8hsfcsSP/PhkMxcDrOWzRXmWf/XCU/7pzoqMwa8BnCVVfsKgOCuu/A4dDqIzouwUTrE6HxXZUoh1YwbIIN2a4EijmQe0dMXALfEYKZoRmEkwZh2H5Sxr8AwearDMWCxRWIrA2/KEMA0IevEYu5kSfxWQv5mJ5aJrXeta82ZpjR1+eInjKLc41m3Jys+Hsio7PuRSifHRoUhfJyofTuvhKx0je6NB9MJUaP7QMohZke91HHUmZw0aQwRGtvRXxeev8VHJ0XoXL+M9KQa94xEWzuClAVUE/srO07sBhI+L298Dwu1tuJVCY2RJSadjqUtZW6JplmsZTF7wKy26tmdh78MyD5tw7F1DK82TQnnwhHhLQ/6CZBZeowilo2OlY2EabnLadzGzc1WVcF/Ks7MV5IlNKHfLXSD9GSRZLrPXZA8yXZMDSoOt1ynnD8iCh/c6JXT8whr58lj84nmSBW80hUN+wJ4FNEhkk8KKY9nb8rO6YCkWkEW68bGH6lMG9Vec0qI3ja36ZeDFX34vNijPK8p/ZV1ZrLQG3ezFSpABABqDZHYSDUjH4cHDEPwah1Ghdt/93d89T1kNQ53/JnKSbIzu5ymR0UHNUyTDqOfJEafORsM+TwjJwjD++U8c9GMku3vwgx98dIrKybbRME90Wokffj/+4z8+TzoVx6keYaPQdve///3naSb+973vfaf/KPDdU57ylJm20z7/+3//792Yyc0w6N8i6MfIcZ6iGo3B5PWoRz1q+jtV54QQP3lxggmPUdFmXpw2wkeYNIWRb4w4j/5ngi8+o/Gd+nEyic7wFBcdHYlLRnkelXz3nve8Z7pHZZ4ozzC9hKvf1j0asonKyrMwmN9ooI9OA3mX9ujM55PfqGDzFJCTivSZ3PLo5OLoeGa5jRnvpBN3dMJHOvZr5Te+8Y0z/mjUZt7HLHeeIrzBDW6wGw32TKM8Os1VXOg0nbBVzhXXfAmXL3y473nPe079SnfMaqc/W3CySRh93+xmN5un4ehbGYjvlOCYBcyTccmG/+hcZ5mOTurod/P44yXfyfMHf/AHuxve8IYzzOm1MYiZ9uTUINtx8k56dDwGL/PUGXkrF3b8FV/xFbtHPvKRkw5PJ1fp0MlO/3wanfesV+jhGp8Njo5m5kvcdPW7v/u78zShPPi/1B/+4R/Ok4/+JUW+MQCbMisbeVPnnEB0ugtvp/HGoGnG/8Iv/MJ5qs9pvNG4Tjceo5OecdmKU6xkJAM9fjAgfrgFeZcG7DSdei/P6aYy9LxQWNPeh/hLR3kq+zFImzpa7Zg+xqBm95znPOeorNh2dJ50Pwbbu9FJXSk5rwl4/zz8GgYb8ab/owDm6MdejNHkUOr8bgEMpc9pvTvehqLnKM901ahgFOI82WQz1rvRFj9gPd8dZ8AIDk9gXV8c72j7JkN8m6hGomZpRun8AF5mNWQhgxFb4ACEGc7Q6ZQLDbCM4XCDNORF+DCeuQRptB8vs6zROM+RrjQcjPCOV9DSHhpy09lo9CZPMjaV57Yc5Jm/9KWFp/TQQXz4CaNTeRbHuycabnS50cQjnmiBdOIboAXybdYHxEFnxmAG6dCJgx/K38EOm+VmEekYf7Nno0Hpk1XegRnUve51rzlblb7yZytG3CcF8kAy0q+017ykP+9k9F6ek0U8fvKErvAV8h+N7MyP2zjMZunFsqtwfOjM6JduHvSgB80ZhlOE5LNkzabRWqYx46o8hI+GfMoMvZsxklGaQProk088eUNLB+xlBeGhOHiNzvhIP8ByXOVi2Y2/fQz7svjZWzO7jz6w+mGP1GyJXslF9/ZD1AG3l6grwvEXX7qrfV3VUNnSRe+rX7oi59UhR+Wyj7f0rXzYO7a872CMOzwdXnDgwxYCWUFyb3V+qHAQnZHKw7gZMtARWHphxCpmytWoKyjIcCk5g2G4UBj/CkAHUIeGtnAdV3QrPdAxdXx4DXNqSkO5Dyy7wRWkp2G0vJYRA/mRvs4RCCsNNDogqPKBZKCTfSeWxI9/v+TOkOOdYQIVnj8Qxl14FWF1o1n1Gm/uLcRvH9RQkS9AK1/KWVyyaTydQpNmMmtwLatq0HRaZNBAaRTsL/o4WP4NaDx1Whr78n8uQJPM0iyv/NJBcJx/cXKzT/aqsfBxtM7KxZYaDXnMfu2JWlZ0usw+Jt7ChbFnpzYdjOiDWOGWnh0v59YJSA96h2B1023phfRKT2gqT09hyskTT3TcAG3u0hSnDsSTnycwOLCk3aDCwAw/fNB4Woq0/K7+B/zVNTqhO4NGkHxXBezjww9Kv/cVvKcPskR3ISDOlu8+Pvkpo3TG3r070WupXltk+ZOt6/jbt1QGgbjh6n+IcBDSKZwKKIPWENtb8FQAVRx0KleQkqHwCm9b4IDfWjjhSrsvbMULgeKQqcYgKGyLK+yTI5DXMCOzv2X25HsSIyeNmCf0bRQszEm83L37O62NaPG893S6jVuYb0IcEHAPHBTuPT5oILeDFujRebdJ7cCJAwhAfnQmdUTA6B3Kc40ocCzZiFAeNNJoNMoqKB2g1ck55qrxMzPqqOuFQDMWdoi39/SML5tUnhpPetcZoNGA26cygCIzNKt53vOeN+9DtKfofj0zIHENwHSc5Vt8cfDEY5U7fmil5bi1gy9m6vaU+NOXBlJ9QeMpDzX6wvEA5KcvKEw+0YmHzt5VqxRoAbnqDDybFZiBO6gjvne8HBBKfjoB8UmGyg14NrNCB6XDH9/yT4bwqoL0nw7To7T5wdJc5VBG6eODhdIJyZBbep7SkiZ9qDNs3cERHZI6tR63p1u6lIf0mf4PGQ6iM1K4lF2BB46BVmEoV6GkVPQQrMab4cAPBUgzvKohI8owGan3Kk2YTjQmlnQYqR/9WeqwrGmDnF/+vRcGzTicZjQK5bY84unYKDrxoM4uWt9C4ePdkiO3cHSdssIH4oO3X3Y4yACUX/kLNIIqm0asBkvZQ52LdH1XhM7ImX3QgU7IUXnLey6WddhkbewvBMRZ9S4NdulwhDy1NAJ00vJjuc1hmC7srUMRt4bdu8ZEXpSVTo8O0GvUhUlXHOl6FyY+v2C1NTR4tLJQvOqGd+7egfje1/SADtLSpqU1qwn0Ku3ogac40sPbMpvBBjmln02uoDz5yXODDyA+wD93bQFAZyka34Df+n51ATnSc7Jlh4AckC6uKpBOaQX0quOXrvKRpu+L2Dl7ZPMGOvS6QrzEr8wOHf7ZEPjCa+tVDD5u9L8gIz2QSIyBEXuvc+GmWArOrw4so86ItpUi2BrZFgoHx9EEF0K7hTUuOEl8cSDalV6DaEnEt0w+nK2RYcT2MGo86KxGAY0weuKmR8YLVPgqXpU/naOr4UHDP5mE42UG0Ayj8gIaFw26U3M+Ti0fEC+0QGMujd51ZpZ07J1YzrJkJS0yWLJw+s4pI7JZztNImkXZXwnsLekk07s0QToF6cGTXzbmGzWnw3S8vmmTrs6YLqVh1kdGy4VmqE6BWW6WD3si7nXzOYBZhCVHS7qXX375zItTmE5a6sycHrR3JF2fMOjIDQZ05E4bOplmiY6MOopmKMra5bI6NbMmuiSjZVGDAwM7Za08LINa6pG+U4g+xrWkxkbw9DT78oE4nfpuz60LOnk6kbYRuW/wNIp0Iy33P5pV0THeaA0e6NI+sD8Z+1asf4nJu/TMcJWFshVHfumTzOJLw8zJTRLSkV/5OCms5Qyyt4B/fvjTPbdBh4+pLYHZnyl+EI9s5EJhlQH03lMno/w9pU2PwpS/5UvlokNS1wwi1CllTTfyof4pB6eMlZ/lvEOGg+iM7AH4rbhKzUhVBgYPfMdTg6kSMV4NKQOwHKBy1zAGq9FdTCBfa97W/Jk1aCwYIN3Qn4ZSxaUbOhWXoWqohIuv82mU513jljF7Fwe/dI6fEZp4+ItH/+iaDSgjywjKR9mJg5fKhK/0zdp8f1NaQNr2FjRC0oJAPEsReBu0sBfy4CsfGla3DQhzvBjgpZE0EwtO0hnJS/YEyUCnGkeHTGymW3okk85O/jS0lis1HD5e1iA7UOG4s1lGS1UaNwcO3EZPZrNYOtA52VOylKkjFQ401pb61A2HWhxe8V2cOiH/Onb7BPROVp2BfJPLk5+8CKdvm9vklq4Ole696yj5KTff7llOpFuozsmLgYAZEH3QlaVS33X5bMFsEEhX2UhHXujXVV10pDPlb8DpGH/6deWWMuIms8McloX5s1kHjfBiM/w9yX0hsJYz6B3kB8ggzJNeHJWWN3LIQ0AH5EBTnJPChdAqO/WIjSsLaQIDHp0Ou5S+MN9pspU1j+RkKzoky9wGOocMB9EZUbqRohM39jE0RpSqofORo29TGARjNzpUEVVwI0ofFRo1MdAaLyBbCgqffUa4heNo8t8HaKNf01nhOH4nkQWcJH1oROxDQrqhNwbMWMVXaeqYakxKnxs9/Xq2PCaOEb5wjYR44vDHW8WA/IzMxC09CJSJcGHk8q5S46GS9V1NMvG3/GXJD20dJrfRoEbb91caJYc/xBPHCN0ymW+1yC+vwjT8V6Yzkq74K1oGlA+dhQ6TH5no1GhfB6XD1BnRl1mRzrgTfvKgsbcKoKykZ9ZhD8rMgA2rA+jkA18jYkuROlgzHHr27Y3yqSzQeRog4C1t95TJAyxtfPDz7vu2dZRsANghG52kWbayl0dpOTyBh3+HKWOg83TwBC95FG5pVDzvjeaF46NOy6+8ZGPAbFMnX6OaHevU6JsuuOOlY5XWhcBazqB3kB8ggzB+7NXM3ezDzKwffNJ1kFv+TgrHpb0P7K0a5NAz2dDLu4GnzqhBjvTN4Jy+JBP7R8v+DFDZJD2yjUOGg+iMgEbAyNFSQ42UymSabslFZdPomMorGAo3urPpTskMeS1c2Spr+Z8rq2j2ha88t5DxAnQr7UnSPB+cS35+vTNA7yq4SkSXwryTkR5VYn7cOhENIzoGjQYP4RkyPt7pFT2D945OvPStEwPcUGVBL7y010YR/9LLD29x8TVC7wJNIE1hOhLLRho7yxE6B2losMwkDFTEl7ZGT6dj2ayPLcFJl+lKk3zceKZT8hYO5c3MiB0axav4dIpeeHnrCcksXvJ7auTZOFBu0kFLBjTc6PARN7k8paUc0IirrCs/gL5yUe54xN+7PIsTf0/8xBMmHjkgOZVBs2PxkgN4Vrb4S2cFeeHHDsoHRCtN8eiPHPjIh3SEJwv5LgSSDQ/Q+wr8ymNpmYlqj8zWzDzMAskVHXd4UljTTp7jwOzT0q0lUeml52ZGOhs0Zp3ktZfkxCZApwMysCO/9wvV24cartxi51UMFJ2BUph3hlohW45w1NPoilL51wgaUXrPQIRXGYD3wq4OxP9caRR+Prp9KB81CPswupW/kaaj6UapjpV3JFilxstTXH6+2raPYdTM0OmfLr3bR+gouVG+xsdol/FrUAwY8DaqNnI1W8C3CkYuchitA40WHuKQwczI8XYb5cpWOuIrf/mo/NkFt5FptxmQTzowHXAblJDR8ooli/UbrZMCPtIlB3k09D0hIB8/SEfksQRihiMeOjTkQrPqhL881bCsbjZdxxP/4iTTGgYKk/c6htLEW0MeHX+6Jx++wDsUb+WfLeis+OGDBpBRHH5o0CsjaeBBlvKOhhz80QK0eKSnwrJPYeLyIwcgQzKJc1VCulkx/UGzcHtr7FRbVN7ILRztSZH84b7wFdFIh3zc9M+fntiKOm4Ab0ZkmdqtNWjIh6a8ZEOHDgfRGTHKlF5FUdAtCRihuIlYQ8aPsSucQBzKBwoL4FGhh3geh8eFb3msmLGGxVndW9zGORcyrBqBc6FK6kmH1uiN4iwvGMmZVTpxw3DRWCbzNMO0jGXk50+pQGfByFue6KokhyLcpK2BdyeWZRWzE0uq0jQD4VYGysJykkbFRrx9gkbf7tazfq2TlL40zFag2Y1GfYX05amBcozZkpjrg6SljIG0yO7dUWp7LdK2vHuhQH46YIvSBWYC5FAW3IAO0din0uGazdkk5k+elU7+yYsf+yQrP+Xm6Z2/zsweENsSH8qTdIWTDWYb3MKF1ejTc7oAwtQXYUD90Wl5h5blIPnkW5qe4qPrwlogDfwNAC3F4UV++0pAvJZs5a19FjT84oNOHOnjCcQTR/7JTx6yQ2EQkOtD0bBmy8rMfosfN9qT891X5Qjoo3K5qpEM6YHu6FHa9MTGHHBxFVqzHzpWfvSafaLDI1s+ZDiIzihFVYG8p0xTUJ2RRtAaPYXD1SArLE+YIRUWojkOT0K30pyLdh/dlcF9fIM1HGR4Ziz2IVQgm+eOQduLEEa/1qF1WCqRfRY0Zj5OMAmne0aPzr1XTutw07lZkE6t2ZB71b73e793pu9OPo2TxqXO0exHB4OnDkJHgpf4ZjD2HXRE9kF0cN7lY21YpUsu72ZzTlRZouOnnKWDHj/7TWS3fo5ng5kLBenSF5Aumeibe9uBaKTcIWifhRzKQ+O/Dpj4o8XXE4/CufnRSekA/sXjL27xo8mfLvixee7kSEfcEE3u3vGg43RPn2vDJc8QLX5QXHRAWvJSOUDxV5lBacuXctFRSTf58MCbnzA8xNVx4Q2VCb54XQiIA88F6QOWf+mTR4eskzSIUk7ln7z4ov9gEL8tFpY+0z99WUXwHZ1BhD1Ue2zki5bc6Bt44ne+/B8CHERnxNhBheudUineUotRlGmoERmDVOlW5VI25fPLv2cGdtpwhTVfK+QP6Q4CMwcnyR7wgAfME12MM73ZT3FqUeV3i/T973//6WfWU0WQPiN2fNRmKT+QbMoF6pDwssZvNlYDincNmCde+Ftiw4ucZDITMOtStoCfvIiHznsVy/Kg5TfLEjoC4WRgJzo9y43CdQpmg2RJH0G6WuE4P7w98a8xkKb8kUkjxU9H5Dch8oien/xD8fgJ459948EPH3Jy41d4cSBAV17wCSuX9JmupC0MH/kovvcVvBcPXfmTrrDS5J/8PauD6KH4ypob4IlGvsRPHoBGQylOg6TicZuRoRcOSwPPqwLS3xaTM7en9MmtsXcK0ODKoKg2Cw13qMzF9Vz9wuNoVtqeePesLMhjqdDytmVrS3Pk00FpK9EnczzFT/eHDAfRGQHKWo3Nu1GRGZFNYctJ62Y0BYPioFcIGbbRVzQXE1RhQDpLBxo2kOEGGgWVyDO9aCQ0BIwX4CV+/NYGzTvdAv5OPGkwAGNHgx/+0i5OsFYG6eFRQxug6XRQyzr8aogcgVb+TsfpvFoCIpc1c0sWOlaVk0zipKcLAWmKt8q8dizyR4ewvILyJV2wllF6CeRNHtk3PYljMxoPdLByWNMgU8/y6Anw484G8PKOVlg63QIe8tLIuvzTa2VeWQqH/C2bJRe+Zqbyw88z4MaPPPSgITWYANJig2Zl6NgUOfiXZrMkPLK5VZcnAfzguaC8BOkXkMUKgeVoy9WO2pOBXHALlVuA98pf2NYmtoAeH3T0W1nQg+8IHZH37RN/sloVsCReGXsqIzy26R8qHERnpFAoWeFncApBg2U91Ga6o7NG/MG5jGtrfCcxxmjORbfSnI/26oB96a7v6ZGBVum56dWssoaqRstTI4CGsTJgvFQwRlwjAvj7e6zlP6fH+iMnOiBc/PYcAmvsrsPp1+DSSmZpNmPDRzxu/sLlJ9k0WN5dBumJTr64VUozQb9skE8HJ3wT4zMAfPbBufzlG4Iqsae0PNdweSa3fHCTF24bAXxLc+uOX/4hP2UE1QXPLa3yKZw/kOY2vGc8hAF5AnTJj+zK0B6YcnYgxpF1+yW+N4LcZt2WeM121VmzXDaFN17QKTCnI83AxXFbhWVaskhLPPHZh/IqDadkfftEh6t9rXghcCFx6E7+lSV39i9fOm0fllu2M0h2oKEyhmygvS2QLQjrPX3z4+59zesK2RxQxvKhDB1zNyh0go7OtI32d1co3mmBg+iMACUreKgAFBw/jaoRs+Uca6MZ1apofuGlAmueQ3qroWHYGuz8jDAZMX/h6Zoe06UnP/To8vfO391wd7zjHWels3ZuFGvW6qJSNOilBwNLGg4ViOsAQmGW02z4u0zUEhwovaBGlCxGphoBX5pbHsw+pOteLntWwi1XuAHckoXZgPgXAviVLrc0tlC62zxzlwc00cXLc/ULvUe/xtvSrbRBNGtnFMRHfoRHU/xkBvy5dT4OlzgC77SlRtkyrn06YZD+dfiuftLh4LfOVMmjoTYQMWOyH2h59bnPfe48lcYmNPjCzTTsc8Y7VHb4kpEd4wtWma9KkFZ6AaUhL0C67JAN3+hGN5p5ctCnDikZ0a36hSugDQGe6lP1rXR6jy4Qzo9cDnTZtyULudTFfbDm65DhYDojQNFrwagIRrxGTttCDTKi8FKEbb6NUC37GJ0CuquhotsMHtRJgWZLQMWif7T8xMfPzMShBRunvvsxgraJD9Dh1+w2ufCoogb2WoyUfWnv6hxxjTw1mED5G4QY/Ylr1Ow36k5VGg1mH2SWnidwC4J9LFfPuAal/JwU5LOGu8YfrjbmXRiUbkg/4kkTxqd38cDKI94rrGn1fi5Yea0gXmHS9wyUhQYUoPEO7bv5ns+xe8uOTs0pJwMKqxTuMfS0bNpNEM0kzMTNDPgJ1wG5+klcg0l7v74H4+dTALMhoLzcbOGAiyVXqOyyX/x1TgBveHUBXZhdtzQL2RrdKGP2aI/Qkp2O1ZIdICM64eKk+8C7MgB4oQVsu9OIgB7htmMDDS6Bp7R/5Vd+ZZaHDrLyPK1wEJ1RCqdghaAQGWIVWjhjFFYhekJhUJy18E87lK8tlO9gzTtsVLX6c6vA9KuieDJcRu9ZWhoTyB+dyudJ72ZCysBI1weeOhCzD1e1+N0DUGbSjmcNMHnx4QbexbHu7et2lZtMyafMgaU5KJ6OyVU1Gi1X06DFxxIZeY3cXU+jY9LgOXkp/EIraLqA6W+LW5ryll8g/RBs423jrGH5BStdukoHoPA13uq3YjKt6UP7cU6uOvloJkt3ytMggS2wA2XjX0qW8NzOrtPAS1mjazmYH54GJxp2v8nQeJpF44tXM1cDJzdCKDvxsiFuNsUfHXrp10ldHUBmek0n5JC2PK3lQjYI0OuEWxaH4kFxDJDYJFuuztWu4a0Di693CPDBm/7oNRqn+gzO1AMnYpMNRBN4Dw8dDqozolCFlGIDDY0j3qajW6Vm9CteTHCu/GzznRHreBxYoBu6rNKsNMD72qABp9Isy1h/1qADjQMatCqU75JUCCM6o0NLLY1c8QRV6Ebk+QeOk9sXsLxgQ3atTNxQpVV5Vx6Vt3C2AqVFZstLaF0bpBFES/arA1adrnnjH24h/zWPa1wQv33+54KTpLuG01mNHWQzdGXmq+ztSaAl4wrimJk6TKLsXD1E50AZ5Q4qN0ftLfHqdMpLvMyEfLfmEli2pcwhm6pBFyf3asNXFeC/6ji90An/1Yb5QRe++oyC/LYT5J3OCgfk9dGs9stsyvLmWg7Ciyc97/QiPne00tYJ14mhMRuyX4rWkqoyWfMAvIeHDgfRGaVsBW50BRgjhXtSspGARm81xAr0tCj7ykB53AcZavqrohqhmbWovPwZq9ETQw64+RUO6F6lsYfjuyMHApQBMDJTaTQQ4nVyTBxLFF3oiAYqN3KhMauRzpqXylY4Xo3uagTI5x3iZwZks9tmuH0h9NI2qgY632xAvmtcr05Y9b/iCmQKg9UPbuPs4wOiTy8hP1C8fXG3/tzKjY6UhcbU7eLqWXRsSfnQJ9DBsy3lw58bmLnggy70XpprPvFUtjXAlpgsC1rGsxHvVKSyhmbj5FKW8QqvDBwXP/lg+kST/axxcqNziEMna3ZiMNQSnXA8aqu43dQhfwZg8t5KBVpuOiueOibt6oBwZVU9cVjBZbZOlSo7enIVlTq72gPgDg8dDqYzolQGaLrbCAG4pVgBaiSd889AzuAfIYPuuiQN9PWud71ZGegVeOam23QOWl4B9G8938wHTxUHKBM3R/thng9V7ROpFI6UolNONrZruNDrbHwZrpI4ZIAXFAaBSkIOlU2lYgNrQ4ZOuBNdZLLkIV1pklWeNWhupbZsZFTvRgQnvfwK/kMBa4Xf4qEC29B4Kg/2wAbWAcGqe42iJ/0rf3F8dNlSqLDKFuJdQywsQKtsq8PStAfosMQLX/jCia59uve97z035s062HJtgc4Q36tbr+SThnzDNS/yII86YGAWzvbtg1neBOkB4JWti6MTx7MOnB2D8sVPOaBZAQ+dlPrBXfrdn2eW5oTfaYaD6IyAQgZVBAWjgBijEYETNhq3DGMfiCNuvMDVbbhXF2zzEcjPmqfoNMA2gN2QoCKo6J7R6iTolj51Jgxb5YH8fNyqIqhwnYCzL2D6z78TVpbxdCxGhCqNzgYvSxHkkAZ65eTdZY32epy8q2EikwbGEy0Ur0YHFB4/DZMKyA6qkPzZhJmXpT7puN3a0qGjxnTwwQIZthhs34PKZEXywqC4wo6DLY8Vg31+WyitZEWb7prF0Dcko3JKNjSe3rk1ft41fuwGxAfgUcMKPOO9gsGP8nLzvuPS9p7sK9lTsilvpqG81X1x8dFAx/eDBXmAK6wy547GOzf9eJYnBzx8WG7/xk0nluLM5oShTb/qgU7DgM0gCb945O6pw6oz8+QnzXihU/cM0p3oc8pYeThxKuw4PHQ4iM6IohgwY1MQ3imf25FdDY27z6y3Fh5kLJcayHfI6C0DuCfNvhodMVw61VBryNOp0SxdimOU63cMfotghMrQ0ejQzGacSFNxjKCN/nxb5AqSvnHAXzrKrZNv0tGY8dMB5WcEiLd3YRojR7H5aXC48SC7yrc2aOTyfZOrjchsCXKl0ZiZFYlr78EdeA5WHHfU9VyAXwjIt8WVJrpgS0vPMN0CcQrfQvy2YdHvi5PfKs9KS1cwIIsO3Z6fgUSNXJjtiMOts6Fb5VnHo5Gso/AeH8CvtNHFK/m42aRlQTdQswc06WkLwiCeaOJ9dQD56gjYMZQmIDc3v+T0TjZLduqGXz7Y407/dILWpwy+lVQ/XWmlUxKuUyk9/LmrA4CbH7nQ91R2ZpKOd6ub9o/IIXwL+/wOEQ6iM1oNkLErCAaqAXN6Su9vc1PPrxKdwT9CRu9qEDMjqOGuchttWk+2/8NP5fC0Tt+mqj+l0rmKoSx8/4NP4Y5fWxrT6FuesQntaLfLSI1kpaei6WBUHoiP021uRQDK0/VCKqJNcpeY6jzNsPzADF8zmSqvcpYvsgK2cJOb3GQuh+iUyCudlit0xpYp8PAPLHHZUvE/lEC2UPorXihoSK7KxoRu6QVoPA0A6BCWlk4GcPNnF2SnU36eygkfDSUeUBlpJIWXf6DxRgtr2PFjR+KB2gD8xRMHP3FKS4cXzdUFZJc2YLMQkE+68kt2Mtkz42/5UBx+oLyCZnfpj42aBbqyyqpDIBz/yoee6KH2jq0DPKxCuGRYnXQJsqVq8fA4zXAQnRGgZAXQk3I9NXY26pzcMTKLZh8c538xQ5VXxTbKdLmp73/oAvohmo6qSg/Q06vGXRxLDfhUCS0pmFV84Rd+4VyGg2Y0ZlDKQoOvQ7Fcp6HCy1FgFbV0gaULe1fKTJgfq4lvCY3baI5c3OJXaWvE4uXd09KNwyxO9AHyQt/GGKyQz+miz/mczznqpJLlQwX0uA/lIfc+OC7sXHFA4cfRbMM9a2S50609u8rfe+7oLM8anBjcKMNt4yyOZ423d+UegspVo+1DV8u+Pnz1jgZPCPBOvt5rsOE+EBcvaa94ZWCbDjde+ZNL3kOyqWf2LH22wCb5CSuud3WTjRrwWWaz/L3yTxfBqrt0ocNXD9Qjg0wd1Ro32aRXHTkNcBCdEaUBCqVICk2BLuD0P35+wregEC9GyOi3GHDTVQavEdAxNIpdjXh9586o8agycRuR6Ygs5ekYlIEKjrcPHHV4RoEZOj5o4s2tQogjzLPw5PBUefDkrhJB/jD+ATrfNxlJ+kDSUgee5DV6douD2bPTSq4skhedHD7JdmUAn324hfOF74NzxfEuzzDoHe6jD4+jAfzoNTuhv8qsUX7lwQ3w4raPY1arsbXXU131jAebaZ+O3iv/IBnRWsoyM7YMnI2gh6u9ZDOebGObL+mjX9Pj5r8iKP0Vt8Bv1R+e3NKPj3C2pS7QI2DP9l19pK8joq8O9CRPaToO71s9tzdYeQikpUzWtKUFxE8uAy0rCgaI5DBIl5Z6IQ5ZySOMPvidBjiIzghkdBUAZQIKhaCCOYPjIYPfYoYc0LOKUmNBx3RuGaFTORoXDYBKZznASae1DLjReOoULBeoeHjVCMAai1DakFs4OVqWSy5IHumT0ZFfR86dpjMaRJcMbnOwZNh3UfiewbmBLSi79GigUcPKX30MNJCAHQBhytiymc16M9UGEfgpS8/c0lKeDpcoG42pBhS98sOPv/KWNlDm2Wc2vK9cpZG9oMGDH1sqPPdVCdICpV869j7ZIjnsW3YXn7zKvxkooGv7ZmY3QPw6DjrhRssN0gWwTO3mE6sagQ+Kn/GMZ3zg7R+h+KcBDkJSBZvx1SkFDDAjvDqM6mIDuqyCp8stRhOqAFAFsuTmdA5dq0BQQ+MQieW0/D2Vl7LBT1oqGH6rHCvy2yLAXwOFBl88PZOLv2VaDaabH/pHEkBr1ma0SX5ghKhBsLRUGpcSbPUbpFtIrzoK7somm+HnyU9HRK/eucUTDtiBMq/clY09Pek4eGSZ9nGPe9ycBdjHc3LTMp8bN5SZQQ9ehbtCyOzXHmIfQmsXyLnOGLwb+LA/NMnfE0+4+l0IoIfyAfdBNKH06Iae1CFy+7C7jhmwcf4Gbujsm1pGt1/qcBZAK83qXeWRn7R02Jb7dGSO27vdwUqAZW909ALjJc5pgIPojChbIVEew2dAGYGnxsemnbXSMzg3MLwqaLj1A56M25OOYe8Zr2dxLb+oHMqqhkp5rRUFjScQZx+ussS/zog7EF4F529WZi/IP/63nZH0o/eNlE7IWrzj7ivPM3h/fYL0qoF3VN5ykaVOl55Ct+Sb7dAzXTqxRa/8zE7Rq48+QvcBssMj7rLzKYClPDwsI5lJ+Q5NY6ujcSjGQMeMwIlNe0/4uusQjY7LfouBB5AOvuSB0vTuNOW6x5XdAnkDq+1cKKSj46BwiD+UHgSeZkhm6mywk3OW1dhtcjs45L5FNm3vzCAqO8azmWqwtXmzLvf/GQTQmd+nFF7dTL5TASNT1ziMkcJuTPl3v/7rv74bI9zd6Pl3Q/ETn/vc5+5Gw7IbRrwbDRYLOcL73Oc+uzEC2A2lTxyFPN8987uUQH6HER7hNv/pZEW6gtGPBmfiPhrlNEZ6R7T8RoM2/WH+F4rKTHxPZToq5Czr0ZjtRoWcdvCSl7xkNxrH3ah8uy/6oi+aNPzZwUMf+tApi/ij0duNSrl7zWtes/u6r/u6SZe9fM3XfM2kWeW/lOylPCuz8GEPe9isW5/0SZ+0Gx3I7rrXve7uOte5ztT9h33Yh003/9G47sagYffZn/3Zuxve8Ia7MeuZccSFYzaw+/AP//AZBw/1eDTGU+/qs3IcA83dta997RkPovvIj/zIo/IZncpujPZ317/+9XfXu971juTiJkNpkZm9/N3f/d1sN+RLmWaL8jgGrru//du/PbLLk0I6Eue1r33t7lrXutbuqU996nxn+8Jg9ur5D//wD7POkAUdZKuvfOUrd1/2ZV+2+6iP+qjdTW9609273vWuo7ijM53PMcPbjc572uojHvGImQd+5P+jP/qj3ZghTr3QfbZ8s5vdbPfOd75z98AHPnB3l7vcZTcGCDP95z//+ZOOrtUf+v3N3/zNU2PXBzEz0uMb3XiOAjoaOQwlzmvq/ZfGF/XO6p/BuaGR0L7R0BoGR/nPEZSnERk/sxQI6B9Gr3zQicOfmx83v31QXLgF6SZDZQ74jYo+kdsIcVTSuezh2wonsaKTPnTSzhUp9jDcgeZ0nn0JNGfwTyG9W+5ymMAI3lKRWYePNyt7uuZnv0N5mBkpBx9Gm92ghf2O3oyFW7gyUTbSylbMEtCbkUlT+iA6s6/kwAdNbnKK5zsysykzAyAf9q882RlbIqtndn0hQI59dhOfdJfNWs0RtsazhGZvx/d7voH7T//pPx3NdJJJns2WnDi1rOndJxJ0jhYdfvibZdZG0odvBfnZL7UsiEYdSa7yL75yTNZDhv/foyw4XsNAYRRvmuq4J6MOFIC9AtduuCKEQQaOHlt3FRdkCAo6w+l5sUN5D1YdBFsaUAUOGDusMQJVCnTc/HN7ehcunmfpCIO99wT8AT8yeIrv9gRLFvGUhopm2ceJOjaggdL44CFsjJ7nMp+TWdbNfQOlI3K7tCOwge8ynAbbytV77osZ5DmkYw2/RsySkuP6cMw+ZgNJr/YJHZnP32cA0RYOuYsPxYH8PdFoNLk9DSzxio/yLS37KPlLk7v4/OyZWLJX/+09sRGDWKD85AuyJ7Rr+Z4E6Aa9jk975IRm+zHVhRp6dPmVTmmxSYMiR7k90a12nZzc9G051LVXBlPyzN79skNetYM6GIBenWHn/SbFb8hdMuu4OP74+u7PaWT69I7ukOGfDcH/aQv1IQbHSinKmrCRhJ5fYfPzwSalOjJpM5DRUSzg51e7jA7wzygUGMgwLnbYFuO+fK80q5uRM276hsLqpOgR0r2nxr+42zToX7nxxwc9N/o1PbD1j5eLUH1R7r1yxZMNGD1++7d/+/wTqLVyaWhsPG3oshUHGczsxMfLqaPSUHk1Lsl1qdmLvJZnIM/u9zObYQP0zY8+q2f8lHn62QI6tmIkT3d4xys3PuLjk10IY1Pe+RcXL3H4w4A/PkB89OLbpzQLYSPtI7U3E6zlez5IBnEc0WYzxutsjj++5KjzS65mLtx4iA/Jk14BmfnRV/dwcuu4fLbgRhS3gNsfdaO5Qx46GgMGfPFyig6tm1CkSQYX3Lp9xD5faRs0WEnwTROaZmaHCicroasZNB4Zb8adUfzkT/7k3Lx0NY2Ghv8ZnB/oaYsreFcRGC2Drgy8r5UNXY0LOuEqVpULbcCNLj4nheQrzvoOuS3fsAffQemAyOupktq8ddOD0TV/S0R+COdbD3HP4B+hsqMXjaEGymZ735F1LZMG3Q0N/M0yoUbfoAAKdzcdP/T8vIvDjxs/DSbEVxwYD+HdAqHcPNEpY/HRaOR1OKUhPv7iodGIy4sGnn2ilT/vbKPO8ELgJLabHrN36akz0is+e5V2NuhZHGHst4NBOikzPZ2Rj4tf+tKXzrzjB0F2X5oQT6sE7ps0WMMf8JcGuQz2dVKHDgfRGVFqSqTACk9B2gNgfK6YN4Uv7AyOh7Uy0Vc6q3HfV9n4VQZgy0PYGg7iVRq9r3H3wZZOOas0NRqrf36WSTSMfiOxVizxHAO2dq6hctRVJ2Q5t6W8Sw0qD7jCVu+FK1cNOaDvypJ/tDVslcm2oQWlma1As55mRHgJL17884Mgf+9rZ5IspaMj0jjHTzuypgNB8U4K6Nc4Ky8gbO0QIBnoBxZXHG5P/vISLx0XWZvZi2+pzqlRcZwkdMzdgAHwSy9AR+tkoaVod0YaqLt9ZU0bTygtg7lDh4PojCogoGAUbkq11GJpZi2IM/jgIeMGVRSgHPgblaVvjQlg2KCyAvHgp9w8a6hOCmhr6ACeVdAqtw8I3U3oNg7LuUaSKli0gVGlb11scPueJfnO4IpAZzpvjXm2oIGD/MyY+CnLdMhG6liAsgH8NKqBuGiyn8oonrkBGumZ+fCXXmmWjif+Oh9uNkZOkI2QgT+74OcdfWle1YAnXPMI1roByEEeAyMzFLJCtptti1vePM2OzJhsQxh41eG2xAf4+VOym8D9LVnHlDzJBFYZDx0OoqauylIgChDWuCmIlHxaFPvBgnyHQboIt+FbYLjpLkCvsq9x6Zyu0fPLgD1XN8BvhXhVNujWwURygmjA6oceAv5hdoDGu2vyfWXuBgbpkFv65DYTevCDHzwbre/8zu+cS0BgK+/FCqve9gF/uqixr9w8dTK9g8KBcknXGkCdgEbRaBs/4ZVDulZeaNqLWnnjBbMDZaehhtEGaHQmnvHnliZZuJMttzB00itNYb2v/lvgv+rIO56FrXy4t0iOOh9Alvx1MpYZhZPdag83XqB88JNn3ww99rGPnd9k1QEBvO0lOZ3no2K36/t+y/2RgNzSxM9JRXXBd0wOMRw6HExnBAFlbwtTQ+MOJ6dbLiXI8K8sbHWaXoPCGS48Lq0q3+pe30HvhcVv5ZnbM1nQRrfyFI4HG1jjrRUToFM5HffV+OmodFrrSP1Sg8ogfa6QbsMaeRhEA5RBT41lYZ7488t/Tc/7itJRdqUXPSwcchcfKH/gPb81Xn4rT+5tWhcC4mwBXzqIv47T0zsZQ7oIkjHd6Wg8dUYdeAiiCZ38NLPXickHXuJ7AvbtlJ4DFpaonUwE5bc8kwmtjvDQ4SA6o9VYGnUxphTveK7TLJZnLtSwLjagE1gjAbY6WQ0RVNEhELeKBRhwFVDc4nsWthr5ivHZF1YcsPJQttyBdyPu8gZW+ni5DNXShe9c+GkQPHVEZkzuz3OJp1E2+hqIM/hHyHZW+0nvq13sK1egoWx0z12cFYEGUIOLFrC9lgG58VM2ZgFot/HPBcqWzdThnA+T/UJA3oG0ALnSEz97OXjzXzuR8lB8gD7kn13Gb0VxC4fpXpiOSbhbG9i7I+d0YF/dEmBLl+SSlgMevltyvPs0wEF0RqvBVCCeGhv/M7KR57y9K9ovJchAzwWMrkoJ6szp00yBgTJqgLYGnH/hLZPgs2+pBLaMomzQeZdWII4KKgx44l16ZPJOBvG4xUFHPg3SmleNmHDxhbvh2fUz/kDbHy3JAixpuE7Gqa2WQ8qL9M7gilCZpsOQziF3DWv0Af+VLuBe6VYQpgy3DXYgXmHoCj8OVxlCndoW+aM9Tq59wFa3dUo9scez2lJu8uC/xeMg/pB7fd8i0OnLB6h+SROoRwZo/m3k4IP/jsk3HZ5PjkOEg/jOiIIpzgeNlOor7RSu93dO3sdvNuzcexVcat8ZZaBAvuS1Bt07Q2xWiZYfQ2bQDNd7jUGVzXuNdhW3hkO4d6BCxg9tshTHOz7CK4/k4qfzki4Z+66Mu/IK73vf+84biMUpvhG2JQmdkOWIpz/96fM+NGFk9BM/34LIp7R9wW6d/LnPfe6srMGl9p3Rtmpv38Gq/8K37iBaz9zHQfHT62oz/LZ1Nn4rxqNn6fXcQvxBPIJ4bGGbTnKyPb9Y19Bb9m3pl+xszmCK/Za/YE1n5Rts5QL76MC73vWued+f7YnqKtl8Z/TTP/3T8zsoaBuDHD5g/tVf/dVJCxzH9+NLP7XUhh76Ut1BdEaAAn3I6At5nZHGCLo80ckSm9O+RGYEwaXSGe0zVvmq0tCJ/JoVAI09XflmQwNNt0ZV3K1BBxl4usOnCsMPcDeTQVNnBXRAwsXjX5zSjV4niY4/XisPNFC474We+tSnTn7yht5yAzuQL8sOliXwQC+ek3Zufkav0zST9imAyrzCpdIZydM+WPN2HM1xgB6mu+KvfFb/7GAt4xWShY2gRXdl5SvehcQJkjnMz+BJQ88enWgTxr7kn6zaJjbI70IA7628PbdQvZUOcOLQoNJnDj56dTM9ezdI11H6JtMfnEuDnOLokHwU277SocLBdEbE6Itn12BorDR0rg3x11G/6dUQaWgy9Eu9M/IOa5hVkJbo6AQKU7F06N7piJHTj3dxwOqPl/d05ykMCE//IBog3eJ71tDw5+avgvCLDqhQylpH+ZCHPGRWLvTxE8fvB/yZ1getOh6zaHkzazIz8pGrOG6Ntp5uXwnPFc46oyuWVbCPfqsHNPTFZoQVZ427+gPv8eG/hqXv/FdasKUHK69gm8aFgrilFWbfOgJ2pMNBR+bsuM4IbemvsPptw3svvX2AxozHvXb9XoLuyeAknn0je0F+6Of7JHL4pEHHo04AR/etGLhKzXVKOqxDhvdbxAGAQlEATYUZgIJ3zYspsmUaI+TjCu9SAPo5DulF4+vJaC0hBCoOZLAqUPpt30c8uhbmCflV0SCeoAaeHxAnWnylzw3Q8Ct+PDyLX7lD8YqrA1Kp5AN/8pvtmT27tFM8vMkqD+41dMTVQMYpJN+n+S36GZwM6DPgXt9PApXhFuO15ZcfmmzkmoCtbNxskM2xPfvUbviABkOOUJuZWPbSJrWEdy4U7zjcRw+FScMgspkYIJvlts/93M+dcuiIqlvVq5D8rhUyoLfCcOhwMJ1RjRClcTcaMSPys60asksZqjgr0lVPDXNGyW2t2W3H/hljdOV2AsjPf2gcCID87MEYBUYD0ZiJiFt8x6jR8ofe44Gm/9t4eu/GZcgdLxgPty/rTPj5NkJeVEAzpQYnOhlr+L6rwKe86ojkz5VRZj3u4/J9hv/n9F+cSw3WBmnFFc4Vxp72wUpXPGWzdib5g2z0XBDNli4+K66w+p0knW38Law80BpkWWVgY/IH2BzbrK7xr75Ft+pjH65hK/1xWEekXfRORrMcKwguX9VO8jdA6146HSn5Sqe0Dh0OapmuAwwaUe+UaLTrK2PGYTPxZS972dHo/GzP6P2VgkECI6GM0P6KfTY65QfSxconI0dDx9HgvVa0Zj/FjW5r9GjRoMV3Gx+s6QOVDY2ZmsMH9oTQVIbScIuxG9rdwGCPyM/g0OBrLdwo9d73vvecSdu4tVZundz+U3CpHWA4KVRe5b2yO04XJ9HRqttz0aMB++gK2wL/48KCLT/u8/EL5T3a7JKd4aGO6SAAu4weFAcc58Yv+vOBwZk9ILcrtPwubUtz9odajlOHH/7wh89LUcUp3+qFpTuDsrOZ0Qkhw82tsCidnwI3+vZbYlesC78UQN7lFVaxVgSejDtdWeNe9WO67z4/ejNzacbSLIg/dA8WNMNppiOcG6JZZ0DRQfz4RY92jcvtHzj8V77c8ZW2U5L42D9qNiRP8qgBsH6ug/WPGBdpqlyNCq2f66h88OrQRv820hGfwX6g2y1uYfXP5rxnl4VFt/qvdhrkt/qv7/GBYEt/XNhxeGWgeOyKWyfEzd6g9PnpoLjrXLbIfx+u8p0PgU6ogVx+2sTkUrdcH2Tw1acv6QjUcRpoHjocRGe0Kg9QYD25JRnHc10GaClHQZzB+4FxZvjcDDegQ0ucX//1Xz/Xnq0x20OB1r016EZWGnANvGPTK404nvyF5+9CRstnvulp3Zq7iqIszUyih2g8o8c75GddWxrCXFtiprRWanlxIze+Oi9Lc8Kk5em2Y7NmFdJJTB9H+y+SpcGAfFCc8DgofG1cV/r8LwXYp6etPvZBtpldbKHyWMPjuw+3sI2be+sPvO/jdT4/qL2Rj2bv/HQENe78hEPufch+xY/HKqNn8WFhhavTbVkITybps2+/aTdQVy8d4QYrP+kl86HDQSzTJYKRrKUUI3wFZ//AyRGnQTox5UbmGoKLeZlOPtJLeTmuqBjnmm96YMB0aDZhPZlOhTXC80sON1v4psd1/HQovFEYN57e8bJpqgKY2SgHMxF/38XLB6dOuzVQUF74kgeqjFVefMklDSgMjbS8f8/3fM/8sNU7WsCNH5CW/aNGhvhaP1ch0TkC7s/ALkplG89//vNnPLMtV+w7Eite+ZVmegOrLOk12miMikFH6U8jyNeFQHrZwrn8wRqW3xbQnIvHcaCMADroHR/lVdllX8LYce9gTXcfDRTOxiCbM4BroAzQsItsnzueQTRgDctdGOCXv/1UNmsAljxo3c7tG7of/MEfnMt1PmFwXRq7vNvd7jbrF3DLPfs34MPT6bpDhn/UwjUMFQJDUvCWa7y73sUvAqx9+l1xBXUpQAZ4Eqgi6XSMplQofhphsw2bnj4c9m4fTkdk+au/a1pfFg77w6an0zouZOSmf8avMzBLUSl1HK9//evnXzjrAHRGfpDnj73i2e9xogcNvv0ptHfp8+PW6dWoyDt78FSxVEIdIFp5hcLRk82hBX5mSfLcch/gr8GglzqXKjfAYwvCok2/5MKDn8YJT2GnDeXjQvC4OOfy34blt0Vh54PqAgTi5FYuZsvKIj/Pyjb+3pNlTTO+xdX2aIOSrxOnBh/sQVz+axzv+0A4+dRJ8uGDd52XcPyE8wfZFNjaIHr2p8P58i//8jkQU+esLAjHS/x4iKuew0OHg+iMKC3lU7ZCaU1WQ2UfwK+mGckZ7Ae6YvR058l4PRk/3Xp36sy3XE6e2Veha8bqiYYB4wPQ84f8LX05NKDRx1O40zs6I0eub33rW88DBA4NWNrzrZAl1kaZwFO8Kgq3J36w9ILeIbnMkg1MdISgfDqN95rXvGbOrHV6fjTW6FU4KE3yAO7yXL7zg9EIk366RUdnNUpncNXAWtbhCnS94lpWvVfG3rmVWWUbD+8QCEcfCIfFA4Urb50R++HHFthsdgHinyzCVn/PNSzaED8dX+/FTxfpxdVEbF0HZHUIimcPtjyE7J/MZ53RCSGlA24FETgN5b/ursWw11HjcgZXBHoxE4BN0xuNMUbh/h6pk3CtvPvcAmGMXGVQscThpyws8+mALM055Sa+AwOl4enovfAqKl51ckClUFnw5od/FVGajQrRBei8oyMHGj/W++Zv/uZZ6fAHaH72Z3923stl1uSkkTg6LLoI5Kc4ZDGwwdNMUtrCxSOPp/TlXZ7JiaaGQjiQ93R3hh8cXghkN8pDWdRRgJZQlZ1l/soMZmfcAC2/oLJlNxrvbMZeJHtK1uxZp8A+DMaKj2dpkQGtemFwhB++7CZby96Es3NLbuLgwUaF1yZW5xz2UQ+0i+RBY8mupezk9hQ3ez10OIiWndIUAMUqeAXDTaGWXC6//PJJcwbnBkbHYJsVZJCAv9N1jNjSWZWXnlVQWKURj/F7t0Zu6UzF4Gfd2ZORWy6zx/NVX/VV878rKjF/vAA6lVNlxRM/5ZxcpUEWWJlDdFUifN2soBJKj/xVcul96Zd+6fwBo5GiD6P5xz8eucWTxxoFvPlpWEBx0Qpjj+TiJiN/70A+q+xn+MHhlQHlECoLfLJ3ZVVbwgbZrzKHyltHAdha5ZmN9g7Q6ljYh2Vn6aBTJ6A0YHHZifjZVp1NvNihcHKhKX280a6dnnBPNNVpvCxnu43G4NxJ1G/91m+dB4QcAy8+u5QWkO6V1fGHEg7iAANFEcPeg47HWfkaRxvj7qszgqVsv9lNyRf7AYagPBxXVPQn75AByztalYhfBu2dkfqq2+zIbQYveMELZmVCX4cAvNO/I9WW9n7pl37pshvf+Mbz4lrfgt3udreb3/uIg9YhCUt5Kq2ZlFHbAx7wgHncVGOgU8MvSF5ykVe6+DzoQQ86GuHJF38NiKU/X6U7OecQg01d/ORHnEc+8pGTzqzJxq/Ki49TmPH3vYWDMNIB/MhAL+yNHvDkh6/wbAvk79SfPTZ80GRrZ3Dl4Xw6pOdAObANqHx0NGyZ7XlX9msZ8/duIOWp0Vfm0mQzOo0ab1i5wvjwFwdvNiJuMqOJrrie8SNTdrTyB8VtwKaDi6/vLX3AbXldWPXc4MtFqbYunDS2YqAOWK720z1tpTwamBmk2Vuy99vy9sHCUMQ1DkPBE4dB7UYlV6q7UVi7UQC75z3vebthKLthCLs73OEOMywcndFuKP0oPjrvnvmdVkj+NQ+r34ryTD//7//9v5n3YbTTz/swzN173vOe3Xvf+97dqLQzfIwKdw972MN2t7rVrXZvetObJg3ad73rXTOM2xPtM57xjN21rnWt3Ste8YrpNxr73Wd91mft7nvf++5Gp7Mbjfik/8Vf/MVJp8xuf/vb78ZI76gcyCPt0SlNP3HwIhOUvrDRaOzufe9770Zl342GYz4r65/6qZ/aPfvZz578s43R8e5GZ7gbFW43OsMpBzf/URFnGB6jI9yNjmY3KvpuNCYzLsw9Kv9E76NhmojHGrYinZS/M/zgMfs9DtlL9Tp6yKbgGARNmxwdyyxz5a38lH02kL1U9rnRjln9LHtlyw8f4d49r3Od6+w+7dM+bdoU20AjrLTQ5+fJdoVxe7I9fjDa6Iuzusdg8Ujutb2Dwkfnsnv3u9+9GwP33R3veMepH/WHXUajjnDjea973Wv3x3/8xx9oRQ4XDmJmNBqsOTpwwssX9kYC/EbjMveKLNUBI3L7A8LA2czo/WDEJEyejQLRG+UDOhkV+GhWBNCZ5juQ4JSib46A8FH5phtPcZy8cwzc0VEzIx/Z+XZpVILLvuM7vmOOKtH6vscMCg/lZ8RmlNbX3/wrt/LTU3xALrMp+4TKVLh8iWck6HukV7/61Zf9yI/8yJwZlWc3Tfj5on0jx9TdwgAc4/7lX/7lSbPy2oK04Gjg5jtaMtEFf7Mm8fh7J4eDNcLxhGfwwUP2sAX+IVAWITAz8smBPSKzcP7KHHBXPuKbCXlX1tGA6CC63MCsXrnjXV0D8WLbo/OYYdostPyTY3Qqkyc6/uUl+dlR4XCVHeAnHIhvSdyNI06XWqqzPC19NzDc/e53n3LgIZ6npXm/ZvEt0iHDP5bGNQwVnucKFOvjLte4dE3QGfxToJdVNxk2YOywSgHoFfJL9zoNDa8KJcz3Ok7M6XgcrS5eFYyxq9TiC7d0h9aJNn9ftWyQDJWt9HvGwzu6Ko936YAqZjRkEzc6oCHykauO2H1dvs1wQMPeEkCPHxnEKx2wutMNWN11SoHTiJYkdcRQQ3CGVx5PqsP0DZWJpxObr3zlK2fZK98wWMucvazITzk3CAnWsgc6oTGTn7yE4QdLR73hTyYdF97RerJb9gdLe5sGv+QUp/j7EI28W7I22OOXTPEH/IP8DhqGkNc4DMXPafdo/HYf//EfP6eWQ5G0txuj3blU11SaX3i2TPd+lGdLVC3DWdqw/PW+971v+o1KMBGtJ7/73//+u5vc5Ca70dHPJSdLZcL+6q/+ai6/WQawBGApYMx0Jr+/+Zu/2b3uda/bfe7nfu5cDkM3Opy5DChNSwV4v/SlL9197Md+7O4FL3jBEV+ycJMBHXn5W2IQJj35UKbKfnRUs7xHBZ/vz33uc3dPf/rTj5bcRmWc/t4ta3z2Z3/27td//dePls/IY3kCH8tzowJPfh/zMR8zEQ9+H/ERHzERnw//8A+fz+Lgi250tNOdTYo3ZodH+qwczvDKIR2Gym6LhUXPZlpafsxjHjPbC2VWu+E5Oq9ZhspzzJZn2So7y2TZjHK1dCaO98qcPSh3dCF+bI6/5To82SZ6y3j4X/va157Ledx44S0uOjYTL3HQbP35sU1xobTkCw2ULzb8FV/xFUf1pfZOvVM/ahvRiiNv97jHPc6W6U4Kw8Bmz+3svH90uPbH+1DknIL6n5GrLiwtubk5OFumez+Mino08jdKQ+c9PUAzHs9h3HMk6D8pdOnfPz58teSA3ggQoFMWTrC5Mghv4eJaIvPNj018uh+N/pwRScPo0Czlzne+81xi/eqv/uo5MsQPksHyH17ieia/MAcMLNPxlw9+8uTDW8sSbMGmrssjA3I61u3I+WgAJl9xffPkr7B4kF98Bx2EmbkJk55lN3JL03KkwxfoOqRAfkfaLfmhkU9Lxj4AFn4GVw1U5kFu/uuzeu7pDkK2LGw08tNWxsBp2oPZcbbH1v0Hy4WilpsBm7fs/1M/9VPzQI9NfraylQFvh6vEt4zsEA8bcOuHJTOHB8yexGV7o2OYz5bx2Jl7F90hV/0007P8LY6DQNUJdhhoB6VphUGYvHiqAw4e+f6Sn9ULh3Ve/vKXz7oJpFE+HvjAB862k34OGQ5mmY6SK8yAe4ywZ8G5kFMho1vBew0xyFBBBXIa8UKADuSbfhgnPaqA9McN+EN0/MWRTnrvXWVpGcTtF/4N5KYEd8OprI6VCnNSB9rns3wqPgTS0GnhC/HlJ32VeM0fd/JWjtEH/O1rsQMniFTc+AqzHKejsV/kHY2PcV3GGg3Aw3dI5HSfnn0mgxw3RliD14jh5dSmXztDYbe85S3njQ7JWj5PAuLAMzg3ZD/7cAvKkx2BwtMz5Gd/RNnpONjrmHlc9o3f+I2zg2LDTuy6MFj7Mmb/086VM5tnI+I6wWkvlD2xT38PEF9dsC+Kt4EQ2xNPHB2F02s+AncNj4/LDeZ8iycMjUGTrQenQ+2RS0/awkKdHJq1vjRgUjc82aKTq/ZGLV+z79XW5NmStU861OlDh4PojFaDW92U7Q40he+qGR3SNrzCyQhzA8+1cE4jHKebFXQu8mlWo8GPrvyHdANryGEzovRm7d03D3i658rHdK7ZcWjgh3/4h+coTgVWeY0yHRbQOKh0jnf7BcTf//3fz4qhAuAtPZ2TCgOlBTzFlS66VUaYnzgaDN9S+NWyEWMVM5p4kMFBiic84QnzgAY/4KkT04gYCcunUbU9JrI5mGEEa/ToOCy96NzJwQ00DHVspQtKH/AP898XdoZXRLDqK52BaPJXXs3g2VZgdsL2istuDJRe8pKXzL0lbYhVALMksxIzG3H8DdUsOLtThxy1tirA5tHaJ+wbN/b1pCc9aXY6LiMWR2cF2SW7Z2sGQ+Lj7WePQN3C1x2KOiO/x6/OygtertuyumCFgFt+ssMGmQaNbJhcT3va02YH5qAXuvJv9cLM34BLGocOB9EZqeBwVaSnym/6aflOA+KWZzRAYSgU4Lm6VwO9VICh6iQ8GZ6KqEJwp7MqPX9+dIWerlVw7zodHRAaYUZXGb6Ki0ZcvCydWb7SEVm2UjEtz/nuwYETla2KVLl4Fxc/8QLlLz10QXYB+BtB+rmewYn3Zs1oks+yiyU43yIZbYLS9ct6JwGNeH27Rjcqt4qvQXL6zwe8eJn1/csPfMy4gjj0AZMvFAa3/itGc4YnR7apLQiV57rktLYF6AEanYHTZWZJOgPlqXPwLRr7tCR7+Rjk6ECg8mFD3C984QvnJaOWyXzrqFE3W3HnIvs22LGFgJYNqS/qHPnYGv62EAzYdAbo2BRevn0zmzEbJze7z/adCGS7eEnDYSD+6lD1L5t/4hOfOA9vOGmqbZT32j51DC15xJX+ocNBffT627/923Paa3QNKPe2t73t9DOd7Wg3YIDuQlNwCqARA8Wv0IjjNMNaRHUoIP+ewuhs1YG8a1xf9KIXzatGovERq1Gj0RRdZrAqKLfGOp0CFSFelsDMUixFMHY/PNTQ4y3u9a9//TniA9JSvpWNdxUPPxXO0hoQhr+OxMhVA1Rehb34xS+enZCK5zg62XWURsj3v//9Z0dizdxI0qzM7e+Onru5AV88VGwNA1uydEJ2DYOPZOXdkoblO/Rk9KRbcaVhD4xbXtx/p2MEaNYyEg+s/vKSf/k6g38Kqx5XSJeQHqGyMFNuH5BePfkbVGigNe4GSfYSzZDMnDpxWRy8qjf2X3xYb6BksIOPuD7+5o+fZWv+H/ZhHzZtQVyAj/qRTek0LPniYzb/Mz/zM7MOml2xQXEboIjrNgX7kuzSvhY6S4P8ycpG0UnfoE8dUSekwW0fSedbvszI2KiPtL2bKR00DMGvcRgFMrGPXkdDME+vDAXuxghinpoZyp6nu/gRezSUu2/91m+dp0qcxkIToB0jlXnKZBjYqcf0A/f5yy/kdqpmNPRHND4GHaOn3RjFHZ3eoT84DHv6eeaXf36eo7OaZULn0ThZ5FRQ5bEiP/TSKlw6xU8OYfmXnlNFThIJ4w+5n/SkJ+3GLHl3vetd7yjdeN/znvfcjc51njJyokjZQ6fpygtaH03/9V//9bQVJwN/9Vd/ddrUGP1OvY0ObtoTu0mP9Pf6179+Nxq0mW76GgOko3TQoQ/xLyzkNxqZK5wOO8OTI73RH12mR0+n6dhAdgqV9egAdqMhn6dD/+Iv/mI3ZiS7MUiaJz2duFRmYyAzP7TuNOdb3vKW3RjQ7G52s5vtnva0p03+yp//T/7kT84Tm2MwPMvSCVJP5S2up4/GnQgeHd1uzMAmX3KyuTEYnKdQnTDlp26Kj2YMvnejw9k97nGP2930pjed7aC03/zmN+8+8zM/c+ZPfVEv2B87lJcxe5t09ONk62Mf+9hJG9KBfP/hH/7hPDV76HAQU4ZhYHOEEOjlR2HNkYVROxgFdzQCGcZ25BY+GqzpF4grHB+I92nEUT4zL71zQ/7Ak7+8Rp8e0AGzBafd7LeliwANPzAq83wG6RVPNMPoj3TOn5/ZTbKAePBDb+SHNj+yjcp0xEc4NxTunS2Mij3DywMe9q1822NW5oohthFvsz7hllLMpMkF8U1naMX58A//8On2XyynjIxQLd1ZyzdyRCNv5ERnhOvuL0t58eQP5QfK9+qG5T3Eb9XPGZ4fg62/MlAWgM57Zkv0bb/TKTtLc5b6x8Bjnn60dGzWy77t7SgTcfipK5a+7BmaQQP2YGnN7N8s27c9AF9lCtQp9mNVQZr3uMc95ioOGwBm8pb9LLs59LDaNf6WHH2wbbZv/8cBB5AOpAPlWVpm9fLkWiA85N3SOh4BP7M0afoBH7s/dDiIZToNF6Ow4Wz6aUpMLIVpbdXarPVb01ynYBSABsPSDGVXuDUGNUDi84OnEchND+UPlEdQPhkofwYbPfTutJulL/7pAoL4eF/T8U53dXDRgfigLSx+nnV23MoJjfL1xJNM0QTC4kdWy7Xi5gelo+Ow5m/Z1k0MwqXj1JtlRcfLNRLsx5KMTopNAfEtrVnK0Cg5sKCC8rOMoqJbjsFP46RD1GGJTxaNEXcNjMbG7RTphoxBOglB+TiDk8NWd9mDJ2RH7MHBgmwBonE4xQEDy7rA0rGyVrbiodcBobW0y16cnGML7IttOFLNhgyELYf5TKE42h+2wG3pj03ZXrBELD4+HZbB38EJ9sv+pc1GuD3ZnnYPjQ5FuGVvspPLoZwVnN6zZCwtgyVpy7flPDfzc+MrD5b5LEmK08D+YGEo8xqHofw5dTU9tQwzCkmtnfjd3/3dc+nl8z7v8+bHaKNhmEtAQ9nzfjRxh2HMabcP4dZlkmF0k6/naUXym4qH8loYt3zKs/yjhfwsQaSPlYZu8EFHd+keL5hbHIg2OihdfoUnT3xWGfOTJlmkv6WNHi9LJt/yLd8yy9+SxBg1Hi3t+Zjwfve73250Qrsv+IIvOFqiGxVs953f+Z2TnzQswbzmNa/ZjcZj8kGHx2g45l18bOzyyy/ffdd3fddMF5KLfsiCjw98Lfv5ABetZZa73/3ukweebG90flfQZbxCfvIaes8vXZ7hyZHe6DWbYS+Wxx71qEfN9oAtVD7K3Efd7mqz5GZpThlD9cLSmCU172PgMpfmRkc1l9bYj3L6kz/5k91o8He3vvWt572IxZUuWxFf+pYA3dtoGXd0gJNGuKW9F7/4xbub3/zmuzFrmR+Hi4u/pT+Izgflr3rVq3Z3vetdd6NTneFj0DPz5b69Mbia+WJz8gbHjGim615JbePnf/7n737u537u6KNXtOKMzm0uRUuXDg8d/nHIew3DkGWONkYBzZHLUOZEp1dcS2MK3NUXwxg/EOv9EK0wcSF+owA+QHG6Qb7CFfIzCvJMh57DaOdIbVSYqZtGRXSz0nunT8i/MJBe6XHVKxqzBXTKS1xh3IV7Am5pW47AC21h+Ba/tJNJPkCymAUbnRpd+rBvlU0cdEat8g3wFObdCNFhB7NEo1bfhFi6tIwBpUfG8mmz2dFb3xZZdnEKSrj0VrmkC5MhNx6jQZvP0Ds8g6sG6N8BAuVCv8Az+7dx77CTZS+zgtGZzMMDQLzK1EzcQRffAVmuZSfAbANa/rX0i7ZvddipJV325qeO7n1zoMFBCXJJy7KctNlts2/lj4/ZO1SHfGBtSVF8B7Is9zlyrl6Y9TlQgyc7Fl/+5JMMjn5L3wzK8h95QDYIxZPOaYCDOk3nCLflD9Naytag+MjMFNtU2WkW01L01lkZkKOTjlxSeo2BwhMfcJ9WOJfswuQ3zAA1mIDfGKVNf7pRyegETfqB6OogVDb03KsO+YHSqSPyrnJIE63KIpwbjbT4ebY+X7i4ULj3/PxG2fc+xZMOXm6KcETXsVpr+D5YRC/MqSlr+TVMOhPr5DoaNCopf2vxlvOgE0lsSvy1YxNPBfdhpMEPvT33uc+dJ6T6iFY6PgDWAHiH5ExHEMhTsM/vDE4G2Vo6DPhbOh2z3VkmwrM57YjOxX2JgI2zVZ0AWo29LQCn5pxas//i9NmYNc2ODB/f0Pl+R+fFPtQj8QAe6CzlWV6zJOj/Xj6c1kmIb29HR6gjQl9dgUD6lov9gt8elQ9YdWLeXYDqpKllNkfRAZ5AOugN0sesZ3aWdKFOOOodnfw4heo0Hb86q0OFg+iMasR0RtZOdUaUy4BsBv7/27t7XCmWJAzD+NjAgvCw8LGwwUNHwmAL+PiIHSDEFrDYAKzlTD1152Vy+vbMHEb30oU6PinVVfkbFRGZkf+tV62BqleAZPP7TjSbxyUcwpaHMGlT4N8VaP+Zhgtf8AcfetfQUlY9NfzyLt8MQJXCO9Qg9wzix9Pe4+85kBmouNHET+eh8jkon+SGJhX848ePe6Xnz48hs3isghoVORPUdUArzb5dPsqVb3oF3p3rcJ2LBkk64egUFl3WJlVy16fQK+XZOqyRAvSo1NIox1krveT4BaffV/6D/47/xCP8g3Ph1gfdVFD9p2+cc0VdRcVJKx9y4qzz0COGyNVB6ghdYJycLXJsQXodOjIXxunAgGfHSsjetVMgf7MR9MVGCZ1laTlAR+/oUY5nIzOwgULHR3qGzJqTg7oMlrSwfgO/9Ft+5U0vveuk0+MMbccojopDGCMk6MX62wH75AkBMJaw/Rq+UrK1cWGk6ulo8ChUYRwc4PP+L6x09y1w7nsKxxtKKk7x+sXD+EJZVzASUGWB+AzSyEcjrBJmKM6hMoTL13MV6Rzt4oi70iu+MshVenLXY9QQmMoQxl84P8/olq58+K3lCWfUGEX5rWG+CR3yokPCxaNf4untojE65SW+UdO6qynelbd3Di2n9Az+DPw55VG841aIR491Uuwk01kgH/H4azfIjzEp7Zq3Zx018qkT49e7tsYvveB/WnbQ5ggrPaCBfqor9IMupRviq5/S0FVhoJwgTF5GY5xzTehBK8iHq66u76E8ODTo0DPODO+RcQhjBIyR+dOMEbIwmSAhZsfkhIDxHAXkaowphfCDfN5PY6Xb94Vz31N435s7l47faR7SQZUZ1jilwVtx10b/FGv68i3uuTTFgWQmD7KsEvM3Cral2/SaHUcunhSmQovPiReN0veuYRDPrkwHBDVg1gz8z0tlMjjydW2MEZHerjjCGTE9VtN3xVeefO3OczVSjQz4zr412qTpfXAeq36c8g/f1zpON3Qe3BhihKGhFwekNUVnzc+as2dTrtKBnWpuSCBjU7eVJdwUrzyNwq0t1lHxNyXycr+dA6nikqkdl6aN0Si+9SE0SmeUZKu46VwjLfmI5zogeTESdDqjJE+dIWtFpqTRLS876oyapE2vId6gn0MP17t4ws0GuKRVx/3IOJQxMjLSQDBGmEh4GIrElekQ03sGcT37TRAH+by/HSu/uPziQX5HxCq/VWb8VVB+bnww9WGqzeYCFZoxUJlNQeo9mrqz1mM9RwW31dU0DmNi2sPcufTOnKiYGg/rTdKaImZsWn+wKMwo2e5rqk6j4nR8NALanEmRB1rzj999B/81fPC/sdZbfMNPDbGOEL5r7I0WbGW2fRriMdmbInMbO8ND7nSHEbGJRTvjl/wZKbohrbN44js24M8T6Yp0pgEdN7BeKQ9+jBU/ukRv3OptfcfUnfIdQbGeJY2NNy4rVRajRsdMBXuXlwtVfZ/1J3RJ40Zu603KoXvWTK2LWj8yWkJbIzJO+YyfNkAaOm0NCb0MqI07RlqHxvYhh8DGvH2L5aNHj2jhvjVxazD2bbmbouzbfP1uyraH+RWP39YY7VuBxeXPjxN+Lc53bxX0B2/ig/ffhRfn6PW+GZPbrSe7b9XdDNB+S4NvdVvHly9f9i3dWyOyb4XdGoNdl2y7ff78+Y98bHv98OHDrivv37+/ffv27X5U4NOnT/vJddtgbRt/8+bNvlX227dv+3ZYJ+ofPHjwIx8u/q4OnTn081vjF7amGffvLr5x5/i9vp/T6fv37+//NVTcx48f79u4t9Hw7dOnT/ejA27hePbs2X7bhr/v3kZHu/5sI6t9a7UbD/z3z83Nze3W+N9uRuX2xYsX+00d0m9Gbt/GbQv3kydPdh1zy8NmOPbt5Jux3LeBOzpAj2wRf/Xq1R7u2RZu6bZR3X48QF6bkd23X797927/byQ6R48dT/j69et+dGEzXPt2cccNbO2m3/RTWk4+m3HaefD58+fbzYDt/6/kP75sQ//+/fs/W9rj4jAjI70Jh7tYeDfiOvG+Vd69p4NEblPA3ZnPN4Jyx5Q5UcN1vQRO70maa4NvXnl16gf9HhHRaoeRXZPkrLcY9H71dPVETaM48GdK1+WpptOMXmytpTNGRkZDepzmyemHm5aFmTLhT9/quVrYzd9Iyt14wozWhZkidMjQTiV04aNerfvq0Az8IX7nQuFHlsGlES+B7OMV3sVXMJVlXcaWfZtdTJVaH5LGyEkbYLu00ZGRgZGIEY8brsmNH10ysjFCoRvKcIGukYqpOyNiI23TcPRJOhfvugXEyIoe0hkjFPHpSyMuecnfaEie/oJCGUZcRvL0CQ3y4E93TTO6O1GYkZwjGUbr8jRKMipSvulpyxl0dF26QItNCs0QaCOV5UC4EZFRpHpyZBzCGGkYkJEAzKe6yJMCpqAUzdCcoDU0W49kVwLDUo2NMNM24p0q77Wh714rN6z8OA07CuxmMx1GhmSKZhXJWQ7TYRohW2cZIzsvyV9cU7s6Meb8pdE4MU6mOuiXXXp0wwaI9EpeDJupPeeXpBNX49G2Xw2RxV/GUOOhLEatGxjKK376lc/Kayj81H/wL8QjWHm48pef+m5jAjmYwrJmpE0QpoEmZ1NTGm/PZMoQWdtxvoyhIEfQztA5cNbHbQU6IdoSuiR/27YZCY06OrRRbqunk4wN40dXdaAZRjrpNhDHUoSBHXHOHVlTopN9h863NGhkULRrDJNw56K0haao/ZUOmsBUnbw6usFZ/xKPMdpG/vcePny4Xxasg06HrUExakfGIYwRplIiCuMeMI0B4VAY/kikeN4xnp91Ar8aFMKnJAQvvLjyGPy+IGNyVMHIVYXX4/Mc6A65kzkDRObtPKITdKO59XSn51PVl0e6pKFQNj+uBoIfGjRaGiqooRz8tVjlc8pjcmYsGAUNNjBIZK1NEF968jZ74j0DlvzJGjIYQL78hdee8JN+jXcKcaI3Wv2iKd2hz2hIP9EijjKAsUGrONLkz8932TEojWd1QRzulC71AGr/bJSwicG5qSPjEMYIMwlIj8NuJxcGEi4hUCzhBOCdcmmcGpZLR6AUSBrhCZG/zzvAJ/4SVAlg/WZ8CfkfiScqIfmZfvFbg7HSqGJ5Lyz4NvrBT8Une3H9iis8ffDOeacn0pVGpcY/8Tl5+E2HxEnPQM/TYeyVlsGvATlwZGRzQeeMyKL6r7EWR/uQHMk7+YnHnz6UF3gGea2y5e/9NI33DEN6JiwH+StbHt7TJ+AnbI3P8Zc3eEZz+aKBH+e7vKMlP++cMFOWY4zuCAzTEzUPap7XlAtGMj4aKCRqsCgcBdBzSLDSQsznR2h+V2FfA/peWL85BYb8j8QTciU7FVqF4tBL1ugUxk8FXRuN4vJfGxrPpROvSlw+wmoM+JVv6YUXr7yAnzTeTX2Yvils8GuwysKz9RGdWHIkq+SlvRCHMSJfIDujWuHaEO/i5Nb0oXLyW/WIznivLSqOPCBdWdNmXKSVD9BP/uKlq2Ft5/grFyrDezoM4pSHtMKtr5tSNFV3ZBzCGFEYzvwpC26uHjNjsmcNVsoS40GYT+ASgPA1zuAPPsEBxH0W6EuWdMHoN2ME5us9a0SAbpB1+pC8q6ze1zzPVeI6N8U1SkrHPKvUaJG+vMR1st16VVf28x/8/SAH/E8eOi/OjLk/zvpKshWHbMmYDPmnAxbxPVufhuTarItOceDPSKQToTTy4SDjB6sBpKfFS+f8Kkca/jrcqzHKSKWXHPAvTBr5qAPy9I7GyiutMhijly9f7iP5I+MwxgjjTMnZn09QFI2jJMIwG2Oz9gnbMyFIo2HRaBEI/2sCMXIpbu/AL8cvRT0Kj6q8VVSdEnfUubIlrD3K0LdK41lFJn/5dGtCoDugLJCGnlQmvtChKjzdk8azBW3lK0N6V6wwRqY91kbqrojuwc+BPPEb/+qI2PVmZPT69ev9wHK6HY/XOpGO8aNH/JO3vLjTOuO9elLZwF86yD+HtoxgxixdlCZ9lUdh54yRsBXSpKvS2OmpLLq+dtz4ee7dpp2bm5u5geEuIICEhZGeCQKDKQ8haAQILOWJ2cKKK50ebRBP+DVg5cf6Dvxy/PDJc5Xs0iA7Mqyi2nnU7rdk3XfB+l2eq9x0ROeFzhhZ8ePkQ688K8dv6SsT6qHy13Nm2EzrMFKVIb2dUnZR0TXlR89dUfmDP+McL+MXOaa75EYW5EJWdpA59Am1IfJKvp7F1+H1Tk/SBU54z+C98uiENKvuRId4nPDKzOBxxQVxSh+E0X90lt8arzxOIZz+ieubQFw0llc02UZuN+DcTXdHqPCMko0JqzASZIIC4eBdOMePECDDlCG7RuBN/IoH8RBvPMfHIwBN5I8uz6bjGIIq9kqzZ/C8NhAZE40RfZKWTtTZES9jU57Sg7zqlfK3icbup+5GFL/yjZRA+OCvBT5zAc+TbzKDVfacjohw/uQuzHvyTtaWAMjY0QBpyFw8aejN2oakN4V5jhZ5eZeWn3LEN6JO7/jLB9BVhyha0jW6Kh/v4hTfO/+wPgtHv/TKLq7yygsdIA5X3kfFYYzRYDAYDK4Xx+kaDwaDweBqMcZoMBgMBhfHGKPBYDAYXBxjjAaDwWBwcYwxGgwGg8HFMcZoMBgMBhfHGKPBYDAYXBxjjAaDwWBwcYwxGgwGg8HFMcZoMBgMBhfHGKPBYDAYXBxjjAaDwWBwcYwxGgwGg8GFce/ePwCNSkZcrRrhnwAAAABJRU5ErkJggg==;movable=0;resizable=0;rotatable=0;deletable=0;editable=0;locked=1;connectable=0;" vertex="1" parent="1">
          <mxGeometry x="-820" width="820" height="865.02" as="geometry" />
        </mxCell>
        <mxCell id="XjjyREhmOFZzSv4XFWNx-8" value="Дд1" style="shape=image;verticalLabelPosition=bottom;labelBackgroundColor=default;verticalAlign=top;aspect=fixed;imageAspect=0;image=https://cdn-icons-png.flaticon.com/512/2143/2143136.png;fontSize=14;direction=west;" vertex="1" parent="1">
          <mxGeometry x="-446" y="170" width="72" height="72" as="geometry" />
        </mxCell>
        <mxCell id="XjjyREhmOFZzSv4XFWNx-9" value="Дд2" style="shape=image;verticalLabelPosition=bottom;labelBackgroundColor=default;verticalAlign=top;aspect=fixed;imageAspect=0;image=https://cdn-icons-png.flaticon.com/512/2143/2143136.png;fontSize=14;direction=west;" vertex="1" parent="1">
          <mxGeometry x="-620" y="270" width="72" height="72" as="geometry" />
        </mxCell>
        <mxCell id="XjjyREhmOFZzSv4XFWNx-10" value="Датчик света" style="shape=image;verticalLabelPosition=bottom;labelBackgroundColor=default;verticalAlign=top;aspect=fixed;imageAspect=0;image=https://upload.wikimedia.org/wikipedia/commons/thumb/1/13/Photoresistor.svg/440px-Photoresistor.svg.png;fontSize=14;" vertex="1" parent="1">
          <mxGeometry x="20" y="242" width="122.5" height="98" as="geometry" />
        </mxCell>
        <mxCell id="XjjyREhmOFZzSv4XFWNx-11" value="" style="group" vertex="1" connectable="0" parent="1">
          <mxGeometry x="20" y="80" width="108" height="108" as="geometry" />
        </mxCell>
        <mxCell id="XjjyREhmOFZzSv4XFWNx-12" value="" style="rounded=1;whiteSpace=wrap;html=1;fillColor=#dae8fc;strokeColor=#6c8ebf;" vertex="1" parent="XjjyREhmOFZzSv4XFWNx-11">
          <mxGeometry width="108" height="108" as="geometry" />
        </mxCell>
        <mxCell id="XjjyREhmOFZzSv4XFWNx-13" value="&lt;font style=&quot;font-size: 14px;&quot;&gt;Датчик воды&lt;/font&gt;" style="shape=image;html=1;verticalAlign=top;verticalLabelPosition=bottom;labelBackgroundColor=#ffffff;imageAspect=0;aspect=fixed;image=https://cdn0.iconfinder.com/data/icons/evericons-24px-vol-1/24/drop-128.png" vertex="1" parent="XjjyREhmOFZzSv4XFWNx-11">
          <mxGeometry width="108" height="108" as="geometry" />
        </mxCell>
        <mxCell id="XjjyREhmOFZzSv4XFWNx-14" value="" style="group" vertex="1" connectable="0" parent="1">
          <mxGeometry x="-720" y="170" width="58" height="58" as="geometry" />
        </mxCell>
        <mxCell id="XjjyREhmOFZzSv4XFWNx-15" value="" style="rounded=1;whiteSpace=wrap;html=1;fillColor=#dae8fc;strokeColor=#6c8ebf;" vertex="1" parent="XjjyREhmOFZzSv4XFWNx-14">
          <mxGeometry width="58.00000000000001" height="58.00000000000001" as="geometry" />
        </mxCell>
        <mxCell id="XjjyREhmOFZzSv4XFWNx-16" value="&lt;font style=&quot;font-size: 14px;&quot;&gt;Дв1&lt;/font&gt;" style="shape=image;html=1;verticalAlign=top;verticalLabelPosition=bottom;labelBackgroundColor=#ffffff;imageAspect=0;aspect=fixed;image=https://cdn0.iconfinder.com/data/icons/evericons-24px-vol-1/24/drop-128.png" vertex="1" parent="XjjyREhmOFZzSv4XFWNx-14">
          <mxGeometry width="58.00000000000001" height="58.00000000000001" as="geometry" />
        </mxCell>
        <mxCell id="XjjyREhmOFZzSv4XFWNx-17" value="" style="group" vertex="1" connectable="0" parent="1">
          <mxGeometry x="-180" y="380" width="58" height="58" as="geometry" />
        </mxCell>
        <mxCell id="XjjyREhmOFZzSv4XFWNx-18" value="" style="rounded=1;whiteSpace=wrap;html=1;fillColor=#dae8fc;strokeColor=#6c8ebf;" vertex="1" parent="XjjyREhmOFZzSv4XFWNx-17">
          <mxGeometry width="58.00000000000001" height="58.00000000000001" as="geometry" />
        </mxCell>
        <mxCell id="XjjyREhmOFZzSv4XFWNx-19" value="&lt;font style=&quot;font-size: 14px;&quot;&gt;Дв2&lt;/font&gt;" style="shape=image;html=1;verticalAlign=top;verticalLabelPosition=bottom;labelBackgroundColor=#ffffff;imageAspect=0;aspect=fixed;image=https://cdn0.iconfinder.com/data/icons/evericons-24px-vol-1/24/drop-128.png" vertex="1" parent="XjjyREhmOFZzSv4XFWNx-17">
          <mxGeometry width="58.00000000000001" height="58.00000000000001" as="geometry" />
        </mxCell>
        <mxCell id="XjjyREhmOFZzSv4XFWNx-20" value="&lt;span style=&quot;font-size: 14px;&quot;&gt;С1&lt;/span&gt;" style="shape=image;html=1;verticalAlign=top;verticalLabelPosition=bottom;labelBackgroundColor=#ffffff;imageAspect=0;aspect=fixed;image=https://cdn1.iconfinder.com/data/icons/bootstrap-vol-3/16/lamp-128.png" vertex="1" parent="1">
          <mxGeometry x="-360" y="270" width="53.8" height="53.8" as="geometry" />
        </mxCell>
        <mxCell id="XjjyREhmOFZzSv4XFWNx-21" value="&lt;span style=&quot;font-size: 14px;&quot;&gt;С5&lt;/span&gt;" style="shape=image;html=1;verticalAlign=top;verticalLabelPosition=bottom;labelBackgroundColor=#ffffff;imageAspect=0;aspect=fixed;image=https://cdn1.iconfinder.com/data/icons/bootstrap-vol-3/16/lamp-128.png" vertex="1" parent="1">
          <mxGeometry x="-233.8" y="438" width="53.8" height="53.8" as="geometry" />
        </mxCell>
        <mxCell id="XjjyREhmOFZzSv4XFWNx-22" value="&lt;span style=&quot;font-size: 14px;&quot;&gt;С3&lt;/span&gt;" style="shape=image;html=1;verticalAlign=top;verticalLabelPosition=bottom;labelBackgroundColor=#ffffff;imageAspect=0;aspect=fixed;image=https://cdn1.iconfinder.com/data/icons/bootstrap-vol-3/16/lamp-128.png" vertex="1" parent="1">
          <mxGeometry x="-710" y="410" width="53.8" height="53.8" as="geometry" />
        </mxCell>
        <mxCell id="XjjyREhmOFZzSv4XFWNx-23" value="&lt;span style=&quot;font-size: 14px;&quot;&gt;С4&lt;/span&gt;" style="shape=image;html=1;verticalAlign=top;verticalLabelPosition=bottom;labelBackgroundColor=#ffffff;imageAspect=0;aspect=fixed;image=https://cdn1.iconfinder.com/data/icons/bootstrap-vol-3/16/lamp-128.png" vertex="1" parent="1">
          <mxGeometry x="-673.8" y="716.2" width="53.8" height="53.8" as="geometry" />
        </mxCell>
        <mxCell id="XjjyREhmOFZzSv4XFWNx-24" value="&lt;span style=&quot;font-size: 14px;&quot;&gt;С2&lt;/span&gt;" style="shape=image;html=1;verticalAlign=top;verticalLabelPosition=bottom;labelBackgroundColor=#ffffff;imageAspect=0;aspect=fixed;image=https://cdn1.iconfinder.com/data/icons/bootstrap-vol-3/16/lamp-128.png" vertex="1" parent="1">
          <mxGeometry x="-499.8" y="288.2" width="53.8" height="53.8" as="geometry" />
        </mxCell>
        <mxCell id="XjjyREhmOFZzSv4XFWNx-25" value="&lt;span style=&quot;font-size: 14px;&quot;&gt;С6&lt;/span&gt;" style="shape=image;html=1;verticalAlign=top;verticalLabelPosition=bottom;labelBackgroundColor=#ffffff;imageAspect=0;aspect=fixed;image=https://cdn1.iconfinder.com/data/icons/bootstrap-vol-3/16/lamp-128.png" vertex="1" parent="1">
          <mxGeometry x="-414" y="585" width="53.8" height="53.8" as="geometry" />
        </mxCell>
        <mxCell id="XjjyREhmOFZzSv4XFWNx-26" value="&lt;font style=&quot;font-size: 14px;&quot;&gt;К&lt;/font&gt;" style="sketch=0;aspect=fixed;pointerEvents=1;shadow=0;dashed=0;html=1;strokeColor=none;labelPosition=center;verticalLabelPosition=bottom;verticalAlign=top;align=center;fillColor=#00188D;shape=mxgraph.mscae.enterprise.router" vertex="1" parent="1">
          <mxGeometry x="-280" y="220" width="64.1" height="50" as="geometry" />
        </mxCell>
        <mxCell id="XjjyREhmOFZzSv4XFWNx-27" value="Дс" style="shape=image;verticalLabelPosition=bottom;labelBackgroundColor=default;verticalAlign=top;aspect=fixed;imageAspect=0;image=https://upload.wikimedia.org/wikipedia/commons/thumb/1/13/Photoresistor.svg/440px-Photoresistor.svg.png;fontSize=14;" vertex="1" parent="1">
          <mxGeometry x="-300" y="750" width="75" height="60" as="geometry" />
        </mxCell>
        <mxCell id="XjjyREhmOFZzSv4XFWNx-28" value="&lt;font style=&quot;font-size: 14px;&quot;&gt;Ч&lt;/font&gt;" style="sketch=0;points=[[0.5,0,0],[1,0.5,0],[0.5,1,0],[0,0.5,0],[0.145,0.145,0],[0.8555,0.145,0],[0.855,0.8555,0],[0.145,0.855,0]];verticalLabelPosition=bottom;html=1;verticalAlign=top;aspect=fixed;align=center;pointerEvents=1;shape=mxgraph.cisco19.rect;prIcon=clock;fillColor=#FAFAFA;strokeColor=#005073;" vertex="1" parent="1">
          <mxGeometry x="-167" y="599.7" width="45" height="45" as="geometry" />
        </mxCell>
        <mxCell id="XjjyREhmOFZzSv4XFWNx-29" value="&lt;font style=&quot;font-size: 14px;&quot;&gt;Ночь&lt;/font&gt;" style="html=1;verticalLabelPosition=bottom;align=center;labelBackgroundColor=#ffffff;verticalAlign=top;strokeWidth=2;strokeColor=#0080F0;shadow=0;dashed=0;shape=mxgraph.ios7.icons.moon;" vertex="1" parent="1">
          <mxGeometry x="-575.6" y="945.15" width="54.85" height="54.85" as="geometry" />
        </mxCell>
        <mxCell id="XjjyREhmOFZzSv4XFWNx-30" value="&lt;font style=&quot;font-size: 14px;&quot;&gt;День&lt;/font&gt;" style="html=1;verticalLabelPosition=bottom;align=center;labelBackgroundColor=#ffffff;verticalAlign=top;strokeWidth=2;strokeColor=#0080F0;shadow=0;dashed=0;shape=mxgraph.ios7.icons.sun;pointerEvents=1" vertex="1" parent="1">
          <mxGeometry x="-325" y="922.58" width="100" height="100" as="geometry" />
        </mxCell>
        <mxCell id="XjjyREhmOFZzSv4XFWNx-31" value="&lt;font style=&quot;font-size: 14px;&quot;&gt;Термометр&lt;/font&gt;" style="outlineConnect=0;dashed=0;verticalLabelPosition=bottom;verticalAlign=top;align=center;html=1;shape=mxgraph.aws3.thermostat;fillColor=#5294CF;gradientColor=none;" vertex="1" parent="1">
          <mxGeometry x="320.5" y="256.65" width="80.5" height="80.5" as="geometry" />
        </mxCell>
        <mxCell id="XjjyREhmOFZzSv4XFWNx-32" value="&lt;font style=&quot;font-size: 14px;&quot;&gt;Т1&lt;/font&gt;" style="outlineConnect=0;dashed=0;verticalLabelPosition=bottom;verticalAlign=top;align=center;html=1;shape=mxgraph.aws3.thermostat;fillColor=#5294CF;gradientColor=none;" vertex="1" parent="1">
          <mxGeometry x="-340" y="560" width="48.8" height="48.8" as="geometry" />
        </mxCell>
        <mxCell id="XjjyREhmOFZzSv4XFWNx-33" value="&lt;font style=&quot;font-size: 14px;&quot;&gt;Т2&lt;/font&gt;" style="outlineConnect=0;dashed=0;verticalLabelPosition=bottom;verticalAlign=top;align=center;html=1;shape=mxgraph.aws3.thermostat;fillColor=#5294CF;gradientColor=none;" vertex="1" parent="1">
          <mxGeometry x="-722.6" y="740" width="48.8" height="48.8" as="geometry" />
        </mxCell>
        <mxCell id="XjjyREhmOFZzSv4XFWNx-34" value="&lt;font style=&quot;font-size: 14px;&quot;&gt;Обогреватель&lt;/font&gt;" style="ellipse;whiteSpace=wrap;html=1;aspect=fixed;" vertex="1" parent="1">
          <mxGeometry x="710" y="84" width="100" height="100" as="geometry" />
        </mxCell>
        <mxCell id="XjjyREhmOFZzSv4XFWNx-35" value="О1" style="ellipse;whiteSpace=wrap;html=1;aspect=fixed;" vertex="1" parent="1">
          <mxGeometry x="-380" y="740" width="44.4" height="44.4" as="geometry" />
        </mxCell>
        <mxCell id="XjjyREhmOFZzSv4XFWNx-36" value="О2" style="ellipse;whiteSpace=wrap;html=1;aspect=fixed;" vertex="1" parent="1">
          <mxGeometry x="-630" y="701.2" width="44.4" height="44.4" as="geometry" />
        </mxCell>
        <mxCell id="XjjyREhmOFZzSv4XFWNx-37" value="&lt;font style=&quot;font-size: 14px;&quot;&gt;Гигрометр&lt;/font&gt;" style="sketch=0;outlineConnect=0;fontColor=#232F3E;gradientColor=none;fillColor=#7AA116;strokeColor=none;dashed=0;verticalLabelPosition=bottom;verticalAlign=top;align=center;html=1;fontSize=12;fontStyle=0;aspect=fixed;pointerEvents=1;shape=mxgraph.aws4.iot_thing_humidity_sensor;" vertex="1" parent="1">
          <mxGeometry x="161.78" y="250.55" width="92.7" height="92.7" as="geometry" />
        </mxCell>
        <mxCell id="XjjyREhmOFZzSv4XFWNx-38" value="Г" style="sketch=0;outlineConnect=0;fontColor=#232F3E;gradientColor=none;fillColor=#7AA116;strokeColor=none;dashed=0;verticalLabelPosition=bottom;verticalAlign=top;align=center;html=1;fontSize=12;fontStyle=0;aspect=fixed;pointerEvents=1;shape=mxgraph.aws4.iot_thing_humidity_sensor;" vertex="1" parent="1">
          <mxGeometry x="-277.8" y="560" width="48.8" height="48.8" as="geometry" />
        </mxCell>
        <mxCell id="XjjyREhmOFZzSv4XFWNx-39" value="Увлажнитель" style="shape=image;verticalLabelPosition=bottom;labelBackgroundColor=default;verticalAlign=top;aspect=fixed;imageAspect=0;image=https://cdn1.iconfinder.com/data/icons/sleep-10/512/humidifier-household-electronics-sleep-o3-1024.png;fontSize=14;" vertex="1" parent="1">
          <mxGeometry x="453" y="244.89999999999992" width="104" height="104" as="geometry" />
        </mxCell>
        <mxCell id="XjjyREhmOFZzSv4XFWNx-40" value="У" style="shape=image;verticalLabelPosition=bottom;labelBackgroundColor=default;verticalAlign=top;aspect=fixed;imageAspect=0;image=https://cdn1.iconfinder.com/data/icons/sleep-10/512/humidifier-household-electronics-sleep-o3-1024.png;fontSize=14;" vertex="1" parent="1">
          <mxGeometry x="-287" y="375.99999999999994" width="62" height="62" as="geometry" />
        </mxCell>
        <mxCell id="XjjyREhmOFZzSv4XFWNx-41" value="Окно" style="shape=image;verticalLabelPosition=bottom;labelBackgroundColor=default;verticalAlign=top;aspect=fixed;imageAspect=0;image=data:image/png,iVBORw0KGgoAAAANSUhEUgAAAGQAAABkCAYAAABw4pVUAAAACXBIWXMAAAsTAAALEwEAmpwYAAAC3ElEQVR4nO2dMWtTURiGHwQnofUnKFl0du0SEFHEsZ3E0dWl4OrqJI6uXQqurp3E0bUOxaK0FnFwFFQKVypHDCFp7k3u7fvm5n3g23puvrzPOSeFBD4IIYQQQgghhOXjPvAFqFa8joF7GHBsEEZlUkdd7vhvwA6wBayf8/fqECqzmsZ6yXKnZHtU90RN2vG/gT3gCTCIEOoKGZTM9kqGc52oOrtgH3gObDTYIX2lGquNks3+gidq6gu0dWT7StV1XuMLPjR8gWlXW58YjFxFTbKZlOVMJi24DjwG3gC/GjRwCLwEbgOXWV4uAbeAZ8D7Bu//FHgHPAVulme1ImSUK8AD4BXwtYUj27f6DrwGHgFX58h3oQXz7py+1WGDm6BTIeNcG7nafhoEVXVUo1fRjYYZXaiQUdaATYPwqpZrs7y3eZEJ6ep5F408D3kDZsjzkDdghjwPeQNmyPOQN2CGPA95A2bI85A3YIY8D3kDZsjzkDdghjwPeQNmyPOQN2CGPA95A2bI85A3YIY8D3kDZsjzkDdghjwPeQNmyPOQN2CGPA95A2bI8xhf8BbYBV4A28BDYFh+1lLnq8xVE7JWshmWrLZLdrsly4WFzKofwME54vomZDgl6IOSRdP8GjfQdi0blToPeQNmyPOQH1Ez5Fe4/EPMDPk/OW0H2DchixIhCxIhZkSIGRFiRoSYESFmRIgZEWJGhJgRIWZEiBkRYkaEmBEhZkSIGRFiRoSYESFmRIgZEWJGhJgRIWZEiBkRYkaEmBEhZkSIGRFiRoSYESFmRIgZEWJGhJgRIWZEiBm9EfJvKlnVs9qaMbXOSsi8k3iWrU4nTM6xEJKBLugHumTkEfqRRxkKhs9QsIzNMxub17RWjarrvOo8JKNX/9P56NXPExZlODGdDCf+VEfIHeAjcJLx3XQ1vvukZHyWdetkwD3dDrhvytmQ9kjhr4y7ahkhhBBCCCGEQEP+AF/TtES8NT4MAAAAAElFTkSuQmCC;" vertex="1" parent="1">
          <mxGeometry x="592.5" y="272.6" width="85" height="85" as="geometry" />
        </mxCell>
        <mxCell id="XjjyREhmOFZzSv4XFWNx-42" value="Окно1" style="shape=image;verticalLabelPosition=bottom;labelBackgroundColor=default;verticalAlign=top;aspect=fixed;imageAspect=0;image=data:image/png,iVBORw0KGgoAAAANSUhEUgAAAGQAAABkCAYAAABw4pVUAAAACXBIWXMAAAsTAAALEwEAmpwYAAAC3ElEQVR4nO2dMWtTURiGHwQnofUnKFl0du0SEFHEsZ3E0dWl4OrqJI6uXQqurp3E0bUOxaK0FnFwFFQKVypHDCFp7k3u7fvm5n3g23puvrzPOSeFBD4IIYQQQgghhOXjPvAFqFa8joF7GHBsEEZlUkdd7vhvwA6wBayf8/fqECqzmsZ6yXKnZHtU90RN2vG/gT3gCTCIEOoKGZTM9kqGc52oOrtgH3gObDTYIX2lGquNks3+gidq6gu0dWT7StV1XuMLPjR8gWlXW58YjFxFTbKZlOVMJi24DjwG3gC/GjRwCLwEbgOXWV4uAbeAZ8D7Bu//FHgHPAVulme1ImSUK8AD4BXwtYUj27f6DrwGHgFX58h3oQXz7py+1WGDm6BTIeNcG7nafhoEVXVUo1fRjYYZXaiQUdaATYPwqpZrs7y3eZEJ6ep5F408D3kDZsjzkDdghjwPeQNmyPOQN2CGPA95A2bI85A3YIY8D3kDZsjzkDdghjwPeQNmyPOQN2CGPA95A2bI85A3YIY8D3kDZsjzkDdghjwPeQNmyPOQN2CGPA95A2bI8xhf8BbYBV4A28BDYFh+1lLnq8xVE7JWshmWrLZLdrsly4WFzKofwME54vomZDgl6IOSRdP8GjfQdi0blToPeQNmyPOQH1Ez5Fe4/EPMDPk/OW0H2DchixIhCxIhZkSIGRFiRoSYESFmRIgZEWJGhJgRIWZEiBkRYkaEmBEhZkSIGRFiRoSYESFmRIgZEWJGhJgRIWZEiBkRYkaEmBEhZkSIGRFiRoSYESFmRIgZEWJGhJgRIWZEiBm9EfJvKlnVs9qaMbXOSsi8k3iWrU4nTM6xEJKBLugHumTkEfqRRxkKhs9QsIzNMxub17RWjarrvOo8JKNX/9P56NXPExZlODGdDCf+VEfIHeAjcJLx3XQ1vvukZHyWdetkwD3dDrhvytmQ9kjhr4y7ahkhhBBCCCGEQEP+AF/TtES8NT4MAAAAAElFTkSuQmCC;" vertex="1" parent="1">
          <mxGeometry x="-346.6" y="768.18" width="68.8" height="68.8" as="geometry" />
        </mxCell>
        <mxCell id="XjjyREhmOFZzSv4XFWNx-43" value="Окно2" style="shape=image;verticalLabelPosition=bottom;labelBackgroundColor=default;verticalAlign=top;aspect=fixed;imageAspect=0;image=data:image/png,iVBORw0KGgoAAAANSUhEUgAAAGQAAABkCAYAAABw4pVUAAAACXBIWXMAAAsTAAALEwEAmpwYAAAC3ElEQVR4nO2dMWtTURiGHwQnofUnKFl0du0SEFHEsZ3E0dWl4OrqJI6uXQqurp3E0bUOxaK0FnFwFFQKVypHDCFp7k3u7fvm5n3g23puvrzPOSeFBD4IIYQQQgghhOXjPvAFqFa8joF7GHBsEEZlUkdd7vhvwA6wBayf8/fqECqzmsZ6yXKnZHtU90RN2vG/gT3gCTCIEOoKGZTM9kqGc52oOrtgH3gObDTYIX2lGquNks3+gidq6gu0dWT7StV1XuMLPjR8gWlXW58YjFxFTbKZlOVMJi24DjwG3gC/GjRwCLwEbgOXWV4uAbeAZ8D7Bu//FHgHPAVulme1ImSUK8AD4BXwtYUj27f6DrwGHgFX58h3oQXz7py+1WGDm6BTIeNcG7nafhoEVXVUo1fRjYYZXaiQUdaATYPwqpZrs7y3eZEJ6ep5F408D3kDZsjzkDdghjwPeQNmyPOQN2CGPA95A2bI85A3YIY8D3kDZsjzkDdghjwPeQNmyPOQN2CGPA95A2bI85A3YIY8D3kDZsjzkDdghjwPeQNmyPOQN2CGPA95A2bI8xhf8BbYBV4A28BDYFh+1lLnq8xVE7JWshmWrLZLdrsly4WFzKofwME54vomZDgl6IOSRdP8GjfQdi0blToPeQNmyPOQH1Ez5Fe4/EPMDPk/OW0H2DchixIhCxIhZkSIGRFiRoSYESFmRIgZEWJGhJgRIWZEiBkRYkaEmBEhZkSIGRFiRoSYESFmRIgZEWJGhJgRIWZEiBkRYkaEmBEhZkSIGRFiRoSYESFmRIgZEWJGhJgRIWZEiBm9EfJvKlnVs9qaMbXOSsi8k3iWrU4nTM6xEJKBLugHumTkEfqRRxkKhs9QsIzNMxub17RWjarrvOo8JKNX/9P56NXPExZlODGdDCf+VEfIHeAjcJLx3XQ1vvukZHyWdetkwD3dDrhvytmQ9kjhr4y7ahkhhBBCCCGEQEP+AF/TtES8NT4MAAAAAElFTkSuQmCC;" vertex="1" parent="1">
          <mxGeometry x="-630.0000000000002" y="749.9999999999999" width="68.8" height="68.8" as="geometry" />
        </mxCell>
        <mxCell id="XjjyREhmOFZzSv4XFWNx-44" value="&lt;font style=&quot;font-size: 18px;&quot;&gt;Условные обозначения:&lt;/font&gt;" style="text;html=1;align=center;verticalAlign=middle;resizable=0;points=[];autosize=1;strokeColor=none;fillColor=none;" vertex="1" parent="1">
          <mxGeometry x="304" y="10" width="220" height="40" as="geometry" />
        </mxCell>
        <mxCell id="XjjyREhmOFZzSv4XFWNx-45" value="Шторы" style="shape=image;html=1;verticalAlign=top;verticalLabelPosition=bottom;labelBackgroundColor=#ffffff;imageAspect=0;aspect=fixed;image=https://cdn3.iconfinder.com/data/icons/belidong-hotel/32/Artboard_3-128.png" vertex="1" parent="1">
          <mxGeometry x="713" y="268.1" width="94" height="94" as="geometry" />
        </mxCell>
        <mxCell id="XjjyREhmOFZzSv4XFWNx-46" value="Ш1" style="shape=image;html=1;verticalAlign=top;verticalLabelPosition=bottom;labelBackgroundColor=#ffffff;imageAspect=0;aspect=fixed;image=https://cdn3.iconfinder.com/data/icons/belidong-hotel/32/Artboard_3-128.png" vertex="1" parent="1">
          <mxGeometry x="-414" y="770.58" width="64" height="64" as="geometry" />
        </mxCell>
        <mxCell id="XjjyREhmOFZzSv4XFWNx-47" value="Ш2" style="shape=image;html=1;verticalAlign=top;verticalLabelPosition=bottom;labelBackgroundColor=#ffffff;imageAspect=0;aspect=fixed;image=https://cdn3.iconfinder.com/data/icons/belidong-hotel/32/Artboard_3-128.png" vertex="1" parent="1">
          <mxGeometry x="-561.2" y="754.8000000000001" width="64" height="64" as="geometry" />
        </mxCell>
        <mxCell id="XjjyREhmOFZzSv4XFWNx-48" style="edgeStyle=orthogonalEdgeStyle;rounded=0;orthogonalLoop=1;jettySize=auto;html=1;exitX=0.929;exitY=-0.021;exitDx=0;exitDy=0;exitPerimeter=0;" edge="1" parent="1" source="XjjyREhmOFZzSv4XFWNx-62">
          <mxGeometry relative="1" as="geometry">
            <mxPoint x="-50" y="1330" as="targetPoint" />
            <Array as="points">
              <mxPoint x="-381" y="1440" />
              <mxPoint x="-50" y="1440" />
            </Array>
          </mxGeometry>
        </mxCell>
        <mxCell id="XjjyREhmOFZzSv4XFWNx-49" style="edgeStyle=orthogonalEdgeStyle;rounded=0;orthogonalLoop=1;jettySize=auto;html=1;exitX=0.495;exitY=0.011;exitDx=0;exitDy=0;exitPerimeter=0;entryX=0.873;entryY=1.009;entryDx=0;entryDy=0;entryPerimeter=0;" edge="1" parent="1" source="XjjyREhmOFZzSv4XFWNx-62" target="XjjyREhmOFZzSv4XFWNx-67">
          <mxGeometry relative="1" as="geometry">
            <Array as="points">
              <mxPoint x="-429" y="1390" />
              <mxPoint x="-304" y="1390" />
              <mxPoint x="-304" y="1330" />
            </Array>
          </mxGeometry>
        </mxCell>
        <mxCell id="XjjyREhmOFZzSv4XFWNx-50" style="edgeStyle=orthogonalEdgeStyle;rounded=0;orthogonalLoop=1;jettySize=auto;html=1;exitX=0;exitY=0;exitDx=0;exitDy=0;exitPerimeter=0;entryX=0.5;entryY=1;entryDx=0;entryDy=0;" edge="1" parent="1" source="XjjyREhmOFZzSv4XFWNx-62" target="XjjyREhmOFZzSv4XFWNx-78">
          <mxGeometry relative="1" as="geometry">
            <Array as="points">
              <mxPoint x="-483" y="1430" />
              <mxPoint x="-623" y="1430" />
              <mxPoint x="-623" y="1270" />
              <mxPoint x="-662" y="1270" />
            </Array>
          </mxGeometry>
        </mxCell>
        <mxCell id="XjjyREhmOFZzSv4XFWNx-51" style="edgeStyle=orthogonalEdgeStyle;rounded=0;orthogonalLoop=1;jettySize=auto;html=1;entryX=0.75;entryY=1;entryDx=0;entryDy=0;" edge="1" parent="1" target="XjjyREhmOFZzSv4XFWNx-82">
          <mxGeometry relative="1" as="geometry">
            <mxPoint x="-490" y="1660" as="sourcePoint" />
            <Array as="points">
              <mxPoint x="-487" y="1660" />
              <mxPoint x="-523" y="1660" />
              <mxPoint x="-523" y="1460" />
              <mxPoint x="-673" y="1460" />
              <mxPoint x="-673" y="1380" />
              <mxPoint x="-749" y="1380" />
            </Array>
          </mxGeometry>
        </mxCell>
        <mxCell id="XjjyREhmOFZzSv4XFWNx-52" style="edgeStyle=orthogonalEdgeStyle;rounded=0;orthogonalLoop=1;jettySize=auto;html=1;exitX=-0.017;exitY=0.332;exitDx=0;exitDy=0;exitPerimeter=0;entryX=1.009;entryY=0.104;entryDx=0;entryDy=0;entryPerimeter=0;" edge="1" parent="1" source="XjjyREhmOFZzSv4XFWNx-62" target="XjjyREhmOFZzSv4XFWNx-85">
          <mxGeometry relative="1" as="geometry">
            <Array as="points">
              <mxPoint x="-560" y="1677" />
              <mxPoint x="-560" y="1520" />
            </Array>
          </mxGeometry>
        </mxCell>
        <mxCell id="XjjyREhmOFZzSv4XFWNx-53" style="edgeStyle=orthogonalEdgeStyle;rounded=0;orthogonalLoop=1;jettySize=auto;html=1;exitX=-0.027;exitY=0.489;exitDx=0;exitDy=0;exitPerimeter=0;entryX=0.75;entryY=1;entryDx=0;entryDy=0;" edge="1" parent="1" source="XjjyREhmOFZzSv4XFWNx-62" target="XjjyREhmOFZzSv4XFWNx-89">
          <mxGeometry relative="1" as="geometry" />
        </mxCell>
        <mxCell id="XjjyREhmOFZzSv4XFWNx-54" style="edgeStyle=orthogonalEdgeStyle;rounded=0;orthogonalLoop=1;jettySize=auto;html=1;entryX=1;entryY=0.75;entryDx=0;entryDy=0;" edge="1" parent="1" source="XjjyREhmOFZzSv4XFWNx-62" target="XjjyREhmOFZzSv4XFWNx-90">
          <mxGeometry relative="1" as="geometry">
            <Array as="points">
              <mxPoint x="-680" y="1700" />
              <mxPoint x="-680" y="1730" />
            </Array>
          </mxGeometry>
        </mxCell>
        <mxCell id="XjjyREhmOFZzSv4XFWNx-55" style="edgeStyle=orthogonalEdgeStyle;rounded=0;orthogonalLoop=1;jettySize=auto;html=1;exitX=-0.014;exitY=0.954;exitDx=0;exitDy=0;exitPerimeter=0;" edge="1" parent="1" source="XjjyREhmOFZzSv4XFWNx-62" target="XjjyREhmOFZzSv4XFWNx-99">
          <mxGeometry relative="1" as="geometry">
            <Array as="points">
              <mxPoint x="-584" y="1730" />
            </Array>
          </mxGeometry>
        </mxCell>
        <mxCell id="XjjyREhmOFZzSv4XFWNx-56" style="edgeStyle=orthogonalEdgeStyle;rounded=0;orthogonalLoop=1;jettySize=auto;html=1;entryX=0.991;entryY=0.118;entryDx=0;entryDy=0;exitX=-0.018;exitY=1.015;exitDx=0;exitDy=0;exitPerimeter=0;entryPerimeter=0;" edge="1" parent="1" source="XjjyREhmOFZzSv4XFWNx-62" target="XjjyREhmOFZzSv4XFWNx-100">
          <mxGeometry relative="1" as="geometry">
            <mxPoint x="-480" y="1740" as="sourcePoint" />
            <Array as="points">
              <mxPoint x="-520" y="1735" />
              <mxPoint x="-520" y="1881" />
            </Array>
          </mxGeometry>
        </mxCell>
        <mxCell id="XjjyREhmOFZzSv4XFWNx-57" style="edgeStyle=orthogonalEdgeStyle;rounded=0;orthogonalLoop=1;jettySize=auto;html=1;entryX=1;entryY=0.5;entryDx=0;entryDy=0;exitX=0.026;exitY=1.006;exitDx=0;exitDy=0;exitPerimeter=0;" edge="1" parent="1" source="XjjyREhmOFZzSv4XFWNx-62" target="XjjyREhmOFZzSv4XFWNx-101">
          <mxGeometry relative="1" as="geometry">
            <Array as="points">
              <mxPoint x="-480" y="1750" />
              <mxPoint x="-510" y="1750" />
              <mxPoint x="-510" y="2065" />
            </Array>
          </mxGeometry>
        </mxCell>
        <mxCell id="XjjyREhmOFZzSv4XFWNx-58" style="edgeStyle=orthogonalEdgeStyle;rounded=0;orthogonalLoop=1;jettySize=auto;html=1;entryX=0;entryY=1;entryDx=0;entryDy=0;exitX=1.013;exitY=0.338;exitDx=0;exitDy=0;exitPerimeter=0;" edge="1" parent="1" source="XjjyREhmOFZzSv4XFWNx-62" target="XjjyREhmOFZzSv4XFWNx-104">
          <mxGeometry relative="1" as="geometry" />
        </mxCell>
        <mxCell id="XjjyREhmOFZzSv4XFWNx-59" style="edgeStyle=orthogonalEdgeStyle;rounded=0;orthogonalLoop=1;jettySize=auto;html=1;entryX=0.25;entryY=1;entryDx=0;entryDy=0;" edge="1" parent="1" source="XjjyREhmOFZzSv4XFWNx-62" target="XjjyREhmOFZzSv4XFWNx-105">
          <mxGeometry relative="1" as="geometry">
            <Array as="points">
              <mxPoint x="-230" y="1691" />
              <mxPoint x="-230" y="1570" />
              <mxPoint x="-195" y="1570" />
            </Array>
          </mxGeometry>
        </mxCell>
        <mxCell id="XjjyREhmOFZzSv4XFWNx-60" style="edgeStyle=orthogonalEdgeStyle;rounded=0;orthogonalLoop=1;jettySize=auto;html=1;" edge="1" parent="1" source="XjjyREhmOFZzSv4XFWNx-62" target="XjjyREhmOFZzSv4XFWNx-108">
          <mxGeometry relative="1" as="geometry">
            <Array as="points">
              <mxPoint x="-209" y="1700" />
            </Array>
          </mxGeometry>
        </mxCell>
        <mxCell id="XjjyREhmOFZzSv4XFWNx-61" style="edgeStyle=orthogonalEdgeStyle;rounded=0;orthogonalLoop=1;jettySize=auto;html=1;entryX=0;entryY=0;entryDx=0;entryDy=0;" edge="1" parent="1" source="XjjyREhmOFZzSv4XFWNx-62" target="XjjyREhmOFZzSv4XFWNx-107">
          <mxGeometry relative="1" as="geometry">
            <Array as="points">
              <mxPoint x="-120" y="1720" />
              <mxPoint x="-120" y="1726" />
            </Array>
          </mxGeometry>
        </mxCell>
        <mxCell id="XjjyREhmOFZzSv4XFWNx-62" value="&lt;font style=&quot;font-size: 14px;&quot;&gt;Контроллер&lt;/font&gt;" style="sketch=0;aspect=fixed;pointerEvents=1;shadow=0;dashed=0;html=1;strokeColor=none;labelPosition=center;verticalLabelPosition=bottom;verticalAlign=top;align=center;fillColor=#00188D;shape=mxgraph.mscae.enterprise.router;movable=1;resizable=1;rotatable=1;deletable=1;editable=1;locked=0;connectable=1;" vertex="1" parent="1">
          <mxGeometry x="-483.25" y="1648" width="110" height="85.8" as="geometry" />
        </mxCell>
        <mxCell id="XjjyREhmOFZzSv4XFWNx-63" value="Датчик движения1" style="shape=image;verticalLabelPosition=bottom;labelBackgroundColor=default;verticalAlign=top;aspect=fixed;imageAspect=0;image=https://cdn-icons-png.flaticon.com/512/2143/2143136.png;fontSize=14;direction=west;" vertex="1" parent="1">
          <mxGeometry x="-260.25" y="1223.87" width="102.75" height="102.75" as="geometry" />
        </mxCell>
        <mxCell id="XjjyREhmOFZzSv4XFWNx-64" value="&lt;span style=&quot;font-size: 14px;&quot;&gt;Свет1&lt;/span&gt;" style="shape=image;html=1;verticalAlign=top;verticalLabelPosition=bottom;labelBackgroundColor=#ffffff;imageAspect=0;aspect=fixed;image=https://cdn1.iconfinder.com/data/icons/bootstrap-vol-3/16/lamp-128.png" vertex="1" parent="1">
          <mxGeometry x="-122" y="1241.56" width="87.37" height="87.37" as="geometry" />
        </mxCell>
        <mxCell id="XjjyREhmOFZzSv4XFWNx-65" style="edgeStyle=orthogonalEdgeStyle;rounded=0;orthogonalLoop=1;jettySize=auto;html=1;exitX=0.5;exitY=0;exitDx=0;exitDy=0;entryX=0.674;entryY=-0.004;entryDx=0;entryDy=0;entryPerimeter=0;" edge="1" parent="1" source="XjjyREhmOFZzSv4XFWNx-63" target="XjjyREhmOFZzSv4XFWNx-62">
          <mxGeometry relative="1" as="geometry">
            <mxPoint x="-410" y="1640" as="targetPoint" />
            <Array as="points">
              <mxPoint x="-209" y="1420" />
              <mxPoint x="-409" y="1420" />
              <mxPoint x="-409" y="1640" />
            </Array>
          </mxGeometry>
        </mxCell>
        <mxCell id="XjjyREhmOFZzSv4XFWNx-66" value="Датчик движения2" style="shape=image;verticalLabelPosition=bottom;labelBackgroundColor=default;verticalAlign=top;aspect=fixed;imageAspect=0;image=https://cdn-icons-png.flaticon.com/512/2143/2143136.png;fontSize=14;direction=west;" vertex="1" parent="1">
          <mxGeometry x="-521.25" y="1233.87" width="102.75" height="102.75" as="geometry" />
        </mxCell>
        <mxCell id="XjjyREhmOFZzSv4XFWNx-67" value="&lt;span style=&quot;font-size: 14px;&quot;&gt;Свет2&lt;/span&gt;" style="shape=image;html=1;verticalAlign=top;verticalLabelPosition=bottom;labelBackgroundColor=#ffffff;imageAspect=0;aspect=fixed;image=https://cdn1.iconfinder.com/data/icons/bootstrap-vol-3/16/lamp-128.png" vertex="1" parent="1">
          <mxGeometry x="-380" y="1241.56" width="87.37" height="87.37" as="geometry" />
        </mxCell>
        <mxCell id="XjjyREhmOFZzSv4XFWNx-68" style="edgeStyle=orthogonalEdgeStyle;rounded=0;orthogonalLoop=1;jettySize=auto;html=1;exitX=0.5;exitY=0;exitDx=0;exitDy=0;" edge="1" parent="1" source="XjjyREhmOFZzSv4XFWNx-66" target="XjjyREhmOFZzSv4XFWNx-62">
          <mxGeometry relative="1" as="geometry">
            <mxPoint x="-447.25" y="1670" as="targetPoint" />
            <Array as="points">
              <mxPoint x="-470" y="1390" />
              <mxPoint x="-447" y="1390" />
            </Array>
          </mxGeometry>
        </mxCell>
        <mxCell id="XjjyREhmOFZzSv4XFWNx-69" value="&lt;font style=&quot;font-size: 14px;&quot;&gt;Телефон&lt;/font&gt;" style="verticalLabelPosition=bottom;verticalAlign=top;html=1;shadow=0;dashed=0;strokeWidth=1;shape=mxgraph.android.phone2;strokeColor=#c0c0c0;" vertex="1" parent="1">
          <mxGeometry x="435.8" y="391.9" width="46.15" height="90" as="geometry" />
        </mxCell>
        <mxCell id="XjjyREhmOFZzSv4XFWNx-70" value="&lt;font style=&quot;font-size: 14px;&quot;&gt;Телефон&lt;/font&gt;" style="verticalLabelPosition=bottom;verticalAlign=top;html=1;shadow=0;dashed=0;strokeWidth=1;shape=mxgraph.android.phone2;strokeColor=#c0c0c0;" vertex="1" parent="1">
          <mxGeometry x="-92.64999999999998" y="927.5699999999999" width="46.15" height="90" as="geometry" />
        </mxCell>
        <mxCell id="XjjyREhmOFZzSv4XFWNx-71" value="" style="group" vertex="1" connectable="0" parent="1">
          <mxGeometry x="-603.25" y="1180" width="68" height="68" as="geometry" />
        </mxCell>
        <mxCell id="XjjyREhmOFZzSv4XFWNx-72" value="" style="rounded=1;whiteSpace=wrap;html=1;fillColor=#dae8fc;strokeColor=#6c8ebf;" vertex="1" parent="XjjyREhmOFZzSv4XFWNx-71">
          <mxGeometry width="68" height="68" as="geometry" />
        </mxCell>
        <mxCell id="XjjyREhmOFZzSv4XFWNx-73" value="&lt;font style=&quot;font-size: 14px;&quot;&gt;Датчик воды1&lt;/font&gt;" style="shape=image;html=1;verticalAlign=top;verticalLabelPosition=bottom;labelBackgroundColor=#ffffff;imageAspect=0;aspect=fixed;image=https://cdn0.iconfinder.com/data/icons/evericons-24px-vol-1/24/drop-128.png" vertex="1" parent="XjjyREhmOFZzSv4XFWNx-71">
          <mxGeometry width="68" height="68" as="geometry" />
        </mxCell>
        <mxCell id="XjjyREhmOFZzSv4XFWNx-74" style="edgeStyle=orthogonalEdgeStyle;rounded=0;orthogonalLoop=1;jettySize=auto;html=1;exitX=0.5;exitY=1;exitDx=0;exitDy=0;" edge="1" parent="1" source="XjjyREhmOFZzSv4XFWNx-73">
          <mxGeometry relative="1" as="geometry">
            <mxPoint x="-463.25" y="1645" as="targetPoint" />
            <Array as="points">
              <mxPoint x="-569" y="1410" />
              <mxPoint x="-463" y="1410" />
            </Array>
          </mxGeometry>
        </mxCell>
        <mxCell id="XjjyREhmOFZzSv4XFWNx-75" value="Вентиль воды" style="shape=image;html=1;verticalAlign=top;verticalLabelPosition=bottom;labelBackgroundColor=#ffffff;imageAspect=0;aspect=fixed;image=https://cdn1.iconfinder.com/data/icons/sea-24/32/Artboard_12sea-128.png" vertex="1" parent="1">
          <mxGeometry x="47.25" y="401.95000000000005" width="68" height="68" as="geometry" />
        </mxCell>
        <mxCell id="XjjyREhmOFZzSv4XFWNx-76" value="Вв2" style="shape=image;html=1;verticalAlign=top;verticalLabelPosition=bottom;labelBackgroundColor=#ffffff;imageAspect=0;aspect=fixed;image=https://cdn1.iconfinder.com/data/icons/sea-24/32/Artboard_12sea-128.png" vertex="1" parent="1">
          <mxGeometry x="-178.5" y="450.00000000000006" width="68" height="68" as="geometry" />
        </mxCell>
        <mxCell id="XjjyREhmOFZzSv4XFWNx-77" value="Вв1" style="shape=image;html=1;verticalAlign=top;verticalLabelPosition=bottom;labelBackgroundColor=#ffffff;imageAspect=0;aspect=fixed;image=https://cdn1.iconfinder.com/data/icons/sea-24/32/Artboard_12sea-128.png" vertex="1" parent="1">
          <mxGeometry x="-616" y="152.00000000000006" width="68" height="68" as="geometry" />
        </mxCell>
        <mxCell id="XjjyREhmOFZzSv4XFWNx-78" value="Вентиль воды1" style="shape=image;html=1;verticalAlign=top;verticalLabelPosition=bottom;labelBackgroundColor=#ffffff;imageAspect=0;aspect=fixed;image=https://cdn1.iconfinder.com/data/icons/sea-24/32/Artboard_12sea-128.png" vertex="1" parent="1">
          <mxGeometry x="-695.85" y="1180" width="68" height="68" as="geometry" />
        </mxCell>
        <mxCell id="XjjyREhmOFZzSv4XFWNx-79" value="" style="group" vertex="1" connectable="0" parent="1">
          <mxGeometry x="-707.65" y="1280" width="68" height="68" as="geometry" />
        </mxCell>
        <mxCell id="XjjyREhmOFZzSv4XFWNx-80" value="" style="rounded=1;whiteSpace=wrap;html=1;fillColor=#dae8fc;strokeColor=#6c8ebf;" vertex="1" parent="XjjyREhmOFZzSv4XFWNx-79">
          <mxGeometry width="68" height="68" as="geometry" />
        </mxCell>
        <mxCell id="XjjyREhmOFZzSv4XFWNx-81" value="&lt;font style=&quot;font-size: 14px;&quot;&gt;Датчик воды2&lt;/font&gt;" style="shape=image;html=1;verticalAlign=top;verticalLabelPosition=bottom;labelBackgroundColor=#ffffff;imageAspect=0;aspect=fixed;image=https://cdn0.iconfinder.com/data/icons/evericons-24px-vol-1/24/drop-128.png" vertex="1" parent="XjjyREhmOFZzSv4XFWNx-79">
          <mxGeometry width="68" height="68" as="geometry" />
        </mxCell>
        <mxCell id="XjjyREhmOFZzSv4XFWNx-82" value="Вентиль воды2" style="shape=image;html=1;verticalAlign=top;verticalLabelPosition=bottom;labelBackgroundColor=#ffffff;imageAspect=0;aspect=fixed;image=https://cdn1.iconfinder.com/data/icons/sea-24/32/Artboard_12sea-128.png" vertex="1" parent="1">
          <mxGeometry x="-800.25" y="1280" width="68" height="68" as="geometry" />
        </mxCell>
        <mxCell id="XjjyREhmOFZzSv4XFWNx-83" style="edgeStyle=orthogonalEdgeStyle;rounded=0;orthogonalLoop=1;jettySize=auto;html=1;exitX=0.5;exitY=1;exitDx=0;exitDy=0;" edge="1" parent="1" source="XjjyREhmOFZzSv4XFWNx-81">
          <mxGeometry relative="1" as="geometry">
            <mxPoint x="-484.25" y="1650" as="targetPoint" />
            <Array as="points">
              <mxPoint x="-674" y="1370" />
              <mxPoint x="-653" y="1370" />
              <mxPoint x="-653" y="1450" />
              <mxPoint x="-503" y="1450" />
              <mxPoint x="-503" y="1650" />
            </Array>
          </mxGeometry>
        </mxCell>
        <mxCell id="XjjyREhmOFZzSv4XFWNx-84" value="&lt;font style=&quot;font-size: 14px;&quot;&gt;Гигрометр&lt;/font&gt;" style="sketch=0;outlineConnect=0;fontColor=#232F3E;gradientColor=none;fillColor=#7AA116;strokeColor=none;dashed=0;verticalLabelPosition=bottom;verticalAlign=top;align=center;html=1;fontSize=12;fontStyle=0;aspect=fixed;pointerEvents=1;shape=mxgraph.aws4.iot_thing_humidity_sensor;" vertex="1" parent="1">
          <mxGeometry x="-800" y="1400" width="80" height="80" as="geometry" />
        </mxCell>
        <mxCell id="XjjyREhmOFZzSv4XFWNx-85" value="Увлажнитель" style="shape=image;verticalLabelPosition=bottom;labelBackgroundColor=default;verticalAlign=top;aspect=fixed;imageAspect=0;image=https://cdn1.iconfinder.com/data/icons/sleep-10/512/humidifier-household-electronics-sleep-o3-1024.png;fontSize=14;" vertex="1" parent="1">
          <mxGeometry x="-807" y="1510" width="94" height="94" as="geometry" />
        </mxCell>
        <mxCell id="XjjyREhmOFZzSv4XFWNx-86" style="edgeStyle=orthogonalEdgeStyle;rounded=0;orthogonalLoop=1;jettySize=auto;html=1;entryX=-0.001;entryY=0.216;entryDx=0;entryDy=0;entryPerimeter=0;" edge="1" parent="1" source="XjjyREhmOFZzSv4XFWNx-84" target="XjjyREhmOFZzSv4XFWNx-62">
          <mxGeometry relative="1" as="geometry">
            <Array as="points">
              <mxPoint x="-540" y="1470" />
              <mxPoint x="-540" y="1667" />
            </Array>
          </mxGeometry>
        </mxCell>
        <mxCell id="XjjyREhmOFZzSv4XFWNx-87" style="edgeStyle=orthogonalEdgeStyle;rounded=0;orthogonalLoop=1;jettySize=auto;html=1;exitX=0;exitY=0.5;exitDx=0;exitDy=0;exitPerimeter=0;entryX=1.007;entryY=0.076;entryDx=0;entryDy=0;entryPerimeter=0;" edge="1" parent="1" source="XjjyREhmOFZzSv4XFWNx-88" target="XjjyREhmOFZzSv4XFWNx-62">
          <mxGeometry relative="1" as="geometry">
            <mxPoint x="-330" y="1660" as="targetPoint" />
            <Array as="points">
              <mxPoint x="-120" y="1515" />
              <mxPoint x="-120" y="1460" />
              <mxPoint x="-350" y="1460" />
              <mxPoint x="-350" y="1655" />
            </Array>
          </mxGeometry>
        </mxCell>
        <mxCell id="XjjyREhmOFZzSv4XFWNx-88" value="&lt;font style=&quot;font-size: 14px;&quot;&gt;Часы&lt;/font&gt;" style="sketch=0;points=[[0.5,0,0],[1,0.5,0],[0.5,1,0],[0,0.5,0],[0.145,0.145,0],[0.8555,0.145,0],[0.855,0.8555,0],[0.145,0.855,0]];verticalLabelPosition=bottom;html=1;verticalAlign=top;aspect=fixed;align=center;pointerEvents=1;shape=mxgraph.cisco19.rect;prIcon=clock;fillColor=#FAFAFA;strokeColor=#005073;" vertex="1" parent="1">
          <mxGeometry x="-109.75" y="1470" width="90" height="90" as="geometry" />
        </mxCell>
        <mxCell id="XjjyREhmOFZzSv4XFWNx-89" value="&lt;span style=&quot;font-size: 14px;&quot;&gt;Свет3&lt;/span&gt;" style="shape=image;html=1;verticalAlign=top;verticalLabelPosition=bottom;labelBackgroundColor=#ffffff;imageAspect=0;aspect=fixed;image=https://cdn1.iconfinder.com/data/icons/bootstrap-vol-3/16/lamp-128.png" vertex="1" parent="1">
          <mxGeometry x="-693.65" y="1540" width="93.5" height="93.5" as="geometry" />
        </mxCell>
        <mxCell id="XjjyREhmOFZzSv4XFWNx-90" value="&lt;span style=&quot;font-size: 14px;&quot;&gt;Свет4&lt;/span&gt;" style="shape=image;html=1;verticalAlign=top;verticalLabelPosition=bottom;labelBackgroundColor=#ffffff;imageAspect=0;aspect=fixed;image=https://cdn1.iconfinder.com/data/icons/bootstrap-vol-3/16/lamp-128.png" vertex="1" parent="1">
          <mxGeometry x="-813.5" y="1660" width="93.5" height="93.5" as="geometry" />
        </mxCell>
        <mxCell id="XjjyREhmOFZzSv4XFWNx-91" value="&lt;span style=&quot;font-size: 14px;&quot;&gt;Свет6&lt;/span&gt;" style="shape=image;html=1;verticalAlign=top;verticalLabelPosition=bottom;labelBackgroundColor=#ffffff;imageAspect=0;aspect=fixed;image=https://cdn1.iconfinder.com/data/icons/bootstrap-vol-3/16/lamp-128.png" vertex="1" parent="1">
          <mxGeometry x="-816.1" y="1790" width="93.5" height="93.5" as="geometry" />
        </mxCell>
        <mxCell id="XjjyREhmOFZzSv4XFWNx-92" style="edgeStyle=orthogonalEdgeStyle;rounded=0;orthogonalLoop=1;jettySize=auto;html=1;entryX=1.009;entryY=0.153;entryDx=0;entryDy=0;entryPerimeter=0;" edge="1" parent="1" source="XjjyREhmOFZzSv4XFWNx-62" target="XjjyREhmOFZzSv4XFWNx-91">
          <mxGeometry relative="1" as="geometry">
            <Array as="points">
              <mxPoint x="-670" y="1710" />
              <mxPoint x="-670" y="1804" />
            </Array>
          </mxGeometry>
        </mxCell>
        <mxCell id="XjjyREhmOFZzSv4XFWNx-93" value="Датчик света" style="shape=image;verticalLabelPosition=bottom;labelBackgroundColor=default;verticalAlign=top;aspect=fixed;imageAspect=0;image=https://upload.wikimedia.org/wikipedia/commons/thumb/1/13/Photoresistor.svg/440px-Photoresistor.svg.png;fontSize=14;" vertex="1" parent="1">
          <mxGeometry x="-816.1500000000001" y="1920" width="122.5" height="98" as="geometry" />
        </mxCell>
        <mxCell id="XjjyREhmOFZzSv4XFWNx-94" style="edgeStyle=orthogonalEdgeStyle;rounded=0;orthogonalLoop=1;jettySize=auto;html=1;exitX=1;exitY=0.5;exitDx=0;exitDy=0;entryX=-0.008;entryY=0.834;entryDx=0;entryDy=0;entryPerimeter=0;" edge="1" parent="1" source="XjjyREhmOFZzSv4XFWNx-93" target="XjjyREhmOFZzSv4XFWNx-62">
          <mxGeometry relative="1" as="geometry">
            <Array as="points">
              <mxPoint x="-650" y="1969" />
              <mxPoint x="-650" y="1720" />
            </Array>
          </mxGeometry>
        </mxCell>
        <mxCell id="XjjyREhmOFZzSv4XFWNx-95" style="edgeStyle=orthogonalEdgeStyle;rounded=0;orthogonalLoop=1;jettySize=auto;html=1;" edge="1" parent="1" source="XjjyREhmOFZzSv4XFWNx-96" target="XjjyREhmOFZzSv4XFWNx-93">
          <mxGeometry relative="1" as="geometry">
            <Array as="points">
              <mxPoint x="-810" y="2115" />
            </Array>
          </mxGeometry>
        </mxCell>
        <mxCell id="XjjyREhmOFZzSv4XFWNx-96" value="&lt;font style=&quot;font-size: 14px;&quot;&gt;День&lt;/font&gt;" style="html=1;verticalLabelPosition=bottom;align=center;labelBackgroundColor=#ffffff;verticalAlign=top;strokeWidth=2;strokeColor=#0080F0;shadow=0;dashed=0;shape=mxgraph.ios7.icons.sun;pointerEvents=1" vertex="1" parent="1">
          <mxGeometry x="-807" y="2080" width="69.02" height="69.02" as="geometry" />
        </mxCell>
        <mxCell id="XjjyREhmOFZzSv4XFWNx-97" style="edgeStyle=orthogonalEdgeStyle;rounded=0;orthogonalLoop=1;jettySize=auto;html=1;entryX=0.922;entryY=1.003;entryDx=0;entryDy=0;entryPerimeter=0;" edge="1" parent="1" source="XjjyREhmOFZzSv4XFWNx-98" target="XjjyREhmOFZzSv4XFWNx-93">
          <mxGeometry relative="1" as="geometry" />
        </mxCell>
        <mxCell id="XjjyREhmOFZzSv4XFWNx-98" value="&lt;font style=&quot;font-size: 14px;&quot;&gt;Ночь&lt;/font&gt;" style="html=1;verticalLabelPosition=bottom;align=center;labelBackgroundColor=#ffffff;verticalAlign=top;strokeWidth=2;strokeColor=#0080F0;shadow=0;dashed=0;shape=mxgraph.ios7.icons.moon;" vertex="1" parent="1">
          <mxGeometry x="-707.65" y="2081.46" width="66.1" height="66.1" as="geometry" />
        </mxCell>
        <mxCell id="XjjyREhmOFZzSv4XFWNx-99" value="Шторы1" style="shape=image;html=1;verticalAlign=top;verticalLabelPosition=bottom;labelBackgroundColor=#ffffff;imageAspect=0;aspect=fixed;image=https://cdn3.iconfinder.com/data/icons/belidong-hotel/32/Artboard_3-128.png" vertex="1" parent="1">
          <mxGeometry x="-631" y="1753.5" width="94" height="94" as="geometry" />
        </mxCell>
        <mxCell id="XjjyREhmOFZzSv4XFWNx-100" value="Шторы2" style="shape=image;html=1;verticalAlign=top;verticalLabelPosition=bottom;labelBackgroundColor=#ffffff;imageAspect=0;aspect=fixed;image=https://cdn3.iconfinder.com/data/icons/belidong-hotel/32/Artboard_3-128.png" vertex="1" parent="1">
          <mxGeometry x="-628.9999999999999" y="1870" width="94" height="94" as="geometry" />
        </mxCell>
        <mxCell id="XjjyREhmOFZzSv4XFWNx-101" value="&lt;span style=&quot;font-size: 14px;&quot;&gt;Свет5&lt;/span&gt;" style="shape=image;html=1;verticalAlign=top;verticalLabelPosition=bottom;labelBackgroundColor=#ffffff;imageAspect=0;aspect=fixed;image=https://cdn1.iconfinder.com/data/icons/bootstrap-vol-3/16/lamp-128.png" vertex="1" parent="1">
          <mxGeometry x="-627.85" y="2018" width="93.5" height="93.5" as="geometry" />
        </mxCell>
        <mxCell id="XjjyREhmOFZzSv4XFWNx-102" value="&lt;font style=&quot;font-size: 14px;&quot;&gt;Термометр1&lt;/font&gt;" style="outlineConnect=0;dashed=0;verticalLabelPosition=bottom;verticalAlign=top;align=center;html=1;shape=mxgraph.aws3.thermostat;fillColor=#5294CF;gradientColor=none;" vertex="1" parent="1">
          <mxGeometry x="-325" y="1480" width="80.5" height="80.5" as="geometry" />
        </mxCell>
        <mxCell id="XjjyREhmOFZzSv4XFWNx-103" style="edgeStyle=orthogonalEdgeStyle;rounded=0;orthogonalLoop=1;jettySize=auto;html=1;exitX=0.16;exitY=0.87;exitDx=0;exitDy=0;exitPerimeter=0;entryX=1.01;entryY=0.201;entryDx=0;entryDy=0;entryPerimeter=0;" edge="1" parent="1" source="XjjyREhmOFZzSv4XFWNx-102" target="XjjyREhmOFZzSv4XFWNx-62">
          <mxGeometry relative="1" as="geometry">
            <mxPoint x="-370" y="1670" as="targetPoint" />
            <Array as="points">
              <mxPoint x="-340" y="1550" />
              <mxPoint x="-340" y="1665" />
              <mxPoint x="-372" y="1665" />
            </Array>
          </mxGeometry>
        </mxCell>
        <mxCell id="XjjyREhmOFZzSv4XFWNx-104" value="&lt;font style=&quot;font-size: 14px;&quot;&gt;Обогреватель1&lt;/font&gt;" style="ellipse;whiteSpace=wrap;html=1;aspect=fixed;" vertex="1" parent="1">
          <mxGeometry x="-325" y="1600" width="80" height="80" as="geometry" />
        </mxCell>
        <mxCell id="XjjyREhmOFZzSv4XFWNx-105" value="Окно1" style="shape=image;verticalLabelPosition=bottom;labelBackgroundColor=default;verticalAlign=top;aspect=fixed;imageAspect=0;image=data:image/png,iVBORw0KGgoAAAANSUhEUgAAAGQAAABkCAYAAABw4pVUAAAACXBIWXMAAAsTAAALEwEAmpwYAAAC3ElEQVR4nO2dMWtTURiGHwQnofUnKFl0du0SEFHEsZ3E0dWl4OrqJI6uXQqurp3E0bUOxaK0FnFwFFQKVypHDCFp7k3u7fvm5n3g23puvrzPOSeFBD4IIYQQQgghhOXjPvAFqFa8joF7GHBsEEZlUkdd7vhvwA6wBayf8/fqECqzmsZ6yXKnZHtU90RN2vG/gT3gCTCIEOoKGZTM9kqGc52oOrtgH3gObDTYIX2lGquNks3+gidq6gu0dWT7StV1XuMLPjR8gWlXW58YjFxFTbKZlOVMJi24DjwG3gC/GjRwCLwEbgOXWV4uAbeAZ8D7Bu//FHgHPAVulme1ImSUK8AD4BXwtYUj27f6DrwGHgFX58h3oQXz7py+1WGDm6BTIeNcG7nafhoEVXVUo1fRjYYZXaiQUdaATYPwqpZrs7y3eZEJ6ep5F408D3kDZsjzkDdghjwPeQNmyPOQN2CGPA95A2bI85A3YIY8D3kDZsjzkDdghjwPeQNmyPOQN2CGPA95A2bI85A3YIY8D3kDZsjzkDdghjwPeQNmyPOQN2CGPA95A2bI8xhf8BbYBV4A28BDYFh+1lLnq8xVE7JWshmWrLZLdrsly4WFzKofwME54vomZDgl6IOSRdP8GjfQdi0blToPeQNmyPOQH1Ez5Fe4/EPMDPk/OW0H2DchixIhCxIhZkSIGRFiRoSYESFmRIgZEWJGhJgRIWZEiBkRYkaEmBEhZkSIGRFiRoSYESFmRIgZEWJGhJgRIWZEiBkRYkaEmBEhZkSIGRFiRoSYESFmRIgZEWJGhJgRIWZEiBm9EfJvKlnVs9qaMbXOSsi8k3iWrU4nTM6xEJKBLugHumTkEfqRRxkKhs9QsIzNMxub17RWjarrvOo8JKNX/9P56NXPExZlODGdDCf+VEfIHeAjcJLx3XQ1vvukZHyWdetkwD3dDrhvytmQ9kjhr4y7ahkhhBBCCCGEQEP+AF/TtES8NT4MAAAAAElFTkSuQmCC;" vertex="1" parent="1">
          <mxGeometry x="-215.89999999999998" y="1470" width="85" height="85" as="geometry" />
        </mxCell>
        <mxCell id="XjjyREhmOFZzSv4XFWNx-106" value="&lt;font style=&quot;font-size: 14px;&quot;&gt;Термометр2&lt;/font&gt;" style="outlineConnect=0;dashed=0;verticalLabelPosition=bottom;verticalAlign=top;align=center;html=1;shape=mxgraph.aws3.thermostat;fillColor=#5294CF;gradientColor=none;" vertex="1" parent="1">
          <mxGeometry x="-105" y="1597.25" width="80.5" height="80.5" as="geometry" />
        </mxCell>
        <mxCell id="XjjyREhmOFZzSv4XFWNx-107" value="&lt;font style=&quot;font-size: 14px;&quot;&gt;Обогреватель2&lt;/font&gt;" style="ellipse;whiteSpace=wrap;html=1;aspect=fixed;" vertex="1" parent="1">
          <mxGeometry x="-104.75" y="1714" width="80" height="80" as="geometry" />
        </mxCell>
        <mxCell id="XjjyREhmOFZzSv4XFWNx-108" value="Окно2" style="shape=image;verticalLabelPosition=bottom;labelBackgroundColor=default;verticalAlign=top;aspect=fixed;imageAspect=0;image=data:image/png,iVBORw0KGgoAAAANSUhEUgAAAGQAAABkCAYAAABw4pVUAAAACXBIWXMAAAsTAAALEwEAmpwYAAAC3ElEQVR4nO2dMWtTURiGHwQnofUnKFl0du0SEFHEsZ3E0dWl4OrqJI6uXQqurp3E0bUOxaK0FnFwFFQKVypHDCFp7k3u7fvm5n3g23puvrzPOSeFBD4IIYQQQgghhOXjPvAFqFa8joF7GHBsEEZlUkdd7vhvwA6wBayf8/fqECqzmsZ6yXKnZHtU90RN2vG/gT3gCTCIEOoKGZTM9kqGc52oOrtgH3gObDTYIX2lGquNks3+gidq6gu0dWT7StV1XuMLPjR8gWlXW58YjFxFTbKZlOVMJi24DjwG3gC/GjRwCLwEbgOXWV4uAbeAZ8D7Bu//FHgHPAVulme1ImSUK8AD4BXwtYUj27f6DrwGHgFX58h3oQXz7py+1WGDm6BTIeNcG7nafhoEVXVUo1fRjYYZXaiQUdaATYPwqpZrs7y3eZEJ6ep5F408D3kDZsjzkDdghjwPeQNmyPOQN2CGPA95A2bI85A3YIY8D3kDZsjzkDdghjwPeQNmyPOQN2CGPA95A2bI85A3YIY8D3kDZsjzkDdghjwPeQNmyPOQN2CGPA95A2bI8xhf8BbYBV4A28BDYFh+1lLnq8xVE7JWshmWrLZLdrsly4WFzKofwME54vomZDgl6IOSRdP8GjfQdi0blToPeQNmyPOQH1Ez5Fe4/EPMDPk/OW0H2DchixIhCxIhZkSIGRFiRoSYESFmRIgZEWJGhJgRIWZEiBkRYkaEmBEhZkSIGRFiRoSYESFmRIgZEWJGhJgRIWZEiBkRYkaEmBEhZkSIGRFiRoSYESFmRIgZEWJGhJgRIWZEiBm9EfJvKlnVs9qaMbXOSsi8k3iWrU4nTM6xEJKBLugHumTkEfqRRxkKhs9QsIzNMxub17RWjarrvOo8JKNX/9P56NXPExZlODGdDCf+VEfIHeAjcJLx3XQ1vvukZHyWdetkwD3dDrhvytmQ9kjhr4y7ahkhhBBCCCGEQEP+AF/TtES8NT4MAAAAAElFTkSuQmCC;" vertex="1" parent="1">
          <mxGeometry x="-215.89999999999998" y="1595" width="85" height="85" as="geometry" />
        </mxCell>
        <mxCell id="XjjyREhmOFZzSv4XFWNx-109" style="edgeStyle=orthogonalEdgeStyle;rounded=0;orthogonalLoop=1;jettySize=auto;html=1;entryX=0.991;entryY=0.706;entryDx=0;entryDy=0;entryPerimeter=0;exitX=0.16;exitY=0.87;exitDx=0;exitDy=0;exitPerimeter=0;" edge="1" parent="1" source="XjjyREhmOFZzSv4XFWNx-106" target="XjjyREhmOFZzSv4XFWNx-62">
          <mxGeometry relative="1" as="geometry">
            <Array as="points">
              <mxPoint x="-92" y="1680" />
              <mxPoint x="-120" y="1680" />
              <mxPoint x="-120" y="1709" />
            </Array>
          </mxGeometry>
        </mxCell>
        <mxCell id="XjjyREhmOFZzSv4XFWNx-110" value="&lt;font style=&quot;font-size: 14px;&quot;&gt;Телефон&lt;/font&gt;" style="verticalLabelPosition=bottom;verticalAlign=top;html=1;shadow=0;dashed=0;strokeWidth=1;shape=mxgraph.android.phone2;strokeColor=#c0c0c0;" vertex="1" parent="1">
          <mxGeometry x="-180.00000000000003" y="1754" width="46.15" height="90" as="geometry" />
        </mxCell>
        <mxCell id="XjjyREhmOFZzSv4XFWNx-111" style="edgeStyle=orthogonalEdgeStyle;rounded=0;orthogonalLoop=1;jettySize=auto;html=1;entryX=0.884;entryY=0.997;entryDx=0;entryDy=0;entryPerimeter=0;startArrow=classic;startFill=1;" edge="1" parent="1" source="XjjyREhmOFZzSv4XFWNx-110" target="XjjyREhmOFZzSv4XFWNx-62">
          <mxGeometry relative="1" as="geometry">
            <Array as="points">
              <mxPoint x="-386" y="1760" />
            </Array>
          </mxGeometry>
        </mxCell>
      </root>
    </mxGraphModel>
  </diagram>
</mxfile>
